<svg xmlns="http://www.w3.org/2000/svg" width="25.136" height="26.911" viewBox="0 0 25.136 26.911">
  <g id="Group_248" data-name="Group 248" transform="translate(-337.084 -801.9)">
    <path id="hand-sanitizer" d="M33.625,12.6A4.19,4.19,0,0,0,30.507,9.1V4.8H27.064V2.087h4.552a1.685,1.685,0,0,1,1.2.5l3.371,3.371,1.476-1.476L34.291,1.108A3.758,3.758,0,0,0,31.616,0H21.534V2.087h3.443V4.8H21.534V9.1A4.19,4.19,0,0,0,18.416,12.6l-1.331,9.981a3.652,3.652,0,0,0,3.62,4.135H31.336a3.652,3.652,0,0,0,3.62-4.135Zm-5.2-5.709V8.973h-4.8V6.886Zm4.093,17.2a1.544,1.544,0,0,1-1.178.534H20.705a1.565,1.565,0,0,1-1.551-1.772l1.331-9.981a2.093,2.093,0,0,1,2.068-1.811h6.935a2.093,2.093,0,0,1,2.068,1.811l1.331,9.981a1.544,1.544,0,0,1-.374,1.238Zm8.247-13.422c-.545-.8-1.907-2.436-1.907-2.436s-1.362,1.633-1.907,2.436a5.211,5.211,0,0,0-1.223,2.844,3.13,3.13,0,0,0,6.26,0A5.211,5.211,0,0,0,40.761,10.668Zm-1.907,3.887a1.044,1.044,0,0,1-1.043-1.042,4.36,4.36,0,0,1,.869-1.682c.058-.086.117-.17.175-.252.058.082.116.166.175.252a4.4,4.4,0,0,1,.869,1.681,1.044,1.044,0,0,1-1.043,1.042Zm-11.738,2.3H29.2v2.087H27.116v2.087H25.03V18.937H22.943V16.851H25.03V14.764h2.087Z" transform="translate(320.136 802)" fill="#77f" stroke="#77f" stroke-width="0.2"/>
    <g id="Group_247" data-name="Group 247" transform="translate(338.586 807.427)">
      <path id="Path_506" data-name="Path 506" d="M3.949,4.469c.534-.924-.611-3.328.658-3.914s5.258-.879,6.625,0c.269.173,0,1.7.553,3.173,1.7,4.5,5.046,14.835,3.948,15.305a17.431,17.431,0,0,1-6.488,1.192c-2.733,0-6.584.586-8.341,0S-.156,6.322,3.949,4.469Z" transform="translate(0 0)" fill="#77f" opacity="0.2"/>
    </g>
    <path id="Path_507" data-name="Path 507" d="M1.439.028c.723,1.467,2.144,4.831,1.678,4.985A9.417,9.417,0,0,1,.359,5.4C-.8,5.4,1.2-.451,1.439.028Z" transform="translate(357.663 812.109)" fill="#77f" opacity="0.2"/>
  </g>
</svg>
