<svg xmlns="http://www.w3.org/2000/svg" width="50.777" height="48.352" viewBox="0 0 50.777 48.352"><g id="Group_244" data-name="Group 244" opacity=".2" transform="translate(209.879 -206.056)"><path id="Path_475" fill="#e1e1ff" d="M-196.043,246.294c-3.154,1.854-10.974,7.156-11.02,7.091-.39-.556-1.146-1.531-1.906-1.532s-.977.842-.892,1.471c.121.906,1.434,3.06,2.907,3.057a.788.788,0,0,0,.711-.661,2.651,2.651,0,0,0-.389-1.628c3.409-1.6,8.506-3.827,11.874-5.649C-194.073,248.071-195.435,245.936-196.043,246.294Z" data-name="Path 475" transform="translate(0 -12.151)"/><path id="Path_476" fill="#e1e1ff" d="M-165.274,220.877c1.537-3.32,4.948-12.132,5.023-12.1.638.236,1.814.608,2.44.174s.324-1.248-.1-1.716c-.615-.676-2.921-1.7-4.131-.858a.788.788,0,0,0-.208.947,2.64,2.64,0,0,0,1.247,1.117c-1.894,3.254-4.815,7.989-6.546,11.4C-167.9,220.538-165.57,221.517-165.274,220.877Z" data-name="Path 476" transform="translate(-12.784)"/><path id="Path_477" fill="#e1e1ff" d="M-161.114,253.378c2.2,2.925,8.345,10.1,8.285,10.153-.509.45-1.393,1.31-1.308,2.067s.946.876,1.561.721c.886-.223,2.88-1.769,2.711-3.232a.787.787,0,0,0-.736-.632,2.643,2.643,0,0,0-1.574.57c-1.97-3.209-4.759-8.022-6.948-11.163C-159.569,251.222-161.537,252.814-161.114,253.378Z" data-name="Path 477" transform="translate(-14.723 -13.802)"/><path id="Path_478" fill="#e1e1ff" d="M-159.514,243.85c3.586.726,12.948,2,12.938,2.082-.082.675-.17,1.905.4,2.414s1.289.026,1.646-.5c.515-.756.977-3.236-.122-4.218a.787.787,0,0,0-.97.017,2.642,2.642,0,0,0-.8,1.471c-3.6-1.088-8.887-2.833-12.61-3.726C-159.792,241.211-160.2,243.709-159.514,243.85Z" data-name="Path 478" transform="translate(-15.118 -10.679)"/><path id="Path_479" fill="#e1e1ff" d="M-190.49,227.229c-3.02-2.066-11.144-6.888-11.1-6.958.338-.589.9-1.688.576-2.377s-1.177-.525-1.71-.182c-.768.495-2.16,2.6-1.53,3.932a.787.787,0,0,0,.9.362,2.645,2.645,0,0,0,1.308-1.044c2.895,2.406,7.081,6.071,10.163,8.344C-191.261,229.768-189.908,227.627-190.49,227.229Z" data-name="Path 479" transform="translate(-1.651 -3.434)"/><path id="Path_480" fill="#e1e1ff" d="M-185.841,215.531c5.155-1.368,10.809.365,15.057,3.378,4.1,2.9,8.266,8.035,8.509,13.279.521,11.291-11.386,19.583-20.786,17.371-9.992-2.353-16.873-14.192-13.422-23.883A15.942,15.942,0,0,1-185.841,215.531Z" data-name="Path 480" transform="translate(-3.777 -2.721)"/><path id="Path_481" fill="#fff" d="M-179.359,249.414c-4.675-.108-9.014-2.951-11.853-6.527-2.741-3.447-5-8.788-3.918-13.264,2.323-9.636,14.378-13.707,21.752-9.545,7.839,4.425,10.738,16.078,5.463,23.4A13.981,13.981,0,0,1-179.359,249.414Z" data-name="Path 481" transform="translate(-4.375 -3.748)"/><path id="Path_482" fill="#fff" d="M-181.631,260.667c-.844,2.315-2.637,8.418-2.688,8.4-.441-.122-1.251-.3-1.647.02s-.147.856.166,1.146c.451.419,2.055.976,2.819.343a.531.531,0,0,0,.087-.647,1.783,1.783,0,0,0-.9-.68c1.087-2.289,2.78-5.63,3.749-8.019C-179.847,260.747-181.468,260.221-181.631,260.667Z" data-name="Path 482" transform="translate(-7.167 -16.458)"/><path id="Path_483" fill="#fff" d="M-194.642,241.027c-2.463.046-8.8.574-8.807.52-.045-.456-.166-1.277-.613-1.529s-.851.171-1.009.568c-.228.571-.17,2.269.7,2.754a.531.531,0,0,0,.636-.154,1.778,1.778,0,0,0,.309-1.084c2.528.19,6.254.564,8.832.608C-194.073,242.721-194.167,241.018-194.642,241.027Z" data-name="Path 483" transform="translate(-1.419 -10.244)"/><path id="Path_484" fill="#fff" d="M-185.752,220.411c-1.157-2.175-4.5-7.588-4.452-7.617.386-.246,1.063-.726,1.086-1.238s-.538-.681-.963-.643c-.613.056-2.1.876-2.141,1.868a.529.529,0,0,0,.424.5,1.776,1.776,0,0,0,1.107-.215c.975,2.34,2.328,5.832,3.457,8.15C-187,221.685-185.529,220.83-185.752,220.411Z" data-name="Path 484" transform="translate(-5.337 -1.467)"/><path id="Path_485" fill="#fff" d="M-173.922,220.987c.16-2.458.167-8.819.221-8.82.458-.006,1.287-.059,1.575-.482s-.1-.862-.481-1.053c-.55-.276-2.247-.36-2.8.462a.53.53,0,0,0,.1.646,1.776,1.776,0,0,0,1.054.4c-.4,2.5-1.088,6.184-1.347,8.749C-175.658,221.411-173.954,221.461-173.922,220.987Z" data-name="Path 485" transform="translate(-10.36 -1.325)"/><path id="Path_486" fill="#fff" d="M-159.1,232.962c2.251-1,7.889-3.946,7.915-3.9.218.4.649,1.113,1.157,1.171s.718-.488.71-.915c-.011-.615-.724-2.157-1.71-2.268a.531.531,0,0,0-.526.387,1.78,1.78,0,0,0,.135,1.119c-2.4.807-5.983,1.908-8.375,2.868C-160.285,231.622-159.538,233.155-159.1,232.962Z" data-name="Path 486" transform="translate(-15.091 -6.347)"/><path id="Path_487" fill="#fff" d="M-163.935,256.639c.891,2.3,3.566,8.068,3.517,8.092-.412.2-1.141.594-1.224,1.1s.454.74.88.752c.615.018,2.189-.621,2.347-1.6a.531.531,0,0,0-.362-.544,1.776,1.776,0,0,0-1.124.082c-.691-2.439-1.621-6.067-2.466-8.5C-162.54,255.523-164.106,256.2-163.935,256.639Z" data-name="Path 487" transform="translate(-13.885 -15.051)"/><path id="Path_488" fill="#e1e1ff" d="M-185.226,246.608a5.857,5.857,0,0,1-4.26-2.346,6.061,6.061,0,0,1-1.408-4.767,5.6,5.6,0,0,1,7.818-3.431,6.054,6.054,0,0,1,1.963,8.409A5.025,5.025,0,0,1-185.226,246.608Z" data-name="Path 488" transform="translate(-5.709 -8.895)"/><path id="Path_489" fill="#e1e1ff" d="M-170.965,246.7a4.445,4.445,0,0,1,2.376-2.825,4.6,4.6,0,0,1,3.757-.344,4.247,4.247,0,0,1,1.4,6.327,4.594,4.594,0,0,1-6.55.219A3.813,3.813,0,0,1-170.965,246.7Z" data-name="Path 489" transform="translate(-11.739 -11.247)"/><path id="Path_490" fill="#e1e1ff" d="M-172.017,233.468a2.851,2.851,0,0,1,1.524-1.812,2.952,2.952,0,0,1,2.411-.22,2.724,2.724,0,0,1,.9,4.059,2.947,2.947,0,0,1-4.2.141A2.446,2.446,0,0,1-172.017,233.468Z" data-name="Path 490" transform="translate(-11.43 -7.62)"/></g></svg>