<svg xmlns="http://www.w3.org/2000/svg" id="Component_23_1" width="138.227" height="208.6" data-name="Component 23 – 1" viewBox="0 0 138.227 208.6"><path id="Path_417" fill="#77f" d="M1023.969,354.666c-.381.218-.109-.236,0,0Z" data-name="Path 417" transform="translate(-961.849 -199.859)"/><path id="Path_418" fill="#77f" d="M1074.434,367.7c-.672,2.852-4.36,5.16-7.958,6.976-2.162,1.072-4.288,1.962-5.7,2.671a121.2,121.2,0,0,1-16.315,6.7,123.829,123.829,0,0,1-14.9,3.906,122.068,122.068,0,0,1-54.776-1.671,56.563,56.563,0,0,1-12.228-4.523,74.284,74.284,0,0,1-11.464-8.03c-10.174-8.121-15.115-14.952-13.935-28.306.727-8.085,2.071-16.5,6.886-23.019,6.159-8.376,16.66-12.027,26.143-16.278,2.725-1.217,5.487-2.58,7.485-4.778,1.944-2.162,3.089-5.033,5.432-6.74a40.469,40.469,0,0,0,7.321,6.214c3.143,1.708,6.05,2.816,9.593,2.125-1.108,2.78-3.143,5.051-4.851,7.5a39.316,39.316,0,0,0-5.65,11.846c-.963,3.361-1.417,7.3.2,10.555a5.865,5.865,0,0,0,3.506,3.2c.418.145,5.323,1.127,5.269.618a.28.28,0,0,0-.037-.145.018.018,0,0,1,.018-.018,3.1,3.1,0,0,0,1.036-1.617q4.414-12.209,8.866-24.4c1.635-4.524,3.561-9.12,4.615-13.826.327-1.49-.036-3.234,1.29-3.707,1.49-.508,5.359,1.926,6.595,2.671,1.926,1.181,4.233,2.725,6.214,1.654,1.635-.89,2.416-3.343,4.269-3.306a2.8,2.8,0,0,1,1.744.781c2.035,1.8,2.471,4.778,2.344,7.485-.236,5.087-1.926,9.938-3.543,14.716-.8,2.417-1.6,4.814-2.235,7.285-.6,2.344-.491,4.669-1.235,6.995-.672,2.09-1.344,4.179-2.016,6.25a3.462,3.462,0,0,1,2.289-1.126,13.959,13.959,0,0,1,9.375,1.653,48.558,48.558,0,0,0,1.617-8.375,70.971,70.971,0,0,0-1.126-11.918c-.164-.89-.328-1.781-.472-2.671-.145-.672-.255-1.326-.364-2-.018-.164-.054-.309-.073-.472a54.2,54.2,0,0,1-.527-10.429c.218-.036.436-.054.654-.073,2.562-.181,4.687.709,7.213,1.581a37.058,37.058,0,0,1,6.177,2.617,16.271,16.271,0,0,1,2.979,2.107,15.935,15.935,0,0,1,3.4,4.415c2.217,4.087,3.089,9.029,4.125,13.662.527,2.343,1.126,4.687,1.8,7.012,1.817,6.45,4.088,12.772,6.268,19.131C1071.037,356.4,1075.361,363.723,1074.434,367.7Z" data-name="Path 418" transform="translate(-936.336 -181.719)"/><circle id="Ellipse_27" cx="2.589" cy="2.589" r="2.589" fill="#fff" data-name="Ellipse 27" transform="translate(82.142 138.616)"/><path id="Path_419" fill="#6363eb" d="M944.451,327.792c3.409,16.738,18.757,30.263,35.791,31.54a3.88,3.88,0,0,1,4.463,3.683,38.418,38.418,0,0,0,3.016,7.514c.366.69,1.091,1.483,1.779,1.11a1.543,1.543,0,0,0,.6-1.124q.507-2.464,1.014-4.93c2.087.424,3.614,2.14,5.253,3.5s3.973,2.439,5.833,1.4c1.667-2.724.662-6.2.6-9.394a30.491,30.491,0,0,1,1.448-8.486l3.308-12.259c3.63-13.453,7.278-26.957,12.768-39.764a1.6,1.6,0,0,1,.6-.827c.527-.292,1.164.08,1.648.438,4.365,3.233,8.1,3.313,12.719.217,1.527,1.406,1.214,3.853.78,5.883l-3.817,17.843c-.568,2.658-1.34,12.419-4.028,14.022,4.386-2.616,9.621.443,13.76,2.007a77.143,77.143,0,0,0-1.767-28.821c.123.481,5.569,2.482,6.333,2.944,1.992,1.2,4.669,2.8,6.052,4.719,2.709,3.759,3.794,10.137,4.954,14.619a114.412,114.412,0,0,1,3.5,34.647,35.908,35.908,0,0,1-2.067,11.442c-1.635,4.106-7.91,4.973-11.7,6.263a121.161,121.161,0,0,1-17.492,4.683c-14.645,2.645-32.191,2.582-45.876-3.8-12.233-5.708-22.334-15.465-30.074-26.389C949.012,353.648,938.388,336.1,944.451,327.792Z" data-name="Path 419" transform="translate(-937.996 -183.706)"/><path id="Path_420" fill="#6363eb" d="M1010.851,347.142a34.2,34.2,0,0,0-.243,8.017,11.491,11.491,0,0,0,3.359,7.12,2.043,2.043,0,0,0,1.235.637,2.224,2.224,0,0,0,1.658-1.1,21.3,21.3,0,0,0,4.154-10.064,11.179,11.179,0,0,1-4.062.458,3.8,3.8,0,0,1-3.165-2.286" data-name="Path 420" transform="translate(-957.935 -197.668)"/><path id="Path_421" fill="#fff" d="M1064.845,332.577c-.183-.252-.584.182-.409.441s.544.268.856.257a25.363,25.363,0,0,1,10.213,1.754c-.187-2.768,1.308-5.349,1.824-8.074.681-3.587-.354-7.245-1.121-10.814-2.469-11.488-2.2-23.366-1.927-35.113a21.234,21.234,0,0,1-5.968,1.376,11.465,11.465,0,0,1-.718,7.014c1.7-.018,3.119,1.335,4.005,2.791a15.806,15.806,0,0,1,1.862,9.72,47.052,47.052,0,0,1-2.379,9.764q-3,9.358-6,18.716Z" data-name="Path 421" transform="translate(-973.791 -178.232)"/><path id="Path_422" fill="#b7b7ff" d="M1064.224,333.661a23.343,23.343,0,0,1,11.759,2.078c2.129-7.482,1.077-15.451.138-23.173q-1.712-14.085-2.848-28.231a8.325,8.325,0,0,0-4.213,1.717,3.652,3.652,0,0,0-1.085,4.151,2.918,2.918,0,0,1,3.039,1.524,7.907,7.907,0,0,1,.832,3.516,70.67,70.67,0,0,1-3.792,28.161Z" data-name="Path 422" transform="translate(-973.741 -179.204)"/><path id="Path_423" fill="#fff" d="M1048.944,282.2a29.242,29.242,0,0,1-3.25-17.808,22.726,22.726,0,0,1,9.31-15.285c1.668-1.135,4.1-1.949,5.549-.547,1.2,1.154.958,3.094.633,4.723,1.479-.722,3.259.378,4.147,1.763s1.264,3.056,2.192,4.415c.832,1.219,2.062,2.119,2.91,3.326a6.666,6.666,0,0,1-7.1,10.294l-2.908,8.791c-.714,2.161-2.014,4.754-4.288,4.665Z" data-name="Path 423" transform="translate(-968.207 -168.468)"/><path id="Path_424" fill="#e1e1ff" d="M1053.7,288.8a3.361,3.361,0,0,0,3.414-1.875,9.22,9.22,0,0,0,.834-4.053,39.442,39.442,0,0,1,.872-8.517,10.458,10.458,0,0,1,4.886-6.751,7.578,7.578,0,0,1,3.914-.825,7.207,7.207,0,0,1,5.213,2.707,6.5,6.5,0,0,1,1.11,5.724,6.265,6.265,0,0,1-6.26,4.316,1.947,1.947,0,0,0-1.423.2,1.694,1.694,0,0,0-.45.938c-.95,3.868-2.559,7.891-5.909,10.047-.513.33-1.518.309-1.4-.289Z" data-name="Path 424" transform="translate(-970.646 -174.039)"/><path id="Path_425" fill="#fff" d="M1021.4,322.013a15.066,15.066,0,0,1-10.018-1.686,5.442,5.442,0,0,1-2.779-2.974,6.575,6.575,0,0,1-.156-1.924c.088-4.908,1.28-10.436,4.332-14.356,3.923-5.035,8.3-10.161,9.38-16.452.52-3.022.167-6.037.712-9.036.519-2.857.7-5.793,1.016-8.678.641-5.781,1.494-11.713,4.407-16.849,1.769-3.119,4.406-5.928,7.825-7.01,2.091-.662,8.605-.549,9.173,2.6.242,1.343-5.545,6.8-6.546,8.611a28.012,28.012,0,0,0-2.255,22.152,2.834,2.834,0,0,1,.136,2.254,3.818,3.818,0,0,1-1.108,1c-3.3,2.561-1.69,8.382-4.612,11.371Z" data-name="Path 425" transform="translate(-957.344 -166.971)"/><path id="Path_426" fill="#e1e1ff" d="M1017.912,323.122c-1.444-1.6-1.3-4.171-1.139-6.147.368-4.5,2.173-9.149,4.156-13.167,3.05-6.179,6.929-12.047,8.669-18.714,1.561-5.981,1.311-12.289,2.439-18.367s4.135-12.4,9.8-14.864q-1.744,8.771-3.145,17.6c-.59,3.721-1.125,7.6-.018,11.2a8.824,8.824,0,0,0-1.594,3.277c-4.47,13.794-8.488,27.852-13.475,41.462C1022.037,323.976,1019.584,324.961,1017.912,323.122Z" data-name="Path 426" transform="translate(-959.763 -169.658)"/><path id="Path_427" fill="#fff" d="M997.441,201.235l1.742.729c-1.863-2.29-5.555-2.516-8.038-.919a9.512,9.512,0,0,0-3.952,7.557,7.912,7.912,0,0,0,.465,3.359c1.44,3.577,5.979,4.73,9.829,4.521q1.811,20.144,1.982,40.39c.019,2.32,1.6,4.446,3.429,5.871,3.132,2.437,6.936,4.227,10.9,4.188,5.77-10.275,1.586-23.9,5.766-34.914A23.6,23.6,0,0,1,1024,224.7c4.058-4.553,9.584-6.834,14.6-2.434a9.651,9.651,0,0,1,2.1,2.288c.583-.417.968-1.153,1.684-1.1a2.563,2.563,0,0,1,1.9,1.57,6.426,6.426,0,0,1,.392,4.824,6.072,6.072,0,0,1,4.775,1.7,3.586,3.586,0,0,0,1.539,1.344c-.194-5.9,1.294-12.181,1.8-18.082.521-6.137.851-12.3.783-18.456-.059-5.3-.64-10.583-.509-15.823.071-2.857-.024-8.765-1.807-11.131-2.084-2.765-11.145-3.355-14.464-3.795a71.892,71.892,0,0,0-31.059,2.683,28.708,28.708,0,0,0-9.281,4.508,13.193,13.193,0,0,0-5.19,8.667c-.367,3.486,1.079,6.936,3.05,9.834Z" data-name="Path 427" transform="translate(-951.091 -144.116)"/><path id="Path_428" fill="#e1e1ff" d="M1026.225,272.687c-2.954,1.28-6.164-1.072-9.37-1.376a.94.94,0,0,0-.715.139.915.915,0,0,0-.193.808c.375,3.222,3.68,5.145,5.549,7.8,1.893,2.683,2.278,6.106,2.778,9.352a1.138,1.138,0,0,0,.21.592.79.79,0,0,0,1.123-.087,2.206,2.206,0,0,0,.453-1.167,41.115,41.115,0,0,0,.421-10.938" data-name="Path 428" transform="translate(-959.545 -175.372)"/><path id="Path_429" fill="#e1e1ff" d="M1025.374,176.587a35.889,35.889,0,0,0,27.164,9.62q.542,6.065,1.085,12.13a4.608,4.608,0,0,0,.875,2.776c1.163,1.272,3.531,1.041,4.392,2.533,1.528,2.65-3.921,5.717-2.26,8.287.34.527.928.857,1.269,1.384.925,1.426-.453,3.325-2.025,3.971s-3.39.663-4.836,1.555a1.737,1.737,0,0,0-.849.987c-.424,1.733,2.822,1.6,3.911,3.01.732.95.245,2.3.061,3.483a6.562,6.562,0,0,0,7.237,7.124c2.688-6.865,2.941-14.4,3.16-21.773l1.149-38.61Z" data-name="Path 429" transform="translate(-962.32 -146.493)"/><path id="Path_430" fill="#372b7b" d="M1027.473,179.485l.412.209c-.482-.135-.959-.277-1.435-.429C1026.789,179.347,1027.128,179.425,1027.473,179.485Z" data-name="Path 430" transform="translate(-962.636 -148.316)"/><path id="Path_431" fill="#372b7b" d="M1015.756,148.7c-.464.364-.908.745-1.339,1.14l-.1-.047Q1015.019,149.223,1015.756,148.7Z" data-name="Path 431" transform="translate(-959.071 -139.33)"/><g id="Group_221" data-name="Group 221"><path id="Path_432" fill="#372b7b" d="M1053.774,238.068a3.817,3.817,0,0,0,2.352-1.957,4.4,4.4,0,0,0,.463-1.607,3.057,3.057,0,0,0-.011-.687,2.1,2.1,0,0,0-.382-.974.814.814,0,0,0-1.49.615v.015l0,.025.009.112.055.45.03.144.014.246-.013.32,0,.042-.01.044c-.039.2-.118.39-.168.589l-.061.124-.145.256-.14.2-.037.044-.09.1-.21.2-.013.016-.108.077-.25.152-.143.069-.028.011a.709.709,0,1,0,.377,1.368Z" data-name="Path 432" transform="translate(-970.403 -163.949)"/><path id="Path_433" fill="#372b7b" d="M1087.661,244.5a45.031,45.031,0,0,1,6.4-1.865,7.22,7.22,0,0,0-.078,2.928c.366,1.595,1.69,1.87,3.115,1.548,3.667-.827,7.322-1.705,10.982-2.557,1.248-.289.718-2.189-.528-1.916l-8.121,1.781-1.933.422c-.322.071-.644.148-.967.213l-.443.071a4.6,4.6,0,0,1,.066-1.668,13.341,13.341,0,0,1,.431-1.98,1.094,1.094,0,0,0-1.331-1.331,44.905,44.905,0,0,0-8.1,2.5C1086.039,243.115,1086.493,244.946,1087.661,244.5Z" data-name="Path 433" transform="translate(-980.294 -166.207)"/><path id="Path_434" fill="#372b7b" d="M1094.175,267.821a2.329,2.329,0,0,0,1.927,2.28,6.178,6.178,0,0,0,1.9-.1l2.291-.294,4.3-.548a1.237,1.237,0,1,0-.331-2.44c-2.415.325-4.831.714-7.254.976-.227.025-.508-.07-.412.129a2.722,2.722,0,0,1,.042-1.059,4.728,4.728,0,0,0-.323-2.557,1.188,1.188,0,0,0-1.323-.538,47.609,47.609,0,0,0-6.011,1.948,2.739,2.739,0,0,0-1.065.667.939.939,0,0,0-.1,1.163,1.234,1.234,0,0,0,1.053.3c.342-.023,5.458-1.668,5.446-1.579,0,0-.053.4-.053.4A7.1,7.1,0,0,0,1094.175,267.821Z" data-name="Path 434" transform="translate(-980.628 -173.119)"/><path id="Path_435" fill="#372b7b" d="M998.2,224.19a3.5,3.5,0,0,0-1.363-2.2,2.636,2.636,0,0,0-2.271-.461,2.169,2.169,0,0,0-1.385,1.4,1.779,1.779,0,0,0,.438,1.937.355.355,0,0,0,.5-.5.964.964,0,0,1-.131-1.041,1.325,1.325,0,0,1,.331-.479.9.9,0,0,1,.453-.251,1.435,1.435,0,0,1,1.241.4l.147.147.072.077.239.385.045.094-.006-.013.066.2.059.247.023.124v.337l-.009.126-.009.085V224.8c-.042.193-.078.383-.136.573l-.038.122,0,.008-.074.1.019-.025a3.312,3.312,0,0,0-.417.714,1.171,1.171,0,1,0,2.141.9,2.589,2.589,0,0,0,.173-.873,6.328,6.328,0,0,1,0-.665A5.348,5.348,0,0,0,998.2,224.19Z" data-name="Path 435" transform="translate(-952.824 -160.715)"/><path id="Path_436" fill="#372b7b" d="M1029.4,222.474a14.627,14.627,0,0,1,3.847,3.241l-2.735,1.231a.925.925,0,0,0-.331,1.262.943.943,0,0,0,1.262.332l3.505-1.815a.824.824,0,0,0,.164-1.277,15.79,15.79,0,0,0-5.067-4.077C1029.318,221,1028.685,222.058,1029.4,222.474Z" data-name="Path 436" transform="translate(-963.412 -160.671)"/><path id="Path_437" fill="#372b7b" d="M1069.749,223.176l-5.408,2a.81.81,0,0,0-.19,1.46q.833.53,1.667,1.057l.811.513a5.815,5.815,0,0,0,1.015.455c.718.288,1.342-.818.76-1.3a6.168,6.168,0,0,0-.84-.645c-.293-.169-.589-.33-.884-.495l-.33-.185,3.892-1.687a.639.639,0,0,0-.492-1.167Z" data-name="Path 437" transform="translate(-973.607 -161.216)"/><path id="Path_438" fill="#372b7b" d="M1023.5,211.294l.2-.09c.306-.129.618-.24.933-.34a13.8,13.8,0,0,1,1.867-.442l.032-.007.253-.028q.254-.027.508-.043a8.342,8.342,0,0,0,1.227-.179,1.25,1.25,0,0,0,0-2.411,4.31,4.31,0,0,0-1.29-.078c-.414.052-.827.108-1.236.19a12.533,12.533,0,0,0-2.086.609,14.26,14.26,0,0,0-3.983,2.342,1.138,1.138,0,0,0,1.376,1.785,12.317,12.317,0,0,1,1.733-1.08Z" data-name="Path 438" transform="translate(-960.624 -156.662)"/><path id="Path_439" fill="#372b7b" d="M1061.261,212.023l6.809,2.059a1.064,1.064,0,1,0,.565-2.052l-6.9-1.718A.888.888,0,0,0,1061.261,212.023Z" data-name="Path 439" transform="translate(-972.686 -157.434)"/><path id="Path_440" fill="#372b7b" d="M1071.938,312.346a246.16,246.16,0,0,1-11.772-38.394c-1.191-5.427-3.368-9.877-7.761-13.431a23.241,23.241,0,0,0-14.339-5.317,109.51,109.51,0,0,0-2.016-14.41,9.084,9.084,0,0,0,3.122-13.372c-.986-1.352-2.448-2.2-3.315-3.645l-.137-.227.042-.067c3.18-8.385,2.576-17.937,3.019-26.753.2-4.088.378-8.157.406-12.223a.8.8,0,0,0,.894-.4,13.8,13.8,0,0,0,1.35-4.192c.3-1.4.522-2.821.7-4.244a30.783,30.783,0,0,0,.28-4.187c-.016-1.428.14-3.178-.81-4.292a6.516,6.516,0,0,0,2.482-2.789c1.074-2.381,1.079-5.309,1-7.881a12.977,12.977,0,0,0-.635-3.534,22.233,22.233,0,0,0-9.8-13.283c-.244-.156-.5-.287-.745-.433l-.178-.1q-.749-.434-1.516-.811l-.131-.07-.071-.026c-8.753-4.189-19.4-3.155-28.487-.57-8.284,2.358-16.693,7.422-19.677,15.475-.109.186-.22.371-.313.563a10.669,10.669,0,0,0-1.12.085,14.288,14.288,0,0,0-12.174,9.226c-1.332,3.727-.443,7.8.863,11.392.174.481.361.964.541,1.447.828,5.133,3.251,9.634,4.478,14.623a.524.524,0,0,1-.287.738,8.612,8.612,0,0,0-4.61,6.639,10.766,10.766,0,0,0,3.932,10.056A7.357,7.357,0,0,0,979,209.337a37.069,37.069,0,0,1,3.558,16.069c-.067,2.415-.1,4.833-.09,7.262q.021,4.294.237,8.58.113,2.31.255,4.618a10.312,10.312,0,0,0,.2,1.956l-.2.08-.222.037-2.006,1.476q-.493.365-.982.738a3.969,3.969,0,0,0-.554.443c-.152.165-.284.354-.424.53a.613.613,0,0,0-.047.791.6.6,0,0,0,.778.156c.181-.1.365-.205.547-.311a2.906,2.906,0,0,0,.544-.455c.306-.3.613-.587.915-.885q.64-.631,1.279-1.26A18.061,18.061,0,0,0,997,258.9l-.243.467c-.961,1.7-1.944,3.247-2.905,4.718a23.178,23.178,0,0,1-14.937-11.413.266.266,0,0,0-.211-.389c-.09-.167-.187-.33-.272-.5a.321.321,0,0,0-.584.246c.067.2.153.387.227.582a155.775,155.775,0,0,1-16.8,9.706c-5.509,2.592-10.888,4.4-14.85,9.293-.29.359-.558.733-.829,1.106l-.225.179a17.525,17.525,0,0,0-5.263,10.838c-.325.943-.636,1.888-.923,2.834-1.861,6.131-3.463,13.132-3.054,19.576a1.03,1.03,0,0,0,2.058,0c.621-4.761,1.036-9.421,1.964-14.062a35.473,35.473,0,0,0,2.449,8.962c4.582,10.721,14.927,17.568,24.414,23.6,5.756,3.662,11.874,6.948,18.486,8.762,5.949,1.632,14.123,2.883,19.749-.326a.572.572,0,0,0-.287-1.058c-2.66.089-5.273.626-7.943.68a36.9,36.9,0,0,1-8.952-.958,56.407,56.407,0,0,1-15.393-6.341,143.7,143.7,0,0,1-13.749-9.077c-4.37-3.229-8.765-6.859-11.9-11.342a30.128,30.128,0,0,1-4.917-11.817c-.8-4.363.09-8,1.409-12.173a14.5,14.5,0,0,1,2.4-5.125c5.433-6.443,15.18-4.694,20.69.765,1.795,1.776,3.292,3.813,4.9,5.748a85.248,85.248,0,0,0,6.462,6.728c4.314,4.151,8.609,8.684,13.412,12.322-.222.27-.447.534-.664.809a28.69,28.69,0,0,0-4.2,7.367c-.691,1.783-2.395,5.324-.955,6.99l.473.06c1-.69.894-1.457,1.155-2.649a25.529,25.529,0,0,1,1.652-5.026,27.225,27.225,0,0,1,3.532-5.663,30.157,30.157,0,0,0-.827,3.611c-.342,2.145-1.26,6.674,1.517,7.693a.96.96,0,0,0,.869-1.665,2.155,2.155,0,0,1-.784-1.192,13.215,13.215,0,0,1,.046-4.469,33.433,33.433,0,0,1,1.721-7.052,38.623,38.623,0,0,0,6.195-12.169c3.037-9.045,6.032-18.1,9.046-27.154l2.4-7.2c.661-1.984,1.841-3.654,2.014-5.725a16.549,16.549,0,0,0,2.305,1.88,34.379,34.379,0,0,0,10.05,4.259c2.226.547,6.656.674,7.67-1.971.94,7.553-2.506,15.022-4.579,22.123q-3.243,11.106-6.485,22.208c-2.006,6.87-3.871,13.8-6.049,20.616a33.116,33.116,0,0,1-3.654,8.241,16.181,16.181,0,0,1-2.706,3.186c-.92.823-2,1.263-2.342,2.514a.542.542,0,0,0,.371.655c2.24.635,4.548-2.343,5.752-3.894a28.832,28.832,0,0,0,3.991-7.514c2.7-7.077,4.413-14.6,6.5-21.879l2.168-7.557a13.132,13.132,0,0,1,8.986,2.019.8.8,0,0,0,1.058-.277c4.146-5.975,1.819-15.213,1.4-21.994-.292-4.747-.5-9.548-.863-14.332a25.313,25.313,0,0,1,14.683,6.848c4.358,4.348,5.152,9.744,6.533,15.473a242.779,242.779,0,0,0,11,34.172C1070.752,313.739,1072.328,313.323,1071.938,312.346ZM984.41,248.875l.105-.1c.7-1.066.361-2.334.311-3.566q-.082-1.977-.142-3.958-.087-2.818-.167-5.64c.081-3.277.067-6.56.068-9.8,0-3.179-.032-6.357-.05-9.536.619-1.24-.031-7.64-.05-9.42a.837.837,0,0,0-1.412-.585,4.881,4.881,0,0,1-3.04,1.389.838.838,0,0,0-.56.012,6.02,6.02,0,0,1-4.108-1.813A9.213,9.213,0,0,1,973,198.116c.385-2.545,1.9-5,4.483-5.733a5.425,5.425,0,0,1,6.192,2.161.962.962,0,0,0,1.778-.481,107.287,107.287,0,0,0-.89-20.13,11.773,11.773,0,0,0,8.666-5.544,7,7,0,0,0,.731-1.658,43.029,43.029,0,0,0,9.151,2.9,80.435,80.435,0,0,0,15.855,1.717c5.2.124,11.1.7,16.153-.766a12.6,12.6,0,0,0,1.971-.777,206.924,206.924,0,0,1-.2,26.491c-.447,8.263.006,17.194-2.619,25.158a5.721,5.721,0,0,0-.832-.75,12.452,12.452,0,0,0-3.353-1.618,4.309,4.309,0,0,0-4.512-5.305c-11.962-11.22-21.083,5.289-22.966,17.121-.081.511-.154,1.027-.224,1.542-.823-.2-1.645-.389-2.465-.594a1.03,1.03,0,0,0-.547,1.985c.916.229,1.834.446,2.752.662-.867,7.551-1.044,15.353-4.1,22.33A17.157,17.157,0,0,1,984.41,248.875Zm11.578,46.534a33.936,33.936,0,0,1-3.732,4.966c-4-4.81-8.923-9.031-13.4-13.35a77.977,77.977,0,0,1-6.4-6.788,56.285,56.285,0,0,0-4.761-5.46c-1-2.009-5.2-3.569-7.173-4.226-2.992-1-5.479-.617-8.563-.433,8.762-5.122,19.564-8.265,26.893-15.532l.052-.078A21.627,21.627,0,0,0,992.928,265.5c-3.813,5.791-7,10.675-6.486,19.224a1.154,1.154,0,0,0,.358.777l.167.358a10.437,10.437,0,0,0,3.176,3.323,12.418,12.418,0,0,0,4.187,1.909,12.861,12.861,0,0,0,2.265.342,8.114,8.114,0,0,0,1.271,0A30.634,30.634,0,0,1,995.988,295.41Zm18.159-50.242a.3.3,0,0,0,.02.075c.095.369.179.741.285,1.1l-.288-.007a.32.32,0,0,0-.583-.117,20.4,20.4,0,0,0-1.008,2.091,13.112,13.112,0,0,0,.1-3.341q-.051-1.794-.1-3.586c-.068-2.405-.193-4.774-.43-7.17a.213.213,0,0,0-.426,0c-.236,2.4-.363,4.764-.43,7.17q-.051,1.791-.1,3.586a45.726,45.726,0,0,1-1.628,11.939c-1.485,5.078-3.509,10.007-5.161,15.02-1.755,5.323-3.458,10.662-5.251,15.972-.164.486-.335.969-.506,1.453a6.233,6.233,0,0,0-1.543-.023,10.989,10.989,0,0,1-1.677-.067c-2.679-.334-6.044-2.54-6.69-5.359-.412-1.8.311-4.505.745-6.265a32.3,32.3,0,0,1,2.33-6.257c.275-.57,2.56-5.571,3.01-5.5.021,0,.041,0,.061.007a19.928,19.928,0,0,1,1.805-3.165c.209-.354.42-.707.625-1.063.434-.844.772-1.723,1.238-2.566a22.949,22.949,0,0,1,1.535-2.333c-.054.006-.107.02-.161.025a32.166,32.166,0,0,0,2.862-8.543c.842-5.051,1-10.117,1.65-15.17.172-1.335.441-2.53.74-3.837,1.127-4.912,2.609-10.188,5.893-14.141a8.8,8.8,0,0,1,5.49-3.4,7.7,7.7,0,0,1,3.464.416c.548.189,3.615,2.236,3.807,2.155-3.4,1.445-6.148,4.9-7.761,8.053C1012.517,229.266,1012.233,237.664,1014.147,245.167Zm10.95,6.041a23.235,23.235,0,0,1-9.312-5.479,36.849,36.849,0,0,1,.313-18.132,20.771,20.771,0,0,1,4.325-8.178,14.414,14.414,0,0,1,3.728-3.059,4.839,4.839,0,0,1,1.537-.556.644.644,0,0,0,.71-.012,1.85,1.85,0,0,1,1.143.621,2.346,2.346,0,0,1,.268,2.786,1.046,1.046,0,0,0,.618,1.519,14.079,14.079,0,0,1,3.483,1.464,6.971,6.971,0,0,1,2.127,2.657c1.155,1.975,3.256,3.039,4.171,5.184a7.038,7.038,0,0,1-5.831,9.762c.02-.143.04-.286.064-.426.252-1.469.473-3.648,2.041-4.3,1.527.255,2.655-1.965,1.063-2.785-2.453-1.263-3.6,1.327-4.121,3.259a31.83,31.83,0,0,0-.739,3.629c-.092.619-.321,1.269-.383,1.9C1029.431,244.791,1028.273,248.917,1025.1,251.209Zm7.321.4c-.556.7-2.218.4-2.994.344q-.9-.067-1.786-.193a13.561,13.561,0,0,0,2.6-3.81,7.345,7.345,0,0,1,1.818,1.35A1.943,1.943,0,0,1,1032.419,251.606Zm6.195,29.144a22.183,22.183,0,0,1-.828,8.014q-.108.347-.232.691a16.419,16.419,0,0,1-.815,1.881,8.206,8.206,0,0,0-4.049-1.454c-.549-.042-4.563-.983-4.665-.629q2.125-7.4,4.248-14.806c2.032-7.082,5.074-15.105,2.936-22.473a.338.338,0,0,0-.51-.155l.125-.415c.367-2.561-1.608-4.432-3.8-5.342a39.47,39.47,0,0,0,1.225-4.173,9.4,9.4,0,0,0,3.41-.892c-.419,10.975,1.063,22.091,1.69,33.043C1037.485,276.4,1038.466,278.457,1038.613,280.75Z" data-name="Path 440" transform="translate(-936.066 -135.43)"/></g><path id="Path_441" fill="#fff" d="M1020.231,151.832c6.353-4.448,14.329-6.517,21.959-4.813,2.349.525,3.352-3.087,1-3.613-9.02-2.014-17.768.048-24.3,6.687C1018.037,150.959,1019.17,152.576,1020.231,151.832Z" data-name="Path 441" transform="translate(-960.326 -137.557)"/><path id="Path_442" fill="#fff" d="M1062.491,150.458c2.63,0,2.634-4.088,0-4.088S1059.856,150.458,1062.491,150.458Z" data-name="Path 442" transform="translate(-972.651 -138.646)"/></svg>