<svg xmlns="http://www.w3.org/2000/svg" width="38.69" height="43.149" viewBox="0 0 38.69 43.149"><g id="Group_249" data-name="Group 249" transform="translate(-33.669 -794.563)"><path id="Path_505" fill="#e4e4ff" d="M1636.519,822.776s1.649,4.192,2.308,3.862,8.243-3.862,8.243-3.862l-3.957-10.646-1.154-7.913,3.957,3.462,1.154,2.143h2.143l4.287,4.122,7.583-7.254L1653.5,799.6s-4.287-13.519-5.606-14.508-2.8,0-1.978,3.627,1.649,6.759,1.154,5.77-8.573-10.057-9.232-10.222-2.968-.165-2.473.824-2.143-1.319-2.968-.824-1.649,3.3,0,4.451-3.133.33-1.319,2.308,0,2.308,0,3.462-1.484-3.792-2.638-3.462-2.308.824-1.154,3.462-2.8.33-2.473,1.814.495,3.3,1.319,4.451-4.452-1.154-3.3,1.979,9.562,14.343,9.562,14.343l1.484,2.473Z" data-name="Path 505" transform="translate(-1589 11.055)"/><g id="Page-1" transform="translate(34.097 795)"><g id="_028---Gloves" data-name="028---Gloves" transform="translate(0 0)"><path id="Shape" fill="#77f" stroke="#77f" stroke-width=".6" d="M37.628,23.2a.648.648,0,1,0,.916-.916l-3.771-3.77a1.98,1.98,0,0,0-2.653-2.749,11.868,11.868,0,0,1-2.134-3.711L26.54,2.24a2.256,2.256,0,1,0-4.258,1.493l1.262,3.595L16.849.673a2.317,2.317,0,0,0-3.2,0,2.246,2.246,0,0,0-.525.842L12.29.674a2.317,2.317,0,0,0-3.2,0,2.257,2.257,0,0,0,0,3.2l.473.473a2.138,2.138,0,0,0-.853.513,2.256,2.256,0,0,0,0,3.19l.759.762c-.035.015-.073.023-.108.039a2.249,2.249,0,0,0-.772.619L8.08,8.4a2.26,2.26,0,0,0-4.072,1.959l.283.587a2.252,2.252,0,0,0-2.023,3.231l.75,1.56a2.243,2.243,0,0,0-1.114.286,2.318,2.318,0,0,0-.871,3.021L5.5,28.318a14.808,14.808,0,0,0,5.522,6.165,1.978,1.978,0,0,0,2.024,3.2l.406.842a.648.648,0,0,0,1.166-.562l-.389-.8,8.035-3.864,2.519,5.231a.648.648,0,0,0,1.166-.562l-2.55-5.3a1.977,1.977,0,0,0-1.6-3.47,11.849,11.849,0,0,1-.787-4.207V23.443a14.627,14.627,0,0,0,2.673.882,1.987,1.987,0,0,0,2.973,2.344l3.748,3.748a.648.648,0,0,0,.916-.916l-3.717-3.72,6.3-6.3ZM6.663,27.755,2.2,18.479a1.032,1.032,0,0,1,.347-1.335.967.967,0,0,1,1.35.417l1.628,3.389a.648.648,0,1,0,1.166-.562L5.066,17,3.435,13.613a.964.964,0,0,1,1.737-.836l3.261,6.778a.648.648,0,0,0,.583.367.656.656,0,0,0,.281-.065.648.648,0,0,0,.3-.865L6.34,12.215,5.174,9.794A.964.964,0,0,1,6.91,8.959l4.426,9.2a.648.648,0,1,0,1.166-.562L9.478,11.3v0a.964.964,0,0,1,1.738-.834l5.348,11.043a.648.648,0,0,0,1.231-.283l0-6.642a.961.961,0,0,1,.964-.959h.005a.958.958,0,0,1,.956.965l.007,10.4a13.127,13.127,0,0,0,.879,4.683L12.232,33.7a13.526,13.526,0,0,1-5.569-5.942ZM22.348,30.5a.7.7,0,0,1,.071,1.282l-9.572,4.606a.7.7,0,1,1-.6-1.252l9.574-4.606a.691.691,0,0,1,.532-.03Zm-1.337-15.91a2.254,2.254,0,0,0-2.248-2.256H18.75a2.257,2.257,0,0,0-2.256,2.257V18.4L12.38,9.9a2.237,2.237,0,0,0-1-1.019L9.627,7.128a.958.958,0,0,1,0-1.357.986.986,0,0,1,1.361,0l5.32,5.313a.648.648,0,0,0,.916-.917L11.9,4.854l-1.893-1.9a.962.962,0,0,1,0-1.361.99.99,0,0,1,1.361,0l7.22,7.216a.648.648,0,1,0,.916-.916L14.573,2.956v0a.96.96,0,0,1,0-1.361.989.989,0,0,1,1.364,0l8.7,8.653A.648.648,0,0,0,25.7,9.569L23.5,3.3a.949.949,0,0,1,.04-.731.961.961,0,0,1,1.778.1l3.446,9.813a13.157,13.157,0,0,0,2.378,4.129l-6.568,6.568a13.348,13.348,0,0,1-3.559-1.172Zm4.048,10.928a.7.7,0,0,1,0-.983l7.516-7.513a.7.7,0,1,1,.983.983l-.1.1-7.412,7.408a.7.7,0,0,1-.984,0Z" transform="translate(-0.786 -0.034)"/><path id="Shape-2" fill="#77f" stroke="#77f" stroke-width=".6" d="M16.506,46.014a.648.648,0,0,0-.156-.9A10.868,10.868,0,0,1,12.8,40.9a.648.648,0,0,0-1.166.562,12.325,12.325,0,0,0,3.973,4.709.648.648,0,0,0,.9-.155Z" data-name="Shape" transform="translate(-4.586 -14.3)"/></g></g></g></svg>