<svg xmlns="http://www.w3.org/2000/svg" width="146.499" height="150.271" fill="#b7b7ff" xmlns:v="https://vecta.io/nano"><path d="M114.5 44.463a3.15 3.15 0 0 0-1.235.2c-1.653.9-2.526.035-3.47-1.225-2.117-2.823-2.167-2.785.3-5.275l4.208-4.267a2.14 2.14 0 0 1 2.544-.7 7.28 7.28 0 0 0 8.255-2.493 7.48 7.48 0 0 0 1.084-8.506c-1.264-2.917-4.217-4.733-7.4-4.545a7.9 7.9 0 0 0-7.242 10.2c.4.892.15 1.94-.605 2.56L99.9 41.52a3.01 3.01 0 0 0-1.192 2.392 2.32 2.32 0 0 0 1.453 2.018 2.17 2.17 0 0 0 2.673-.511c1.022-1.226 1.73-.833 2.485.2a9.5 9.5 0 0 0 .968 1.192 3.08 3.08 0 0 1 .826 3.968c-.272.56-.342 1.198-.2 1.805.52 1.812-.54 2.57-1.846 3.34l-4.906 3.146c-1.52 1.008-1.94 2.4-1.14 3.65s2.246 1.45 3.764.486l5.263-3.442a2.7 2.7 0 0 1 3.3-.224c1.808.958 3.926 1.15 5.877.53s3.57-1.996 4.495-3.822a7.88 7.88 0 0 0-3-10.686 8.24 8.24 0 0 0-4.21-1.099zm.3 5.016a2.92 2.92 0 0 1 3.064 3.09c-.063 1.662-1.425 2.98-3.1 2.987a2.95 2.95 0 0 1-2.935-3.09c-.062-.805.23-1.597.797-2.17a2.79 2.79 0 0 1 2.163-.82zm4.216-26.85a2.92 2.92 0 0 1 3.135 3.019 3.11 3.11 0 0 1-3.022 3.055 2.96 2.96 0 0 1-3-3.017c-.08-.802.194-1.6.747-2.186a2.78 2.78 0 0 1 2.14-.87zm-94.783-5.015c-2.9.214-5.427 2-6.6 4.664-1.47 2.838-.968 6.298 1.25 8.6a7.21 7.21 0 0 0 8.032 2.329 2.18 2.18 0 0 1 2.561.649L39.63 44.118l.984.97c1.353 1.226 2.627 1.38 3.68.457 1.114-.977 1.15-2.28-.08-3.8-.682-.842-.45-1.27.28-1.86a43.84 43.84 0 0 1 16.444-8.249l1.77-.482a2.39 2.39 0 0 0 1.63-3.043c-.165-.6-.564-1.1-1.107-1.415s-1.187-.378-1.786-.204a46.6 46.6 0 0 0-13.387 5.119c-2.554 1.408-4.962 3.065-7.2 4.945-.682.585-1.116.664-1.772-.018L32.7 30.1c-.8-.762-.63-1.483-.376-2.367 1.447-5.024-2.322-10.084-8.1-10.13zm.4 5.017c.827-.08 1.65.193 2.262.753a2.92 2.92 0 0 1 .95 2.186 3.13 3.13 0 0 1-2.95 3.132c-.803.038-1.586-.255-2.166-.8a2.92 2.92 0 0 1-.906-2.128 2.79 2.79 0 0 1 2.809-3.133zm-7.786 102.49a7.81 7.81 0 0 0 4.618 6.778 7.89 7.89 0 0 0 10.855-9.382c-.384-.96-.1-2.055.72-2.694l10.5-10.56c.375-.35.722-.726 1.038-1.128a2.34 2.34 0 0 0-.129-3.229 2.09 2.09 0 0 0-1.527-.82 2.08 2.08 0 0 0-1.62.62c-.895.816-1.386.6-2.092-.2a45.33 45.33 0 0 1-7.184-10.861c-.157-.378-.335-.748-.53-1.108a2.37 2.37 0 0 0-3.139-1.1 2.4 2.4 0 0 0-1.225 3.11 29.74 29.74 0 0 0 2.862 5.61 42 42 0 0 0 5.881 7.857c.812.826.76 1.343-.05 2.123q-3.208 3.086-6.272 6.32a2.1 2.1 0 0 1-2.525.657c-4.977-1.603-10.168 2.287-10.18 8.005zm7.9-3.408a2.94 2.94 0 0 1 3.1 3.061 3.11 3.11 0 0 1-3.063 3.014 2.94 2.94 0 0 1-2.136-.89c-.56-.576-.858-1.36-.826-2.162a2.78 2.78 0 0 1 .773-2.177 2.79 2.79 0 0 1 2.15-.845zm108.91-13.03c.014-2.74-1.406-5.286-3.742-6.715s-5.25-1.533-7.683-.273c-.838.595-1.982.508-2.72-.207a36.38 36.38 0 0 0-3.532-2.434c-.844-.52-.88-1-.44-1.87 1.83-3.567 3.206-7.347 4.1-11.254a8.76 8.76 0 0 0 .216-1.21c.13-1.6-.547-2.66-1.854-2.912a2.38 2.38 0 0 0-2.874 2.077 48.84 48.84 0 0 1-3.17 9.472 14.84 14.84 0 0 0-.312.7c-.432 1.07-1 1.445-2.048.6a36.06 36.06 0 0 0-3.143-2.188c-1.42-.913-2.83-.694-3.642.5s-.492 2.57.936 3.56q6.547 4.55 13.135 9.034c.817.422 1.254 1.335 1.07 2.236a7.89 7.89 0 0 0 3.317 7.576c2.447 1.698 5.64 1.874 8.258.457s4.216-4.188 4.132-7.164zm-7.82-2.968a3.03 3.03 0 0 1 2.654 4.573 3.03 3.03 0 0 1-2.676 1.49c-.828.015-1.627-.3-2.2-.9s-.9-1.4-.877-2.218c.065-1.663 1.445-2.97 3.1-2.945zm-56.332 19.603l.015 7.866a2.02 2.02 0 0 1-1.173 2.08 7.72 7.72 0 0 0-3.943 9.362c1.085 3.66 4.642 6.012 8.434 5.577a7.86 7.86 0 0 0 6.952-7.342 7.46 7.46 0 0 0-3.95-7.442 2.35 2.35 0 0 1-1.4-2.419 120.76 120.76 0 0 0 0-7.247c-.035-1.27.318-1.784 1.692-1.885a46.3 46.3 0 0 0 11.21-2.292 2.82 2.82 0 0 0 2.1-2.027c.452-1.867-1.334-3.318-3.44-2.7a49.33 49.33 0 0 1-7.884 1.838c-.3.04-.6.106-.908.136-2.42.236-2.42.234-2.846-2.18-.066-1.344-1.175-2.4-2.52-2.4a2.49 2.49 0 0 0-2.329 2.733l-.01 8.328zm2.367 14a2.9 2.9 0 0 1 3.126 3.016 3.11 3.11 0 0 1-3.033 3.044 2.93 2.93 0 0 1-2.144-.87c-.564-.572-.87-1.35-.847-2.153-.08-.802.194-1.6.75-2.183a2.76 2.76 0 0 1 2.145-.852zm-43.94-63.044l-.01-3.38c-.092-1.867-1.02-2.865-2.55-2.82-1.438.043-2.306 1.058-2.4 2.83a48.96 48.96 0 0 0 .675 10.128c.18 1.1-.185 1.457-1.212 1.6l-6.03.987a1.9 1.9 0 0 1-2.264-.957 7.79 7.79 0 0 0-8.309-2.823c-3.546.983-5.96 4.264-5.84 7.942s2.738 6.796 6.34 7.548a7.69 7.69 0 0 0 8.778-4.768c.382-1.324 1.585-2.244 2.963-2.266L33 87.812c1.622-.282 2.392-1.208 2.342-2.553.001-1.238-.964-2.26-2.2-2.332a4.34 4.34 0 0 0-.759.052c-3.8.38-3.82.383-4.3-3.462-.15-1.22-.125-2.463-.16-3.243zM7.948 86.522c.803-.03 1.582.27 2.157.83s.896 1.332.887 2.135a3.13 3.13 0 0 1-2.977 3.11 2.92 2.92 0 0 1-3.046-3.108 2.78 2.78 0 0 1 .813-2.163 2.79 2.79 0 0 1 2.166-.804zM121.7 77.626l7.8-.015c.873-.108 1.713.37 2.068 1.173 1.485 2.96 4.656 4.682 7.948 4.317a7.98 7.98 0 0 0 1.706-15.411c-3.528-1.36-7.52.062-9.393 3.348a2.76 2.76 0 0 1-2.922 1.6l-6.728-.017c-.944.01-1.4-.328-1.4-1.34a33.72 33.72 0 0 0-.646-5.5c-.3-1.872-1.482-2.847-2.985-2.535-1.427.3-2.113 1.586-1.855 3.357l.6 4.732c.165 1.007-.244 1.308-1.145 1.283a9.61 9.61 0 0 0-1.526.06 2.47 2.47 0 1 0 .22 4.927l8.257.01zm16.84.53c-.824.045-1.628-.266-2.208-.852s-.882-1.394-.828-2.218c.04-1.65 1.376-2.976 3.027-3 .825-.024 1.62.303 2.2.9s.858 1.408.794 2.23a2.78 2.78 0 0 1-2.976 2.942zM26.432 56.215a8.57 8.57 0 0 0-4.433-4.88 7.9 7.9 0 0 0-9.561 2.573 8.06 8.06 0 0 0 .8 10.318c2.634 2.72 6.856 3.12 9.953.942a3.2 3.2 0 0 1 3.86-.365c2 1 4.1 1.845 6.178 2.7 1.667.678 2.954.263 3.538-1.027.6-1.346-.005-2.716-1.622-3.473q-1.943-.9-3.937-1.705c-.9-.362-1.1-.87-.732-1.793a48.76 48.76 0 0 1 4.294-8.683l.823-1.3c.858-1.486.652-2.9-.52-3.67-1.205-.792-2.56-.44-3.55.97a46.85 46.85 0 0 0-3.932 6.964l-1.158 2.436zM21.794 58.5a2.97 2.97 0 0 1-2.937 3.215 3.15 3.15 0 0 1-3.083-2.978 3.1 3.1 0 0 1 2.994-3.214A3.02 3.02 0 0 1 21.79 58.5zm81.344 54.287c2.03-1.702 3.9-3.572 5.624-5.6 1.214-1.5 1.23-2.806.07-3.794-1.12-.957-2.57-.792-3.76.6a46.88 46.88 0 0 1-6.351 6c-.9.728-1.548.8-2.193-.278a10.04 10.04 0 0 0-1.316-1.7 2.32 2.32 0 0 0-3.293-.361 2.35 2.35 0 0 0-.932 1.55c-.092.62.07 1.25.447 1.75l3.02 4.077a1.79 1.79 0 0 1 .27 2.211 7.44 7.44 0 0 0 1.141 8.743c1.806 2.27 4.787 3.25 7.588 2.5 3.214-.68 5.668-3.284 6.157-6.533.708-3.328-1.524-7.242-4.837-8.582l-1.637-.602zm-1.377 11.007a2.98 2.98 0 0 1-2.2-.926 2.99 2.99 0 0 1-.817-2.244 2.92 2.92 0 0 1 .932-2.12c.6-.548 1.38-.827 2.184-.772 1.635.08 2.9 1.443 2.884 3.08s-1.348 2.957-2.984 2.983zM74.463 24.946l-.018-7.56a2.45 2.45 0 0 1 1.453-2.558c3.308-1.87 4.78-5.86 3.478-9.43A7.99 7.99 0 0 0 70.826.09a8.09 8.09 0 0 0-6.8 7.647 7.48 7.48 0 0 0 3.994 7.131 2.54 2.54 0 0 1 1.51 2.663l-.03 15.43a2.88 2.88 0 0 0 1.143 2.7c1.7 1.12 3.653-.046 3.768-2.382.12-2.412.042-4.833.052-7.25v-1.08zM71.97 5.035a2.91 2.91 0 0 1 3.027 2.975c.001 1.665-1.317 3.032-2.98 3.092a2.93 2.93 0 0 1-3.045-3.118c-.05-.805.253-1.592.828-2.158a2.78 2.78 0 0 1 2.17-.79zm5.23 57.957c-3.87-.05-7.386 2.237-8.906 5.796s-.742 7.682 1.97 10.442 6.82 3.6 10.406 2.153 5.935-4.934 5.95-8.803a9.6 9.6 0 0 0-9.42-9.587zM77.1 68a4.44 4.44 0 0 1 4.646 4.437 4.66 4.66 0 0 1-4.609 4.732 4.44 4.44 0 0 1-4.485-4.6 4.28 4.28 0 0 1 1.202-3.28c.85-.873 2.03-1.34 3.246-1.3zM59.3 41.386a8 8 0 1 0 .058 16 8.22 8.22 0 0 0 7.956-8.124c-.123-4.35-3.66-7.83-8.014-7.876zm.117 5a2.91 2.91 0 0 1 3.018 2.985 3.1 3.1 0 0 1-2.989 3.089c-.83.028-1.635-.297-2.213-.894s-.878-1.4-.824-2.24c-.048-.806.256-1.592.833-2.156s1.37-.85 2.175-.784zm18 44.074a8 8 0 1 0-.049 16c4.4-.112 7.933-3.67 8.012-8.073a8.12 8.12 0 0 0-7.963-7.927zm.058 5a2.91 2.91 0 0 1 3.025 2.977 3.1 3.1 0 0 1-2.983 3.1c-.83.03-1.635-.294-2.214-.9s-.88-1.4-.83-2.238c-.055-.807.245-1.6.82-2.166a2.78 2.78 0 0 1 2.18-.788zM48.234 65.156a6.3 6.3 0 1 0 6.228 6.321 6.44 6.44 0 0 0-6.228-6.32zm52.06 12.964a6.3 6.3 0 1 0 6.219 6.329 6.44 6.44 0 0 0-6.219-6.329zM84.44 43.858a6.3 6.3 0 1 0 6.154 6.4 6.44 6.44 0 0 0-6.154-6.4zm-26.3 51.598a6.25 6.25 0 0 0-6.359-6.113 6.25 6.25 0 0 0-6.135 6.338 6.25 6.25 0 0 0 6.317 6.156 6.4 6.4 0 0 0 6.177-6.382zM80.13 26c-1.252-.022-2.327.9-2.5 2.128a2.26 2.26 0 0 0 1.507 2.565 6.7 6.7 0 0 0 1.323.35 43.98 43.98 0 0 1 15.353 6.25c.292.205.6.386.924.54a2.26 2.26 0 0 0 3.082-.833c.368-.48.524-1.087.433-1.683s-.42-1.13-.914-1.48c-1.488-1.167-3.103-2.163-4.814-2.968-4.248-2.235-8.808-3.822-13.526-4.707-.3-.052-.6-.114-.858-.163zm-18.214 96.998c1.283.144 2.463-.72 2.714-1.985a2.4 2.4 0 0 0-1.849-2.788l-6.437-1.942a49.72 49.72 0 0 1-7.005-3.427 2.55 2.55 0 0 0-2.886-.041c-1.508 1.015-1.46 2.98.194 4.1a36.9 36.9 0 0 0 7.227 3.659 44.77 44.77 0 0 0 8.042 2.424z"/></svg>