<svg xmlns="http://www.w3.org/2000/svg" width="37.547" height="22" viewBox="0 0 37.547 22"><g id="Group_246" data-name="Group 246" transform="translate(-185.849 -784)"><path id="Path_504" fill="#77f" d="M1777.332,788.464c2.568-.513,5.819-.941,7.189-1.113a22.2,22.2,0,0,0,4.878-1.883,4.091,4.091,0,0,1,3.851,0,9.872,9.872,0,0,0,4.536,1.54c1.626.086,3.338-.257,5.135.342s3.338.685,3.851,1.626,1.883,2.653,1.626,3.595.685,4.279-.514,4.878-2.739,2.14-3.851,2.568-5.82,2.824-7.018,3.338a6.372,6.372,0,0,1-3.766.856,28.512,28.512,0,0,1-7.189-.856c-1.541-.513-4.279-1.968-6.162-2.653s-2.824-.77-3.252-1.455a17.952,17.952,0,0,1-1.883-3.851c-.343-1.284-1.2-3.595-.343-4.536s1.712-1.969,2.225-2.4S1777.332,788.464,1777.332,788.464Z" data-name="Path 504" opacity=".2" transform="translate(-1586.838 0.132)"/><g id="medical-mask" transform="translate(185.849 784)"><path id="Path_495" fill="#77f" d="M165.368,168.035a11.415,11.415,0,0,1-5.993-1.972,1.1,1.1,0,0,0-1.275-.01,11.85,11.85,0,0,1-6.07,1.982,1.1,1.1,0,0,0,.068,2.2l.07,0a14.334,14.334,0,0,0,6.555-1.958,13.947,13.947,0,0,0,6.507,1.958,1.1,1.1,0,0,0,.138-2.2Z" data-name="Path 495" transform="translate(-139.926 -161.465)"/><path id="Path_496" fill="#77f" d="M190.9,256h-8.8a1.1,1.1,0,0,0,0,2.2h8.8a1.1,1.1,0,1,0,0-2.2Z" data-name="Path 496" transform="translate(-167.727 -245)"/><path id="Path_497" fill="#77f" d="M37.547,115.9a7.709,7.709,0,0,0-7.7-7.7H26.412a7.858,7.858,0,0,1-4.519-1.217,5.444,5.444,0,0,0-6.241,0,7.858,7.858,0,0,1-4.519,1.217H7.7a7.7,7.7,0,0,0-.411,15.389c1.236,1,5.884,4.411,11.485,4.411s10.249-3.415,11.484-4.411A7.71,7.71,0,0,0,37.547,115.9ZM2.2,115.9a5.509,5.509,0,0,1,4.4-5.389v10.779A5.509,5.509,0,0,1,2.2,115.9Zm6.6,6.077V110.4h2.335a9.885,9.885,0,0,0,5.78-1.614,3.244,3.244,0,0,1,3.718,0,9.885,9.885,0,0,0,5.78,1.614h2.335v11.577c-1.225.953-5.3,3.823-9.973,3.823S10.025,122.929,8.8,121.977Zm22.147-.687V110.511a5.5,5.5,0,0,1,0,10.779Z" data-name="Path 497" transform="translate(0 -106)"/><path id="Path_498" fill="#77f" d="M216.5,316h-4.4a1.1,1.1,0,0,0,0,2.2h4.4a1.1,1.1,0,1,0,0-2.2Z" data-name="Path 498" transform="translate(-195.527 -300.6)"/></g></g></svg>