<svg xmlns="http://www.w3.org/2000/svg" id="Component_20_1" width="335.697" height="362.052" data-name="Component 20 – 1" viewBox="0 0 335.697 362.052"><g id="Group_781" data-name="Group 781" transform="translate(-39 -125)"><path id="Path_209" fill="#ff8bb5" d="M-2242.865-131.008c10.974-10.974,86.876-91.449,151.806-58.527s96.021,72.245,131.686,146.318c11.48,29.414,19.2,116.14-86.876,184.727s-184.727-35.665-196.616-50.3S-2339.8-10.3-2242.865-131.008Z" data-name="Path 209" opacity=".1" transform="translate(2327.713 322.394)"/></g><g id="Group_780" data-name="Group 780" transform="translate(-39 -125)"><g id="Group_779" data-name="Group 779"><g id="Group_167" data-name="Group 167" transform="translate(31.347 35.187)"><circle id="Ellipse_16" cx="143.023" cy="143.023" r="143.023" fill="#ff8bb5" data-name="Ellipse 16" transform="translate(31.711 129.586)"/><g id="Group_167-2" data-name="Group 167" transform="translate(44.401 127.017)"><path id="Path_210" fill="#fff" d="M64,193.4a5.323,5.323,0,0,0,2.186,5.55,1.66,1.66,0,0,1,.51.423,1.454,1.454,0,0,1,.188.665c.111.942.078,2.151-.8,2.519-.282.118-.6.115-.891.206-1.073.337-1.341,1.729-1.29,2.854a2.782,2.782,0,0,0,.98,2.333c.84.523,1.931.115,2.827-.308,2.368-1.12,4.9-2.51,5.842-4.953a10.148,10.148,0,0,0,.3-4.665q-.346-3.416-.967-6.8Z" data-name="Path 210" transform="translate(-5.261 -48.457)"/><path id="Path_211" fill="#fff" d="M41.131,192.122c-2.406,1.871-3,5.439-2.027,8.326a9.774,9.774,0,0,0,.417,1.04,8.736,8.736,0,0,0,3.372,3.814,7.739,7.739,0,0,0,4.5,1.053.408.408,0,0,0,.423-.616,15.129,15.129,0,0,0-2.2-4.772,1.119,1.119,0,0,0,1.271-.423,2.879,2.879,0,0,0,.459-1.353,14.918,14.918,0,0,0-.506-6.468l-.836.306Z" data-name="Path 211" transform="translate(-35.945 -47.368)"/><path id="Path_212" fill="#fff" d="M57.69,237.948c-.024.286-.051.568-.075.843-1,11.166-1.681,14.4,2.984,17.033,4.783,2.7,3.326,6.86,9.146,7.9s11.434-.623,11.641-3.534S77.712,255.872,74.32,250a43.617,43.617,0,0,1-4.574-12.472Z" data-name="Path 212" transform="translate(-13.753 7.907)"/><path id="Path_213" fill="#e1e1ff" d="M60.244,242.347c-.1,2.962,1.843,5.616,4.051,7.592s4.787,3.568,6.678,5.851a4.467,4.467,0,0,1,1.251,2.86c-.06,1.858-1.927,3.058-3.57,3.925l4.823-1.038c1.341-.288,2.84-.69,3.505-1.887a3.607,3.607,0,0,0-.61-3.785c-.818-1.078-1.949-1.874-2.869-2.865a19.156,19.156,0,0,1-3.381-6.2q-1.061-2.691-2.122-5.379c-.43-1.1-1.1-2.373-2.277-2.426Z" data-name="Path 213" transform="translate(-9.673 9.697)"/><path id="Path_214" fill="#fff" d="M46.848,238.938c.415,6.652-1.96,14.583-5.2,18.292s-5.612,8.315,2.494,9.769,12.472-4.157,12.681-8.106,5.2-5.614,4.989-9.563,0-7.9,0-7.9Z" data-name="Path 214" transform="translate(-35.961 9.62)"/><path id="Path_215" fill="#e1e1ff" d="M48.87,241.84c.94,1.479,3.514.785,4.672,2.1a2.787,2.787,0,0,1,.528,2.133A11.056,11.056,0,0,1,53,249.414a34.207,34.207,0,0,1-4.756,8.448c-2.1,2.474-5.091,4.381-8.335,4.417,4.075,2.206,9.831,1.794,12.61-1.916a25.565,25.565,0,0,0,1.778-3.12c1.452-2.636,3.506-4.911,4.856-7.6s1.887-6.1.228-8.607a1.2,1.2,0,0,1-.973.463Z" data-name="Path 215" transform="translate(-34.425 12.172)"/><path id="Path_216" fill="#77f" d="M38.223,241.315l9.882.749,3.412-9.783c7.066,5.4,30.348,2.286,33.259,2.286s7.275-2.08,7.275-2.08l.623,6.652s8.938,2.08,14.758-3.117c-1.663-13.1-8.009-61.988-9.978-67.972s-5.82-12.681-18.084-15.175c-2.286,7.692-12.064,7.027-19.647,2.162-11.74,3.035-16.106,10.519-17.975,17.379s-3.12,40.948-3.12,40.948Z" data-name="Path 216" transform="translate(-36.474 -95.142)"/><path id="Path_217" fill="#6363eb" d="M47.176,163.818q-1.427,8.308-2.559,16.658a357.542,357.542,0,0,0-3.459,45.416,3.664,3.664,0,0,0,.84,2.9,2.493,2.493,0,0,0,3.337-.545,6.96,6.96,0,0,0,1.3-3.472,60.934,60.934,0,0,0,1.031-14.142Z" data-name="Path 217" transform="translate(-32.901 -81.821)"/><path id="Path_218" fill="#6363eb" d="M82.01,239.476c.031-.013.02-.144.02-.169.184-7-1.2-14.33-1.909-21.27-.514-5.082-1.439-9.9-1.772-15.009q-.555-8.571-1.111-17.139a78.052,78.052,0,0,0-.767-7.814,78.655,78.655,0,0,0-2.04-8.384,26.287,26.287,0,0,0-3.266-8.031,22.251,22.251,0,0,0-3.987-4.131c-.45-.384-5.656-4.268-5.384-4.76,0,0-3.206,5.776-8.607,6.193,1.619-.12,2.749,5.379,3.257,6.452,1.137,2.415,2.6,4.073,3.4,6.676a82.22,82.22,0,0,1,2.326,9.978c1.175,6.767,1.67,13.632,2.164,20.476q.612,8.481,1.224,16.96c.5,6.969-2.089,9.9-5.428,15.41,4.224.4,9.324-1.2,13.565-1.814l.831,6.652S79.655,240.447,82.01,239.476Z" data-name="Path 218" transform="translate(-18.257 -95.269)"/><path id="Path_219" fill="#fff" d="M80.048,153.087c0,2.328-2.328,3.5-4.39,3.082a.921.921,0,0,0-1.153.887c-.089,6.319-4.612,10.377-10.31,12.128a.809.809,0,0,0-.532.732.7.7,0,0,0,.111.443.591.591,0,0,0,.621.333,11.328,11.328,0,0,0,2.927-.732l.2-.067a3.427,3.427,0,0,0-.089.687,5.265,5.265,0,0,0,.089,1.951A5.662,5.662,0,0,0,68.9,175.06a4.83,4.83,0,0,0,2.129,1.242,6.867,6.867,0,0,1-2.661,3.437,11.517,11.517,0,0,1-5.543,1.419h-.333a13.45,13.45,0,0,1-8.448-3.126,4.067,4.067,0,0,0,1.951-2,.736.736,0,0,0,.8-.687,13.481,13.481,0,0,0-.355-4.1,19.392,19.392,0,0,0-.51-1.951c-.022-.044-.044-.067-.044-.111a10.375,10.375,0,0,0,3.126.709.693.693,0,0,0,.71-.887.654.654,0,0,0-.244-.488.506.506,0,0,0-.266-.133c-5.454-1.463-9.246-5.5-9.313-11.33a.921.921,0,0,0-1.153-.887c-2.062.421-4.39-.776-4.39-3.082a2.533,2.533,0,0,1,4.168-2c.576.443,1.4-.177,1.4-.82v-.643a.5.5,0,0,0,.31-.51,13.954,13.954,0,0,0-.333-2.35c0-3.237-.044-6.5-.089-9.734a.793.793,0,0,0,.244-.488c.133-.754.288-1.508.4-2.262a4.9,4.9,0,0,0,.111-.554c.022-.111.022-.222.044-.31a41.773,41.773,0,0,0,19.024,2.528,22.81,22.81,0,0,0,3.392-.6,3.615,3.615,0,0,0,1.441.421,16.5,16.5,0,0,0,.089,3.769c-.044,3.592-.089,7.162-.067,10.732,0,.643.82,1.264,1.4.82A2.536,2.536,0,0,1,80.048,153.087Z" data-name="Path 219" transform="translate(-29.016 -118.823)"/><path id="Path_220" fill="#e1e1ff" d="M63.266,156.264a11.15,11.15,0,0,1-11.286,5.565A2.656,2.656,0,0,0,53.2,161.1a3.69,3.69,0,0,0,.865-1.441,9.565,9.565,0,0,0,.377-3.082c.022-2.084.022-4.191.044-6.275a.591.591,0,0,0,.621.333,11.328,11.328,0,0,0,2.927-.732,6.077,6.077,0,0,0,.111.621A8.423,8.423,0,0,0,63.266,156.264Z" data-name="Path 220" transform="translate(-19.728 -98.763)"/><path id="Path_221" fill="#e1e1ff" d="M76.7,153.087c0,2.328-2.328,3.5-4.39,3.082a.921.921,0,0,0-1.153.887c-.089,6.319-4.612,10.377-10.31,12.128a.809.809,0,0,0-.532.732,8.452,8.452,0,0,1-3.947-.909,4.379,4.379,0,0,1-.843-.443,5.436,5.436,0,0,0,.6-.044A14.017,14.017,0,0,0,68.94,156.391c.754-5.565-1.84-11.153-1.308-16.74a11.2,11.2,0,0,1-7.716,1.153,28.166,28.166,0,0,1-7.45-2.749,16.3,16.3,0,0,1-5.366-3.769,4.9,4.9,0,0,0,.111-.554c.022-.111.022-.222.044-.31a41.773,41.773,0,0,0,19.024,2.528,22.81,22.81,0,0,0,3.392-.6,3.615,3.615,0,0,0,1.441.421,16.5,16.5,0,0,0,.089,3.769c-.044,3.592-.089,7.162-.067,10.732,0,.643.82,1.264,1.4.82A2.536,2.536,0,0,1,76.7,153.087Z" data-name="Path 221" transform="translate(-25.668 -118.823)"/><path id="Path_222" fill="#372b7b" d="M51.3,140.159l-.018-.375a.936.936,0,0,0-1.71-.222,3.459,3.459,0,0,0-.279,2.53,1,1,0,0,0,1.836.242,1,1,0,0,0,.1-.776l-.091-.357a2.609,2.609,0,0,1,0-.395,2.484,2.484,0,0,1,.133-.492l-.1.224.013-.033Z" data-name="Path 222" transform="translate(-23.149 -111.913)"/><path id="Path_223" fill="#372b7b" d="M56.36,139.428a1,1,0,0,0-.687-.282.981.981,0,0,0-.687.282,1.081,1.081,0,0,0-.284.687c-.033.554-.069,1.109-.1,1.663a1.073,1.073,0,1,0,2.146,0q-.05-.831-.1-1.663A1.034,1.034,0,0,0,56.36,139.428Z" data-name="Path 223" transform="translate(-16.541 -111.854)"/><path id="Path_224" fill="#372b7b" d="M52.6,137.236a7.657,7.657,0,0,0-2.392.277,6.147,6.147,0,0,0-2.151,1.224.555.555,0,0,0,.67.871,9.14,9.14,0,0,1,1.878-.787,7.349,7.349,0,0,1,1.033-.262,6.5,6.5,0,0,1,.962-.075.63.63,0,0,0,.625-.623A.639.639,0,0,0,52.6,137.236Z" data-name="Path 224" transform="translate(-24.696 -114.187)"/><path id="Path_225" fill="#372b7b" d="M55.238,138.079c.426.089.86.193,1.275.317a5.029,5.029,0,0,1,2.129,1.253c.51.5,1.31-.3.785-.783a6.138,6.138,0,0,0-2.61-1.423,3.756,3.756,0,0,0-1.439-.109,5.819,5.819,0,0,0-1.43.377l.038.273A5.159,5.159,0,0,1,55.238,138.079Z" data-name="Path 225" transform="translate(-17.332 -114.092)"/><path id="Path_226" fill="#372b7b" d="M58.348,145.7a6.553,6.553,0,0,1-3.386,1.421,5.674,5.674,0,0,1-3.727-.783.6.6,0,0,0-.8.211.6.6,0,0,0,.211.807,6.974,6.974,0,0,0,4.432,1.35,6.368,6.368,0,0,0,4.352-1.929C60.124,146.068,59.082,145.055,58.348,145.7Z" data-name="Path 226" transform="translate(-21.714 -104.128)"/><path id="Path_227" fill="#372b7b" d="M52.348,145.824a9.274,9.274,0,0,0,1.082.022,4.046,4.046,0,0,0,1.157-.135,10.736,10.736,0,0,0,1.086-.443.584.584,0,0,0,.242-.734.6.6,0,0,0-.7-.341,9.06,9.06,0,0,1-.925.129c-.386.042-.761.173-1.142.242l-.275.044-.033,0-.078.009-.559.049a.819.819,0,0,0-.634.211l-.16.4.3.432A1.534,1.534,0,0,0,52.348,145.824Z" data-name="Path 227" transform="translate(-20.416 -105.729)"/><path id="Path_228" fill="#473f97" d="M87.8,300.711a30.55,30.55,0,0,1-13.215.488c-1.818-13.969-2.927-28.026-4.1-42.061-.621-7.494-1.219-15.011-1.907-22.505-.532-6.009-.8-12.528-2.217-18.47a8.46,8.46,0,0,0,.177-2.129c.067-1.131.111-2.239.155-3.37.089-2.084.133-4.168.177-6.253s.022-4.168-.089-6.253c-.089-2.04.111-4.39-.687-6.3h-.333c-.687,1.951-.443,4.257-.51,6.3-.089,2.084-.155,4.168-.177,6.253-.044,2.084-.111,4.168-.177,6.253-.044,1.131-.111,2.239-.155,3.37A10.556,10.556,0,0,0,64.7,217.9c-1.463,6.031-1.752,12.594-2.328,18.692-.732,7.916-1.4,15.853-2.084,23.769-1.242,14.434-2.417,28.869-4.3,43.237a30.561,30.561,0,0,1-13.215-.488c1.463-30.111,1.929-60.287,2.9-90.42.244-7.716.6-15.41.6-23.126a7.021,7.021,0,0,0,2.284.776,82.244,82.244,0,0,0,12.55,1.552,86.086,86.086,0,0,0,23.592-2.2c-.022,18.425.953,36.873,1.353,55.3C86.472,263.572,86.894,282.153,87.8,300.711Z" data-name="Path 228" transform="translate(-30.939 -50.486)"/><path id="Path_229" fill="#372b7b" d="M61.535,190.25s-9.146,74-9.423,82.039-6.652,32.427-5.82,32.427,5.5-1.962,5.5-1.962l9.654-84.32Z" data-name="Path 229" transform="translate(-26.744 -49.646)"/><path id="Path_230" fill="#372b7b" d="M53.618,192.9q.01,13.453.022,26.906a11.685,11.685,0,0,0,.211,2.7,13.653,13.653,0,0,0,1.39,3.151c4.437,8.386,5.967,17.942,7.43,27.3l2.49,15.909c1.8,11.492,3.6,22.984,5.151,34.512l7.35-.993q-1.59-24.2-1.53-48.476c.011-3.88.051-7.76-.04-11.638-.419-17.749-3.621-35.392-3.231-53.143a72.384,72.384,0,0,1-20.235,1.834Z" data-name="Path 230" transform="translate(-18.94 -51.016)"/><path id="Path_231" fill="#372b7b" d="M109.309,266.908c-3.193-17.006-5.765-34.013-7.65-51.241-.776-7.14-1.419-15.61-5.211-21.907a17.984,17.984,0,0,0-6.341-6.031c-2.395-1.419-5.92-3.326-8.78-3.415a6.907,6.907,0,0,0-.089-1.153.681.681,0,0,0-1.064-.4A4.408,4.408,0,0,1,77.4,180.1a4.713,4.713,0,0,1-.155-2.151c.044-.244.133-.488.2-.732a14.35,14.35,0,0,0,7.25-11.175c3.038.089,5.9-2.04,5.588-5.41a4.4,4.4,0,0,0-5.543-3.814v-.2c.865-1.6,1.729-3.193,2.572-4.789a18.031,18.031,0,0,0,2.084-5.055,6.452,6.452,0,0,0-1.729-6.009,6.514,6.514,0,0,0,.266-.863,5.738,5.738,0,0,0,1.2-5.457c-.865-3.412-4.035-5.366-7.206-6.3a31.605,31.605,0,0,0-11.042-1.242,21.235,21.235,0,0,0-9.667,2.927,17.46,17.46,0,0,0-3.5,2.838,32.783,32.783,0,0,0-2.683,3.9c-.488.707-1.2.752-1.885,1.262a4.79,4.79,0,0,0-1.4,1.84,7.186,7.186,0,0,0,.222,5.255c.754,2.084,1.619,4.146,2.439,6.208a42.421,42.421,0,0,0,2.084,4.878v.8a4.382,4.382,0,0,0-5.543,3.836c-.288,3.37,2.55,5.477,5.588,5.388a13.581,13.581,0,0,0,6.341,10.465v.044c.089.333.177.621.266.953a19.063,19.063,0,0,1,.377,1.951,29.593,29.593,0,0,1,.2,3.129,3.536,3.536,0,0,1-2.9,2.259.791.791,0,0,0-.776.665c-7.051,2.927-13.658,6.319-16.74,13.7-3.215,7.647-3.548,16.228-3.814,24.41-.31,10.066-1.042,20.088-1.6,30.133-.288,5.255-.554,10.532-.421,15.809.022,1.042-.111,2.173.776,2.9a6.6,6.6,0,0,0,2.461,1.042,5.353,5.353,0,0,0-.732,1.574,8.688,8.688,0,0,0-.266,2.506,9.651,9.651,0,0,0,1.486,4.989,9.324,9.324,0,0,0,3.7,3.3c1.131.554,3.392,1.6,4.523.643V286.4a.649.649,0,0,0,.288-.643,8.721,8.721,0,0,0-1.131-2.836,8.407,8.407,0,0,0-.909-1.244l-.155-.133a2.765,2.765,0,0,0,1.286-.865,4.637,4.637,0,0,0,.643-3.7c-.111-.707-.266-1.4-.355-2.084a4.826,4.826,0,0,1-.022-1.131,3.283,3.283,0,0,0,.133-1.042l-.377-.244-.288-.222a9.347,9.347,0,0,0-2.35-.288c-.621-.044-1.219-.089-1.818-.111-.71-.155-1.4-.31-2.106-.466-.466-.109-.953-.222-1.441-.333-1.109,0-1.508-.488-1.2-1.486-.532-1.73-.022-4.479,0-6.3.067-4.412.266-8.825.51-13.237.488-8.669,1-17.295,1.219-25.964.177-7.583.4-15.388,2.882-22.616,2.727-7.982,9.113-11.574,16.452-14.723a15.139,15.139,0,0,0,11.419,4.59,11.284,11.284,0,0,0,6.763-2.217,7.614,7.614,0,0,0,2-2.594A4.284,4.284,0,0,0,81.282,185c2.506,1.752,5.9,2.395,8.514,4.1a16.851,16.851,0,0,1,7.007,9.423c2.439,7.472,3.1,15.41,3.858,23.193,1.463,15.366,4.213,30.643,7.073,45.831a24.431,24.431,0,0,1-11.064,3.282l-.355-.333a.63.63,0,0,0-.732.355c-.355,0-.71,0-1.064-.022-.177-1.863-.377-3.747-.554-5.61a1.052,1.052,0,0,0-.155-1.463c-.022-.242-.044-.488-.067-.754-.532-9.465-1.064-18.958-1.574-28.425-.288-4.967-.554-9.911-.82-14.878-.266-4.767-.288-9.712-1.375-14.368-.067-.244-.377-.155-.421.044-.6,5.078-.044,10.332.222,15.432q.333,7.151.71,14.323.7,14.335,1.441,28.669a83.7,83.7,0,0,1-22.261,2.639,82.189,82.189,0,0,1-12.106-1.109,11.341,11.341,0,0,1-3.038-.577c-1.242-.685-1.308-1.463-1.463-2.86a53.967,53.967,0,0,1,.044-5.987q.067-11.973.089-23.946c.022-8.071.621-16.474-.443-24.479-.022-.2-.377-.31-.4-.067-1.33,8.913-.71,18.292-.8,27.275-.111,9.244-.288,18.49-.266,27.758a4.294,4.294,0,0,0,.71,2.749c-1.486,14.523-1.574,29.224-2.062,43.813-.51,15.676-.931,31.352-1.508,47.028q-.432,12.073-1.02,24.146l.067.355a41.164,41.164,0,0,1-4.7,11.576,28.966,28.966,0,0,0-2.882,5.275c-.532,1.552-.887,3.594.776,4.523a16.862,16.862,0,0,0,6.3,1.8,12.075,12.075,0,0,0,5.809-.71,9.389,9.389,0,0,0,4.168-3.171c1.286-1.752,1.574-4.013,2.86-5.765,1.375-1.885,2.927-3.282,3.769-5.521a12.17,12.17,0,0,0,.488-6.541l.067-.177c2.04-14.678,3.259-29.467,4.523-44.234.687-7.938,1.353-15.873,2.084-23.791.355-3.836.887-7.783,1.242-11.707.355,3.814.865,7.627,1.2,11.33.71,7.65,1.33,15.321,1.951,22.993,1.2,14.346,2.35,28.736,4.324,43.015a.8.8,0,0,0,.865.643,25.771,25.771,0,0,0-.2,5.7,5.069,5.069,0,0,0,2.55,4.324,12.382,12.382,0,0,1,2.417,1.53A14.48,14.48,0,0,1,86.914,394a12.971,12.971,0,0,0,3.636,4.124c3.259,2.062,7.494,1.419,11.02.6,1.663-.377,3.614-.754,4.035-2.683.4-1.818-.732-3.326-1.885-4.59a38.594,38.594,0,0,1-4.59-6.275,48.763,48.763,0,0,1-3.149-6.829.73.73,0,0,0,.177-.554c-.953-18.8-1.375-37.627-1.907-56.452-.488-18.448-.377-37.117-2.217-55.5l.51-.109c.155,2.06.333,4.144.488,6.206.089.976,1.574,1,1.574.089.266.044.532.066.8.111a7.726,7.726,0,0,0,.4,2.838,8.425,8.425,0,0,0,.909,1.843,5.162,5.162,0,0,0,1.552,1.461l.177.044c0,.488.022,1,.022,1.486a.591.591,0,0,0,.6.577,3.877,3.877,0,0,0,3.658-4.435.518.518,0,0,0-.643-.355.526.526,0,0,0-.377.621,2.751,2.751,0,0,1-2.062,2.927c.022-1.153.044-2.326,0-3.481l-.133-3.392a13.6,13.6,0,0,0,2.506-.333,21.554,21.554,0,0,0,2.661-.776c.089,2.372.133,4.745.31,7.117.155,2.2.133,4.213-1.774,5.654a14.464,14.464,0,0,1-4.989,2.04c-1.064.244-1.707.044-1.84-1.064a7.672,7.672,0,0,1,.133-2.461.356.356,0,0,0-.643-.266c-.843,1.463-1.53,3.925.288,4.989,1.131.643,2.483.133,3.636-.2a15.922,15.922,0,0,0,3.082-1.219,6.2,6.2,0,0,0,3.57-5.432,35.124,35.124,0,0,0-.31-4.568c-.155-1.663-.333-3.3-.488-4.945a21.08,21.08,0,0,0,2.927-1.441.926.926,0,0,0,.931-.532l.089-.066A1.05,1.05,0,0,0,109.309,266.908ZM85.584,133.983l.044.089-.044-.022ZM46.361,273.538a13.293,13.293,0,0,0,1.641.244l-.044.133a6.454,6.454,0,0,0,0,1.729,9.53,9.53,0,0,1,.222,3.259,1.6,1.6,0,0,1-1.419,1.375.767.767,0,0,1-.643-.222c-.288-.377-.177-1.109-.2-1.572,0-1.443-.022-2.885-.044-4.326A1.333,1.333,0,0,0,46.361,273.538Zm-4.856.155c1.264.222,2.55.357,3.5.577-.133,1.443-.288,2.86-.421,4.3a3.369,3.369,0,0,0,.222,2.084,2.015,2.015,0,0,0,1.219.953l.488.044.443.577a9.436,9.436,0,0,1,.71,1.2,8.052,8.052,0,0,1,.643,1.951,6.288,6.288,0,0,1-.754-.177,8.664,8.664,0,0,1-1.818-.732,9.293,9.293,0,0,1-3.1-2.838A9.778,9.778,0,0,1,41.5,273.693Zm35.277-85.941a11.517,11.517,0,0,1-5.543,1.419,13.32,13.32,0,0,1-8.78-3.126,4.067,4.067,0,0,0,1.951-2,.736.736,0,0,0,.8-.687,13.46,13.46,0,0,0-.355-4.1,19.275,19.275,0,0,0-.51-1.953L64.3,177.2a10.375,10.375,0,0,0,3.126.709c.865.067,1.02-1.286.2-1.508-5.454-1.463-9.246-5.5-9.313-11.33a.921.921,0,0,0-1.153-.887c-2.062.421-4.39-.776-4.39-3.082a2.533,2.533,0,0,1,4.168-2c.576.443,1.4-.177,1.4-.82v-.641a.505.505,0,0,0,.31-.512,13.955,13.955,0,0,0-.333-2.35c0-3.235-.044-6.5-.089-9.734l.244-.488c.177-.931.355-1.882.51-2.816l.044-.31a41.773,41.773,0,0,0,19.024,2.528,22.812,22.812,0,0,0,3.392-.6,3.654,3.654,0,0,0,1.441.424,16.481,16.481,0,0,0,.089,3.767c-.044,3.592-.089,7.162-.067,10.732,0,.643.82,1.264,1.4.82a2.536,2.536,0,0,1,4.168,2c0,2.328-2.328,3.5-4.39,3.082a.921.921,0,0,0-1.153.887c-.089,6.319-4.612,10.377-10.31,12.128-.776.244-.687,1.6.2,1.51a12.08,12.08,0,0,0,3.126-.8,6.228,6.228,0,0,0,0,2.639,5.651,5.651,0,0,0,1.375,2.528,4.809,4.809,0,0,0,2.129,1.242A6.867,6.867,0,0,1,76.781,187.752ZM61.859,387.7a13.825,13.825,0,0,1-2.9,4.457c-2.284,2.705-2.417,6.652-5.632,8.581-3.37,2.018-7.472,1.375-10.975.044-.466-.177-.865-.244-1.086-.71a2.2,2.2,0,0,1,.022-1.508,10.04,10.04,0,0,1,1.086-2.616c.887-1.616,1.951-3.149,2.794-4.789a33.914,33.914,0,0,0,3.259-10,32.907,32.907,0,0,0,13.791.687.907.907,0,0,0-.044.554A10.506,10.506,0,0,1,61.859,387.7Zm37.383.665a43.811,43.811,0,0,0,3.37,4.213,5.227,5.227,0,0,1,1.441,2.328c.222,1.286-.776,1.752-1.84,2.04-3.193.8-7.14,1.685-10.266.133-2.993-1.508-3.814-5.122-6.364-7.117a21.324,21.324,0,0,0-2.306-1.308,3.452,3.452,0,0,1-1.752-2.683,46.054,46.054,0,0,1-.355-6.319l.089-.2a33.045,33.045,0,0,0,13.348-.577A33.393,33.393,0,0,0,99.242,388.37Zm-6.7-67.028c.421,18.581.843,37.161,1.752,55.72a30.549,30.549,0,0,1-13.215.488c-1.818-13.969-2.927-28.026-4.1-42.061-.621-7.494-1.219-15.011-1.907-22.505-.532-6.009-.8-12.528-2.217-18.47a8.461,8.461,0,0,0,.177-2.129c.067-1.131.111-2.239.155-3.368.089-2.086.133-4.171.177-6.255s.022-4.168-.089-6.253c-.089-2.04.111-4.39-.687-6.3h-.333c-.687,1.951-.443,4.257-.51,6.3-.089,2.084-.155,4.168-.177,6.253-.044,2.084-.111,4.168-.177,6.255-.044,1.129-.111,2.237-.155,3.368a10.557,10.557,0,0,0-.044,1.862c-1.463,6.031-1.752,12.594-2.328,18.692-.732,7.916-1.4,15.853-2.084,23.769-1.242,14.434-2.417,28.869-4.3,43.237a30.562,30.562,0,0,1-13.215-.488c1.463-30.11,1.929-60.287,2.9-90.42.244-7.716.6-15.41.6-23.126a7.021,7.021,0,0,0,2.284.776,82.239,82.239,0,0,0,12.55,1.552,86.086,86.086,0,0,0,23.592-2.2C91.171,284.469,92.147,302.917,92.546,321.342Zm5.876-45.676c-.022.31,0,.621,0,.953a7.15,7.15,0,0,1-1.729-4.368q.9.067,1.8.066C98.466,273.427,98.444,274.536,98.422,275.667Z" data-name="Path 231" transform="translate(-37.434 -126.837)"/><path id="Path_232" fill="#fff" d="M48.8,131.519l.051.06.55.144c1.042-.268,2.04-.67,3.082-.942a19.422,19.422,0,0,1,3.084-.554,21.179,21.179,0,0,1,3.115-.078c1.075.055,2.14.257,3.213.308.987.049,1.111-1.386.226-1.667a15.845,15.845,0,0,0-6.772-.171,15.481,15.481,0,0,0-6.384,2.071.6.6,0,0,0-.259.641Z" data-name="Path 232" transform="translate(-23.721 -125.009)"/><path id="Path_233" fill="#fff" d="M57.556,130.644c-.08-.588-.157-1.18-.237-1.769l-.308.162-.231.253-.106.335.016.359.091.215.231.253.308.162.359.016.335-.106.182-.142.186-.29.078-.346-.033-.239-.231-.4-.182-.142-.457-.122-.346.078-.29.186-.186.29-.078.346.033.239.231.4.182.142Z" data-name="Path 233" transform="translate(-14.036 -124.394)"/></g><g id="Group_168" data-name="Group 168" transform="translate(234.7 126.689)"><path id="Path_234" fill="#fff" d="M143.543,230.431l1.738,21.323S142.92,250.386,142.3,256s-.831,8.315,2.494,9.978,6.122,6.605,7.275,7.066,3.534,3.534,9.561,2.08,5.406-3.117,4.157-5.612-7.219-7.14-8.106-12.057a7.947,7.947,0,0,0-4.57-6.231l.976-22.372Z" data-name="Path 234" transform="translate(-100.538 -2.333)"/><path id="Path_235" fill="#e1e1ff" d="M145,230.434l1.246,21s.869.193,3.033,2.175,4.867,10.089,5.7,11.96,4.78,3.118,2.286,5.4-8.938,1.663-8.938,1.663,2.078,3.12,9.561,2.08,6.237-2.911,4.157-5.612-6.443-8.315-8.106-12.057-1.865-4.978-4.57-6.231c.829-13.308.621-21.623.621-21.623Z" data-name="Path 235" transform="translate(-96.797 -1.921)"/><path id="Path_236" fill="#fff" d="M137.793,229.375c-.865,1.1-1.455,19.332-1.455,19.332s-3.326-.417-4.989,5.4-2.911,12.057-6.237,16.215-.831,7.9,4.157,7.9,9.563.208,11.641-6.443,4.969-4.188,5.612-9.978c1.04-9.355-1.663-7.9-1.663-7.9L147.771,230Z" data-name="Path 236" transform="translate(-122.849 -1.694)"/><path id="Path_237" fill="#e1e1ff" d="M123.588,273.958a13.125,13.125,0,0,0,5.958.918,3.776,3.776,0,0,0,2.149-.7,4.484,4.484,0,0,0,1.078-1.7,89.716,89.716,0,0,1,9.182-16.037,2.028,2.028,0,0,0,.541-1.395c-.188-1.282-1.942-1.011-2.514-1.887-.672-1.027-.022-3.508.08-4.705q.476-5.581,1.441-11.1.612-3.505,1.428-6.978c1.488.031,3.257-.619,4.745-.59-2.818,6.6-1.12,14.213-2.392,21.272a25.6,25.6,0,0,1-.585,2.5c.641-.419,1.439.96,1.483,1.723q.2,3.469.191,6.947a7,7,0,0,1-.259,2.246,8.351,8.351,0,0,1-1.816,2.612,25.769,25.769,0,0,0-3.073,4.392,18.41,18.41,0,0,1-1.725,2.845,8.954,8.954,0,0,1-6.541,2.958,21.706,21.706,0,0,1-7.257-1.2Z" data-name="Path 237" transform="translate(-122.861 -1.195)"/><path id="Path_238" fill="#fff" d="M149.788,192.894a4.846,4.846,0,0,0,3.089,5.089,7.375,7.375,0,0,1,.264,2.259,2.5,2.5,0,0,1-1.06,1.929c-.313.193-.674.288-.989.472-1.146.67-1.335,2.215-1.4,3.541a1.4,1.4,0,0,0,.295,1.151,1.334,1.334,0,0,0,1.035.186,19.786,19.786,0,0,0,5.925-1.778c4.774-2.162,3.843-10.789,1.182-14.206C157.236,191.956,149.843,192.5,149.788,192.894Z" data-name="Path 238" transform="translate(-91.09 -47.752)"/><path id="Path_239" fill="#fff" d="M125.82,192.4c-1.067.412-1.286,1.807-1.27,2.951a13.445,13.445,0,0,0,1.723,7.089,9.679,9.679,0,0,0,7.395,4.27,7.522,7.522,0,0,0-1.916-5.053,2.215,2.215,0,0,0,1.674-1.333,5.318,5.318,0,0,0,.377-2.191,17.958,17.958,0,0,0-.568-4.61,12.045,12.045,0,0,0-4.286-1.2Z" data-name="Path 239" transform="translate(-121.692 -46.799)"/><path id="Path_240" fill="#77f" d="M131.007,188.595c-.492-.437-1.663,90.631-1.663,90.631s9.561,2.286,14.55.415c3.949-42.2,7.747-60.5,7.747-60.5l3.894,59.669s4.661,3.7,13.867-.956c.477-17.751,1.1-87.8,1.1-87.8S140.568,197.118,131.007,188.595Z" data-name="Path 240" transform="translate(-115.855 -51.336)"/><path id="Path_241" fill="#6363eb" d="M138.906,192.067l2.911,13.512s7.066,14.341,7.689,21.618,3.743,15.59,1.871,16.421-6.443,1.871-3.949,2.909,3.534,1.457,3.534,1.457l.415,31.388,6.958-.377.734-89.839S145.975,194.77,138.906,192.067Z" data-name="Path 241" transform="translate(-104.215 -50.651)"/><path id="Path_242" fill="#6363eb" d="M133.659,273.572s3.117-26.816,3.117-29.516-3.117-3.534-4.574-5.406,3.743.832,4.989-1.246,5.82-22.658,6.86-29.518A74.707,74.707,0,0,1,148,193.75l.831,22.241-8.106,57.372Z" data-name="Path 242" transform="translate(-112.686 -45.059)"/><path id="Path_243" fill="#473f97" d="M123.812,240.111a34.086,34.086,0,0,0,13.1.831l.831-8.729s6.027,4.157,18.915,3.949a68.031,68.031,0,0,0,21.827-3.74l1.643,8.075s6.255.446,13.947-3.918c-1.871-13.512-6.443-42.614-7.069-48.019s-1.663-16.213-4.157-23.488-15.913-12.312-15.913-12.312-4.042,21.042-5.705,26.654S158,192.072,158,192.072s-6.953-20.556-8.41-25.337a29.316,29.316,0,0,1-1.058-9.652l-2.882-3.149s-11.858,4.486-16.015,14.669-4.78,41.574-4.78,41.574Z" data-name="Path 243" transform="translate(-122.588 -94.954)"/><path id="Path_244" fill="#fff" d="M166.076,152.379c0,2.328-2.328,3.481-4.368,3.082a.926.926,0,0,0-1.175.865c-.089,2.838-2.2,5.41-3.9,7.517-1.663,2.04-3.614,3.925-4.878,6.253-.4.71.621,1.6,1.2.909l.466-.532a5.422,5.422,0,0,0,.133,1.33,5.621,5.621,0,0,0,1.353,2.528,4.629,4.629,0,0,0,2.129,1.242,6.634,6.634,0,0,1-2.661,3.437,11.517,11.517,0,0,1-5.543,1.419,13.438,13.438,0,0,1-8.78-3.126,4.067,4.067,0,0,0,1.951-2,.725.725,0,0,0,.8-.687,12.89,12.89,0,0,0-.333-4.124c-.111-.532-.266-1.064-.421-1.574.2.244.444.488.643.732.554.687,1.574-.2,1.2-.931-2.2-4.168-7.783-7.317-7.938-12.417a.94.94,0,0,0-1.153-.887c-2.062.421-4.39-.754-4.39-3.082a2.531,2.531,0,0,1,4.168-2c.576.443,1.4-.177,1.4-.8v-.333a.943.943,0,0,0,.621-1,62,62,0,0,1-.155-14.19,22.627,22.627,0,0,0,2.794,1.508,16.97,16.97,0,0,0,3.392,1.752c1.574.576,3.459.6,4.479-.931a3.965,3.965,0,0,0,.621-1.907c3.681,2.749,8.536,5.366,12.9,3.991-.067,3.7-.111,7.428-.089,11.131,0,.643.82,1.242,1.4.8A2.525,2.525,0,0,1,166.076,152.379Z" data-name="Path 244" transform="translate(-114.569 -117.766)"/><path id="Path_245" fill="#e1e1ff" d="M134.884,135.665c-.65-.373-.814.933-.412,1.568,1.1,1.745,2.29,3.568,4.12,4.528s4.49.667,5.454-1.16a19.2,19.2,0,0,0,7.474,4.916c.41,5.306.8,10.765-.789,15.845s-5.658,9.754-10.94,10.417a4.669,4.669,0,0,0,4.67,1.709,14.526,14.526,0,0,1,.4,10.239,9.828,9.828,0,0,0,9.483-6.366,5.844,5.844,0,0,1-5.046-5.255,25.492,25.492,0,0,0,7.776-13,3.738,3.738,0,1,0-.146-6.9l.373-11.359a6.641,6.641,0,0,0-.435-3.235,6.022,6.022,0,0,0-2.018-2.055,19.485,19.485,0,0,0-9.505-3.856,10.934,10.934,0,0,0-9.321,3.572Z" data-name="Path 245" transform="translate(-109.878 -120.635)"/><path id="Path_246" fill="#372b7b" d="M137.351,140.156l-.016-.375a.959.959,0,0,0-.428-.559.94.94,0,0,0-1.282.335,3.46,3.46,0,0,0-.284,2.53,1.043,1.043,0,0,0,.461.6,1,1,0,0,0,1.375-.359,1,1,0,0,0,.1-.774l-.091-.359a2.927,2.927,0,0,1,0-.395,2.416,2.416,0,0,1,.133-.492l-.1.226.013-.033Z" data-name="Path 246" transform="translate(-108.702 -111.591)"/><path id="Path_247" fill="#372b7b" d="M142.412,139.431a1,1,0,0,0-.687-.284.981.981,0,0,0-.685.284,1.073,1.073,0,0,0-.286.685l-.1,1.663a1.074,1.074,0,0,0,1.831.763,1.063,1.063,0,0,0,.315-.761q-.05-.831-.1-1.663A1.034,1.034,0,0,0,142.412,139.431Z" data-name="Path 247" transform="translate(-102.095 -111.525)"/><path id="Path_248" fill="#372b7b" d="M141.115,148.7a6.369,6.369,0,0,0,4.355-1.922c.7-.705-.344-1.718-1.075-1.08a6.552,6.552,0,0,1-3.39,1.417,5.669,5.669,0,0,1-3.725-.785.6.6,0,0,0-.807.208.606.606,0,0,0,.211.807A6.96,6.96,0,0,0,141.115,148.7Z" data-name="Path 248" transform="translate(-107.277 -103.8)"/><path id="Path_249" fill="#372b7b" d="M138.392,145.82a9.26,9.26,0,0,0,1.082.022,4.055,4.055,0,0,0,1.157-.133,10.7,10.7,0,0,0,1.086-.441.584.584,0,0,0,.242-.734.6.6,0,0,0-.694-.344,9.139,9.139,0,0,1-.925.129c-.384.04-.763.173-1.144.239l-.273.044-.031,0-.08.009-.561.049a.811.811,0,0,0-.632.211l-.162.4.3.435A1.534,1.534,0,0,0,138.392,145.82Z" data-name="Path 249" transform="translate(-105.976 -105.402)"/><path id="Path_250" fill="#372b7b" d="M195.5,267.132c-3.171-17.029-5.721-34.035-7.583-51.241-.776-7.162-1.4-15.632-5.188-21.929a17.782,17.782,0,0,0-6.341-6.031c-2.395-1.419-5.92-3.348-8.78-3.437a3.7,3.7,0,0,0-.044-.687,3.03,3.03,0,0,0-.044-.421v-.044a.7.7,0,0,0-1.064-.4,4.2,4.2,0,0,1-2.9-4.789,3.476,3.476,0,0,1,.177-.687c1.33-1.53,2.639-3.082,3.88-4.678,1.486-1.929,2.971-4.1,3.348-6.541,3.06.089,5.964-2.018,5.654-5.432a4.384,4.384,0,0,0-5.543-3.792V155.8a26.359,26.359,0,0,0,1.463-10.887.077.077,0,0,0-.022-.044,6.937,6.937,0,0,0,1-3.06c.222-2.9-1.353-5.543-3.171-7.65a22.071,22.071,0,0,0-13.88-7.295c-4.9-.621-11.109.266-14.39,4.346a7.049,7.049,0,0,0-.532,8.071c.111.2.244.377.355.554-.022.022-.044,0-.067.022-1.907,2.328-2.151,5.587-1.752,8.47a34.067,34.067,0,0,0,2.705,8.647,4.378,4.378,0,0,0-5.5,3.791c-.333,3.415,2.594,5.543,5.676,5.432.576,3.769,3.57,7.029,6.275,9.956a.843.843,0,0,0-.044.576l.266.931c.155.643.288,1.308.377,1.951.133,1.042.155,2.106.2,3.149a3.581,3.581,0,0,1-2.927,2.239.854.854,0,0,0-.776.665c-7.029,2.927-13.636,6.3-16.763,13.681-3.215,7.65-3.548,16.253-3.814,24.412-.333,10.066-1.086,20.088-1.641,30.133-.31,5.255-.576,10.554-.443,15.809.022,1.064-.111,2.173.776,2.9a6.121,6.121,0,0,0,2.461,1.042,6.41,6.41,0,0,0-.754,1.574,9.52,9.52,0,0,0-.244,2.505,9.984,9.984,0,0,0,1.463,5.011,9.123,9.123,0,0,0,3.7,3.282c1.131.576,3.392,1.619,4.523.643v-.111a.645.645,0,0,0,.288-.665,8.954,8.954,0,0,0-1.131-2.838,9.5,9.5,0,0,0-.887-1.22,1.023,1.023,0,0,0-.155-.155,2.963,2.963,0,0,0,1.286-.843,4.763,4.763,0,0,0,.643-3.725c-.111-.687-.266-1.375-.355-2.062a4.851,4.851,0,0,1-.022-1.131,3.45,3.45,0,0,0,.133-1.042c-.022-.2-.2-.244-.377-.244-.089-.089-.155-.2-.288-.244a9.386,9.386,0,0,0-2.372-.266c-.6-.067-1.2-.089-1.8-.133-.71-.155-1.4-.31-2.106-.466-.488-.111-.953-.222-1.441-.333-1.109,0-1.508-.488-1.2-1.486-.532-1.707-.022-4.479,0-6.3.089-4.412.288-8.825.532-13.237.51-8.647,1.02-17.295,1.242-25.964.2-7.561.421-15.366,2.9-22.594,2.151-6.3,6.585-9.822,11.929-12.594.155,3.88,1.242,7.76,2.129,11.508,1.064,4.39,2.262,8.758,3.614,13.06q1.962,6.286,4.279,12.395a34.29,34.29,0,0,0,4.9,9.623c-.155,10.332.066,20.687.133,31-.532,0-1.064.044-1.619.022a82.5,82.5,0,0,1-12.106-1.131,11.69,11.69,0,0,1-3.038-.576c-1.242-.687-1.286-1.463-1.441-2.86-.2-1.929.022-4.035.022-5.987.066-7.982.089-15.964.133-23.946.022-8.071.643-16.474-.421-24.479-.022-.222-.355-.31-.4-.066-1.33,8.913-.732,18.292-.843,27.272-.089,9.246-.288,18.492-.288,27.738a4.463,4.463,0,0,0,.71,2.772c-1.685,14.634-1.33,29.6-1.463,44.323-.155,14.9-.333,29.778-1.109,44.656a.925.925,0,0,0,.665.887c.355.111.71.155,1.064.244-.532,1.463-.377,3.326-.51,4.856l-.466,5.454c-.155,1.885-.333,3.769-.51,5.654-.089.842-.155,1.707-.244,2.55a.462.462,0,0,0-.576-.333,5.137,5.137,0,0,0-3.392,3.126c-.6,1.774-.51,3.769-.909,5.61a31.33,31.33,0,0,1-3.082,8c-1.219,2.239-2.838,4.3-3.792,6.674-.754,1.929-1.153,4.191,1.042,5.211a18.269,18.269,0,0,0,7.428,1.685,11.158,11.158,0,0,0,6.341-1.907,10.606,10.606,0,0,0,3.636-5.211,13.148,13.148,0,0,1,2.572-4.058,12.784,12.784,0,0,0,2.106-3.1,12.219,12.219,0,0,0,.887-7.627v-.022c-.022-.244,0-.488-.022-.732a14.509,14.509,0,0,0-.532-3.06.952.952,0,0,0-1.131-.643c-.111.022-.2.089-.288.111.133-1.109.266-2.239.421-3.348.288-2.084.621-4.168.931-6.253.6-3.947,1.064-7.871,1.308-11.84.976-.111,1.951-.2,2.927-.4a.169.169,0,0,0,.111-.044,1.035,1.035,0,0,0,.2-.066.966.966,0,0,0,.155-.133c.022-.044.067-.066.089-.089a1.539,1.539,0,0,0,.111-.288v-.133c1.441-10.222,2.594-20.487,3.592-30.753.466-4.789.909-9.556,1.419-14.346.266-2.616.576-5.233.8-7.871.044-.466.111-.976.155-1.463.022.333.067.643.089.953.155,2.639.377,5.255.554,7.871.333,4.878.554,9.756.776,14.634.444,10.222,1.175,20.4,2.572,30.532a.166.166,0,0,0,.022.111v.022a.654.654,0,0,0,.111.288.308.308,0,0,0,.067.089c.044.044.089.111.155.133a.578.578,0,0,0,.177.067c.044.022.067.066.133.066a29.867,29.867,0,0,0,3.37.444c-.111,6.5,1.486,12.86,1.663,19.357.022.931,1.486.931,1.441,0-.244-6.474-1.508-12.86-2.395-19.29a32.275,32.275,0,0,0,8.514-.554c.4,6.741.643,13.459.466,20.177a.378.378,0,0,0,.177.355.506.506,0,0,0,.133.266,3.073,3.073,0,0,0-2.306-.554,4.835,4.835,0,0,0-3.259,1.885.336.336,0,0,0-.466.244,6.993,6.993,0,0,0-.133,1.353l-.177-.133-.2-.222-.044-.044-.044-.066-.111-.155-.022-.022-.044-.067-.333-.532c-.089-.222-.155-.355-.222-.532-.089-.222-.155-.443-.222-.643l-.222-.443-.333-.155-.244.067-.266.31v.466c.022.288.044.554.089.843a5.313,5.313,0,0,0,.377,1.441,3.607,3.607,0,0,0,.865,1.2,3.975,3.975,0,0,0,.621.443,1.348,1.348,0,0,0,1,.266c.244.621.51,1.22.776,1.8.8,1.774,1.6,3.548,2.439,5.3.665,1.33,1.552,2.772,3.06,3.237.976.288,3.614.044,3.237-1.53a.668.668,0,0,0-.6-.466c-.532-.022-.82.466-1.308.554a2.23,2.23,0,0,1-1.441-.355c-1.042-.732-1.574-2.129-2.129-3.237-.687-1.4-1.353-2.794-2.018-4.213-.333-.71-.687-1.419-.953-2.151-.177-.51-.355-1-.488-1.508-.111-.843,1.131-1.353,1.774-1.53a2.982,2.982,0,0,1,1.863-.089,2.085,2.085,0,0,1,1.086,1.419c.288.8.554,1.6.843,2.372a48.332,48.332,0,0,0,1.951,4.545c.355.732.709,1.463,1.109,2.173.2.377.421.776.643,1.175.222.377.51.709.067,1.042a.534.534,0,0,0,.133.953c.931.355,1.508-.82,1.353-1.6a6.059,6.059,0,0,0-.71-1.6c-.266-.51-.51-1.02-.776-1.53a60,60,0,0,1-2.772-6.807,6.856,6.856,0,0,0-1.264-2.727.421.421,0,0,0,.2.066c.953.2,1.2,1.286,1.463,2.084.31.953.643,1.885,1.02,2.794a41.752,41.752,0,0,0,3.1,5.92,47.845,47.845,0,0,0,3.769,5.144c.976,1.153,4.124,4.058,1.552,5.211a18.2,18.2,0,0,1-5.964,1.2,9.855,9.855,0,0,1-5.521-.931c-1.729-.976-2.661-2.705-3.747-4.3a10.082,10.082,0,0,0-3.681-3.481c-1.153-.621-2.084-1.153-2.483-2.461a16.082,16.082,0,0,1-.355-3.725,31.171,31.171,0,0,1,.022-3.525c.022-.554.488-4.678,1.552-4.434.333.089.576-.4.244-.577-3.681-1.707-3.326,10.51-3.06,12.128a4.622,4.622,0,0,0,1.486,2.86c.931.8,2.129,1.131,3.082,1.885,1.862,1.486,2.683,3.925,4.346,5.61,3.459,3.57,8.869,2.727,13.215,1.685a4.679,4.679,0,0,0,2.838-1.441,3.314,3.314,0,0,0,.4-2.949,7.031,7.031,0,0,0-1.663-2.594c-.953-1.086-1.885-2.173-2.749-3.348a42.521,42.521,0,0,1-4.856-8.293c-.843-1.885-1.22-5.587-3.769-5.854a112.662,112.662,0,0,0-.155-19.911c.466-.111.931-.177,1.4-.31a.9.9,0,0,0,.665-.865c-.732-14.834-.466-29.623-.066-44.434.4-14.412,1.175-29.113-.355-43.481.155-.044.31-.067.488-.111.155,2.062.333,4.146.488,6.208.067.976,1.574,1,1.574.089.266.044.532.066.8.111a7.456,7.456,0,0,0,.4,2.86,6.982,6.982,0,0,0,.909,1.818,5.229,5.229,0,0,0,1.552,1.486c.044.022.111,0,.155.022.022.51.022,1,.044,1.486a.607.607,0,0,0,.577.6,3.875,3.875,0,0,0,3.658-4.435.508.508,0,0,0-.621-.377.542.542,0,0,0-.377.643,2.8,2.8,0,0,1-2.062,2.927c0-1.175.044-2.35,0-3.5-.044-1.131-.089-2.262-.133-3.37a18.894,18.894,0,0,0,2.506-.333,21.57,21.57,0,0,0,2.661-.776c.089,2.372.133,4.745.288,7.117.155,2.2.133,4.213-1.774,5.632a13.5,13.5,0,0,1-4.989,2.04c-1.064.244-1.707.044-1.84-1.042a8.321,8.321,0,0,1,.133-2.461.341.341,0,0,0-.621-.266c-.865,1.441-1.53,3.9.266,4.967,1.131.643,2.506.133,3.636-.2a16.748,16.748,0,0,0,3.082-1.2,6.221,6.221,0,0,0,3.592-5.432,35.2,35.2,0,0,0-.31-4.59c-.177-1.641-.333-3.282-.488-4.922a27.546,27.546,0,0,0,2.927-1.441.912.912,0,0,0,.931-.554.168.168,0,0,0,.089-.044A1.044,1.044,0,0,0,195.5,267.132Zm-62.97,6.563a14.53,14.53,0,0,0,1.641.222.378.378,0,0,1-.022.155,6.455,6.455,0,0,0-.022,1.729,9.009,9.009,0,0,1,.222,3.259,1.556,1.556,0,0,1-1.419,1.353.712.712,0,0,1-.621-.2,2.934,2.934,0,0,1-.2-1.574c-.022-1.441-.022-2.9-.044-4.346A1.14,1.14,0,0,0,132.528,273.7Zm-4.834.133c1.264.244,2.55.377,3.5.6-.133,1.419-.288,2.86-.443,4.279a3.341,3.341,0,0,0,.244,2.084,1.955,1.955,0,0,0,1.219.953,1.739,1.739,0,0,0,.488.044c.133.2.288.4.421.6a10.777,10.777,0,0,1,.732,1.2,8.349,8.349,0,0,1,.621,1.951c-.266-.066-.51-.111-.754-.177a8.084,8.084,0,0,1-1.818-.754,9.442,9.442,0,0,1-3.1-2.816A9.835,9.835,0,0,1,127.694,273.829ZM167.583,185.2a16.431,16.431,0,0,0,3.038,1.6c-1.086,8.248-2.018,16.452-4.058,24.545A132.222,132.222,0,0,1,159,233.1c-.066-3.1-.177-6.208-.333-9.29a1.219,1.219,0,0,0,.488-.6,180.822,180.822,0,0,0,4.656-18.669c1.175-5.61,2.084-11.2,2.749-16.873a8.379,8.379,0,0,0,.576-.953A5.24,5.24,0,0,0,167.583,185.2Zm-9.2,6.3a11.139,11.139,0,0,0,6.763-2.217c.044-.022.067-.067.089-.089-1.064,5.055-2.151,10.133-3.326,15.166-1.286,5.41-2.816,10.709-4.235,16.075-2.749-10.576-6.652-20.842-8.47-31.618A15.321,15.321,0,0,0,158.381,191.5Zm-7.694-7.273a.725.725,0,0,0,.8-.687,12.89,12.89,0,0,0-.333-4.124c-.111-.532-.266-1.064-.421-1.574.2.244.443.488.643.732.554.687,1.574-.2,1.2-.931-2.2-4.168-7.783-7.317-7.938-12.417a.94.94,0,0,0-1.153-.887c-2.062.421-4.39-.754-4.39-3.082a2.531,2.531,0,0,1,4.168-2c.576.443,1.4-.177,1.4-.8v-.333a.943.943,0,0,0,.621-1,62,62,0,0,1-.155-14.19,22.628,22.628,0,0,0,2.794,1.508,10.78,10.78,0,0,0,1.2.732,16.4,16.4,0,0,0,2.2,1.02c1.574.576,3.459.6,4.479-.931a3.965,3.965,0,0,0,.621-1.907c3.681,2.749,8.536,5.366,12.9,3.991-.067,3.7-.111,7.428-.089,11.131,0,.643.82,1.242,1.4.8a2.525,2.525,0,0,1,4.146,2.018c0,2.328-2.328,3.481-4.368,3.082a.926.926,0,0,0-1.175.865c-.089,2.838-2.2,5.41-3.9,7.517-1.663,2.04-3.614,3.925-4.878,6.253-.4.71.621,1.6,1.2.909l.466-.532a5.423,5.423,0,0,0,.133,1.33,5.621,5.621,0,0,0,1.353,2.528,4.629,4.629,0,0,0,2.129,1.242,6.634,6.634,0,0,1-2.661,3.437,11.442,11.442,0,0,1-4.678,1.375c-.288.022-.577.044-.865.044a13.438,13.438,0,0,1-8.78-3.126A4.067,4.067,0,0,0,150.687,184.229Zm6.7,48.979c-3.858-6.3-6.1-13.858-8.315-20.776q-1.9-5.82-3.415-11.751c-1-3.88-1.641-7.982-2.993-11.774,1.375-.71,2.816-1.375,4.3-2,.333.333.665.665,1.042.976.732,12.683,6.12,24.545,8.869,36.851a.756.756,0,0,0,.776.643C157.517,228,157.428,230.592,157.384,233.208ZM135.876,378.727v-.044c.288,0,.577.022.865.044a19.386,19.386,0,0,1,1.929.31,6.73,6.73,0,0,1,3.126,1.907.773.773,0,0,0,.333.155,6.473,6.473,0,0,0-.532.82c-.288.488-.554.976-.843,1.463q-.865,1.463-1.8,2.927c-.576.953-1.2,1.862-1.8,2.816-.6.931-1.086,1.907-1.641,2.86a6.552,6.552,0,0,0-3.392-1.02c-.067,0-.133.022-.2.022a39.658,39.658,0,0,0,2.239-5.211A38.462,38.462,0,0,0,135.876,378.727Zm10.089,2.639a9.791,9.791,0,0,1-.022,1.4c0,.222-.044.466-.044.71a1.312,1.312,0,0,0,.288.71,10.163,10.163,0,0,1-.8,4.435c-.843,1.951-2.483,3.237-3.592,4.989-1.042,1.619-1.352,3.614-2.439,5.233a8.005,8.005,0,0,1-4.944,3.126,13.292,13.292,0,0,1-6.652-.51c-.577-.177-1.153-.355-1.707-.576a1.568,1.568,0,0,1-.976-2,10.814,10.814,0,0,1,1.33-3.126c2.106-3.636,4.257-7.117,5.432-11.219a23.191,23.191,0,0,0,.776-5.521c.111-2.151.732-3.592,2.794-4.479.089-.044.111-.111.155-.177,0,.089-.022.177-.022.266a11.433,11.433,0,0,0-.133,3.015h-.044l-.133-.066a.932.932,0,0,0-1.153.665c-.355,2.35-.887,4.656-1.441,6.984-.488,2.018-1.2,3.969-1.8,5.965a1.841,1.841,0,0,0-.333.089.532.532,0,0,0,.133,1.042h.044a.334.334,0,0,0,.377,0c.31.022.621.022.931.044a8.742,8.742,0,0,1,1.286.244,5.242,5.242,0,0,1,2.129,1.33.858.858,0,0,0,1.175,0,.836.836,0,0,0,0-1.175c-.155-.133-.333-.222-.488-.355.732-.8,1.486-1.574,2.151-2.439.687-.887,1.33-1.84,1.973-2.794.643-.909,1.264-1.84,1.862-2.772.333-.488.643-1,.976-1.486a.484.484,0,0,1,.067-.111,2.794,2.794,0,0,0,2.062-1.641c.222-.355.421-.71.643-1.042l.022.177.022.044.022.31C145.92,380.878,145.942,381.122,145.965,381.366Zm-.244-12.971c-.266,1.929-.532,3.836-.776,5.765-.133,1.086-.244,2.173-.355,3.259a9.207,9.207,0,0,0-.155,1.552,9.116,9.116,0,0,0-.554,1.153l-.155.355-.089.177c0,.044-.044.089-.067.133a.606.606,0,0,0-.266-.2,1.01,1.01,0,0,0-.222-.909,8.485,8.485,0,0,0-4.035-2.239,6.255,6.255,0,0,0-2.129-.177,18.2,18.2,0,0,0,.244-2.239c.089-1.064.2-2.129.288-3.215.177-1.885.333-3.792.488-5.676.155-1.818.244-3.636.31-5.454.022-.953.044-1.929.067-2.882a9.87,9.87,0,0,0-.089-2.151,32.143,32.143,0,0,0,9.313.732C146.985,360.391,146.3,364.382,145.721,368.395Zm31.2-58.891c-.488,14.59-.754,29.135-.111,43.7a30.372,30.372,0,0,1-12.949.51c-1.286-10.089-1.973-20.221-2.439-30.4-.2-4.745-.421-9.512-.732-14.257-.333-4.59-.4-9.978-1.641-14.567a11.141,11.141,0,0,0,.155-1.929c.067-1.131.111-2.239.155-3.37.089-2.084.155-4.168.177-6.253q.067-3.126-.067-6.253c-.089-2.04.111-4.39-.687-6.3h-.333c-.687,1.951-.444,4.257-.532,6.3-.067,2.084-.133,4.168-.177,6.253s-.111,4.168-.177,6.253c-.044,1.131-.111,2.239-.155,3.37a13.354,13.354,0,0,0-.066,1.619c-1.33,4.568-1.508,9.867-2,14.5-.51,4.945-.976,9.889-1.463,14.856-1,10.222-2.106,20.421-3.459,30.62a30.736,30.736,0,0,1-12.949-.554c.71-14.634.887-29.268.931-43.924.044-14.523.754-29.09.577-43.614a7.067,7.067,0,0,0,2.262.776,82.251,82.251,0,0,0,12.55,1.552,85.885,85.885,0,0,0,23.57-2.129C177.139,280.68,177.383,295.092,176.918,309.5Zm7.694-33.636c-.022.31,0,.643,0,.953a7.09,7.09,0,0,1-1.729-4.346,16.189,16.189,0,0,0,1.8.044C184.656,273.629,184.634,274.76,184.612,275.868Zm-1.752-4.834a.532.532,0,0,0-.355-.333.62.62,0,0,0-.732.377c-.355,0-.71-.022-1.064-.044-.177-1.862-.377-3.747-.554-5.61a1.052,1.052,0,0,0-.155-1.463c-.022-.244-.044-.488-.067-.754q-.765-14.2-1.53-28.425c-.288-4.967-.554-9.911-.82-14.878-.244-4.767-.266-9.712-1.353-14.368-.044-.244-.377-.177-.4.044-.621,5.078-.067,10.332.177,15.432.244,4.767.466,9.534.71,14.324l1.4,28.669a83.717,83.717,0,0,1-19.179,2.572c.044-10.111.266-20.288.133-30.421.022-.044.067-.066.089-.111a137.649,137.649,0,0,0,8.581-24.368c1.973-8,3.5-16.363,3.437-24.634a26.634,26.634,0,0,1,4.9,2.262,16.828,16.828,0,0,1,7.007,9.446c2.439,7.472,3.082,15.388,3.814,23.17,1.463,15.388,4.191,30.665,7.029,45.831A23.9,23.9,0,0,1,182.86,271.035Z" data-name="Path 250" transform="translate(-123.26 -126.689)"/><path id="Path_251" fill="#e1e1ff" d="M134.96,154.71a158.434,158.434,0,0,0,4.913,19.317c1.619-5.541,3.253-10.858,3.825-16.654A15.331,15.331,0,0,1,134.96,154.71Z" data-name="Path 251" transform="translate(-109.018 -92.581)"/><path id="Path_252" fill="#b7b7ff" d="M148.2,154.969a11.139,11.139,0,0,1-6.763,2.217c-.149.007-.293-.02-.441-.02-.572,5.8-2.206,11.113-3.825,16.654,1.233,4.086,2.483,8.171,3.557,12.3,1.419-5.366,2.949-10.665,4.235-16.075,1.175-5.033,2.262-10.111,3.326-15.166C148.271,154.9,148.249,154.947,148.2,154.969Z" data-name="Path 252" transform="translate(-106.321 -92.374)"/><path id="Path_253" fill="#372b7b" d="M138.852,137.782a.776.776,0,0,0-.763-.765,8.23,8.23,0,0,0-3.027.827.654.654,0,0,0-.27.82.645.645,0,0,0,.776.381,7.2,7.2,0,0,1,1.306-.39l.324-.058.033,0,.151-.018c.235-.022.47-.033.705-.035A.771.771,0,0,0,138.852,137.782Z" data-name="Path 253" transform="translate(-109.283 -114.12)"/><path id="Path_254" fill="#372b7b" d="M141.3,138.826l.949.071c.315.024.636.069.951.069a.9.9,0,0,0,.612-.253.886.886,0,0,0,.253-.61.877.877,0,0,0-.863-.865c-.315,0-.636.042-.951.064s-.634.047-.951.069l-.514.213-.213.514.213.514A.8.8,0,0,0,141.3,138.826Z" data-name="Path 254" transform="translate(-102.187 -113.849)"/><path id="Path_255" fill="#372b7b" d="M141.37,150.319l-.483.1-.06.009-.428.073-.412.078,0,0-.142.018-.213.018a5.933,5.933,0,0,1-1.8-.135.559.559,0,0,0-.654.319.552.552,0,0,0,.226.694,7.69,7.69,0,0,0,2.188.576,6.269,6.269,0,0,0,1.02.035,4.248,4.248,0,0,0,1.18-.253.8.8,0,1,0-.423-1.534Z" data-name="Path 255" transform="translate(-106.366 -97.956)"/><path id="Path_256" fill="#372b7b" d="M137.408,183.2a38.371,38.371,0,0,0,4.488-.1.818.818,0,0,0,.772-.585v-.426a.814.814,0,0,0-.769-.585c-1.5.031-2.993-.035-4.488.016s-2.991.055-4.485.022c-.823-.016-.778,1.157,0,1.248Q135.158,183.053,137.408,183.2Z" data-name="Path 256" transform="translate(-112.227 -59.97)"/><path id="Path_257" fill="#372b7b" d="M150.629,181.021a5.7,5.7,0,0,0-1.353.368c-.807.219-1.608.475-2.421.665a16.488,16.488,0,0,1-2.39.4c-.45.04-.9.047-1.348.124-.415.071-.827.14-1.246.186a.488.488,0,0,0-.129.953,8.782,8.782,0,0,0,2.559.494,18.014,18.014,0,0,0,2.421-.1,12.149,12.149,0,0,0,2.663-.488c.443-.157.878-.335,1.308-.521.5-.217.942-.474.947-1.1A1.007,1.007,0,0,0,150.629,181.021Z" data-name="Path 257" transform="translate(-101.186 -60.553)"/><path id="Path_258" fill="#fff" d="M135.356,130.4a18.442,18.442,0,0,1,5.964-.153,17.329,17.329,0,0,1,2.843.639c.973.3,1.878.754,2.836,1.086,1.08.377,1.694-1.239.761-1.807a14.682,14.682,0,0,0-6.321-1.656,17.516,17.516,0,0,0-6.4.741A.6.6,0,0,0,135.356,130.4Z" data-name="Path 258" transform="translate(-109.439 -124.535)"/><path id="Path_259" fill="#fff" d="M143.981,132.215l.246-.155.355-.355.135-.5-.135-.5-.355-.355-.246-.155a1.17,1.17,0,1,0,0,2.02Z" data-name="Path 259" transform="translate(-100.177 -122.617)"/></g><g id="Group_169" data-name="Group 169" transform="translate(127.737 377.278)"><rect id="Rectangle_113" width="31.476" height="2.217" fill="#372b7b" data-name="Rectangle 113"/></g><path id="Path_260" fill="#372b7b" d="M82.66,248.184v-9.978L71.019,243.2Z" data-name="Path 260" transform="translate(47.849 135.746)"/><g id="Group_170" data-name="Group 170" transform="translate(198.015 377.278)"><rect id="Rectangle_114" width="29.271" height="2.217" fill="#372b7b" data-name="Rectangle 114"/></g><path id="Path_261" fill="#372b7b" d="M118.666,248.184v-9.978l11.641,4.989Z" data-name="Path 261" transform="translate(105.848 135.746)"/><text id="_6ft" fill="#372b7b" data-name="6ft" font-family="Helvetica" font-size="27" transform="translate(161.986 383.414)"><tspan x="0" y="0">6ft</tspan></text></g></g></g></svg>