<svg xmlns="http://www.w3.org/2000/svg" xmlns:xlink="http://www.w3.org/1999/xlink" id="Component_22_1" width="335.697" height="362.052" data-name="Component 22 – 1" viewBox="0 0 335.697 362.052"><defs><clipPath id="clip-path"><path id="Path_366" fill="none" d="M618.5,267.585A139.476,139.476,0,1,1,479.037,128.12,138.822,138.822,0,0,1,618.5,267.585Z" data-name="Path 366" transform="translate(-339.55 -128.12)"/></clipPath></defs><path id="Path_209" fill="#ff8bb5" d="M-2242.865-131.008c10.974-10.974,86.876-91.449,151.806-58.527s96.021,72.245,131.686,146.318c11.48,29.414,19.2,116.14-86.876,184.727s-184.727-35.665-196.616-50.3S-2339.8-10.3-2242.865-131.008Z" data-name="Path 209" opacity=".1" transform="translate(2288.713 197.394)"/><g id="Group_167" data-name="Group 167" transform="translate(-310.55 -87.096)"><path id="Path_310" fill="#ff8bb5" d="M618.5,267.585A139.476,139.476,0,1,1,479.037,128.12,138.822,138.822,0,0,1,618.5,267.585Z" data-name="Path 310" transform="translate(0)"/><g id="Group_185" data-name="Group 185" transform="translate(339.55 128.12)"><g id="Group_184" clip-path="url(#clip-path)" data-name="Group 184"><g id="Group_183" data-name="Group 183" transform="translate(-28.265 46.229)"><path id="Path_311" fill="#b7b7ff" d="M812.217,229.075a171.279,171.279,0,0,1-77.551,58.949h-120.6a171.333,171.333,0,0,1-77.575-58.949Z" data-name="Path 311" transform="translate(-82.393 -57.014)"/><g id="Group_182" data-name="Group 182"><path id="Path_312" fill="#fff" d="M335.5,230.165c-1.059,1.23.487,108.651.487,108.651l239.826-.828-2.525-113.453-46.365-66.9Z" data-name="Path 312" transform="translate(-316.422 -140.042)"/><path id="Path_313" fill="#372b7b" d="M419.627,180.367s-2.91,12.132-1.027,11.639,18.383,2.573,18,.977-.476-13.752-.476-13.752Z" data-name="Path 313" transform="translate(-220.146 -114.944)"/><path id="Path_314" fill="#e1e1ff" d="M426.79,179.232s-1.356,13.86.363,13.752a18.539,18.539,0,0,0,4.009-.917l.2-11.977Z" data-name="Path 314" transform="translate(-210.48 -114.944)"/><path id="Path_315" fill="#77f" d="M402.07,292.839l.694-96.49,32.465,1.066-.014,97.378Z" data-name="Path 315" transform="translate(-238.622 -95.049)"/><path id="Path_316" fill="#473f97" d="M408.7,224.709l8.579-.808-.408-20.484-9.05.461Z" data-name="Path 316" transform="translate(-231.942 -86.834)"/><path id="Path_317" fill="#473f97" d="M408.77,218.16l7.264.97.254,16.2-8.477,1.228Z" data-name="Path 317" transform="translate(-231.949 -69.7)"/><path id="Path_318" fill="#e1e1ff" d="M477.015,248.841c-.993-.333-57.957-71.867-57.624-72.861S430.319,158.1,430.319,158.1L475.358,224Z" data-name="Path 318" transform="translate(-218.492 -139.509)"/><path id="Path_319" fill="#e1e1ff" d="M335.875,191.18l-1.066,108.651,130.366-.983-.722-106.54Z" data-name="Path 319" transform="translate(-316.795 -101.057)"/><path id="Path_320" fill="#77f" d="M381.954,200.774l-.714,39.98-30.866.77c.424-1.22.4-28.641.344-40.246C360.521,201.146,371.462,200.96,381.954,200.774Z" data-name="Path 320" transform="translate(-298.705 -89.906)"/><g id="Group_180" data-name="Group 180" transform="translate(55.849 111.69)"><path id="Path_321" fill="#473f97" d="M352.793,201.674l-.365,20.364q10.444-10.44,20.885-20.883C371.224,201.138,352.793,201.674,352.793,201.674Z" data-name="Path 321" transform="translate(-352.166 -201.154)"/><path id="Path_322" fill="#473f97" d="M374.476,205.795c-7.6,8.039-14.9,16.5-22.146,24.17l-.024,1.341,1.615-.117,20.615-20.613C374.524,208.935,374.507,207.317,374.476,205.795Z" data-name="Path 322" transform="translate(-352.307 -195.761)"/><path id="Path_323" fill="#b7b7ff" d="M373.682,212.478c0-1.483,0-2.986-.013-4.472l-20.615,20.613,4.508-.32A112,112,0,0,1,373.682,212.478Z" data-name="Path 323" transform="translate(-351.439 -193.191)"/><path id="Path_324" fill="#473f97" d="M371.259,210.074a112,112,0,0,0-16.12,15.821l15.988-1.139S371.254,217.733,371.259,210.074Z" data-name="Path 324" transform="translate(-349.016 -190.788)"/><path id="Path_325" fill="#b7b7ff" d="M373.59,201.155c-.028,0-.106,0-.149,0Q363,211.6,352.556,222.039l-.238,13.319c7.241-7.665,14.541-16.13,22.146-24.17C374.356,205.569,374.1,201.171,373.59,201.155Z" data-name="Path 325" transform="translate(-352.294 -201.155)"/></g><path id="Path_326" fill="#b7b7ff" d="M463.138,191.18c-1.034.8-10.148,12.716-14.917,17.7-1.271,1.351-2.225,2.173-2.649,2.173-.636,0-12.478.238-28.137.556-5.617.106-11.711.212-17.964.318-10.491.186-21.432.372-31.236.5-18.282.238-32.615.318-32.615-.052,0-1.008-.318-21.2-.318-21.2Z" data-name="Path 326" transform="translate(-316.222 -101.057)"/><path id="Path_327" fill="#6363eb" d="M381.849,198.748l-.08,4.5c-10.491.186-21.432.372-31.236.5v-5.114Z" data-name="Path 327" transform="translate(-298.52 -92.384)"/><path id="Path_328" fill="#77f" d="M404.843,242.552l-31.45.238-.106-40.7c15.659-.318,27.5-.556,28.137-.556.424,0,1.377-.822,2.649-2.173Z" data-name="Path 328" transform="translate(-272.074 -91.544)"/><path id="Path_329" fill="#6363eb" d="M404.073,200.148c-1.271,1.351-2.225,2.173-2.649,2.173-.636,0-12.478.238-28.137.556v-3.2l30.76-.982Z" data-name="Path 329" transform="translate(-272.074 -92.327)"/><path id="Path_330" fill="#77f" d="M421.883,197.564l1.139,48.644,39.822.132.264-48.484Zm4.716,44.458-.794-40.166,30.176,1.351,2.067,38.841Z" data-name="Path 330" transform="translate(-215.593 -93.637)"/><path id="Path_331" fill="#77f" d="M450.522,200.749l-26.825-1.2.534,27.08C433.148,218.155,441.7,209.318,450.522,200.749Z" data-name="Path 331" transform="translate(-213.485 -91.33)"/><path id="Path_332" fill="#b7b7ff" d="M453.887,205.888l-.3-5.633-3.352-.151c-8.822,8.569-17.374,17.406-26.291,25.88l.171,8.576C434.284,225.742,443.884,215.212,453.887,205.888Z" data-name="Path 332" transform="translate(-213.198 -90.685)"/><path id="Path_333" fill="#77f" d="M425.029,235.961c8.956-9.611,19.49-18.433,29.056-27.739l-.29-5.442c-10,9.324-19.6,19.854-29.772,28.671l.089,4.51Z" data-name="Path 333" transform="translate(-213.106 -87.576)"/><path id="Path_334" fill="#b7b7ff" d="M453.544,205.3c-9.566,9.306-20.1,18.128-29.056,27.739l4.787,0c8.712-7.239,16.437-15.464,24.5-23.35Z" data-name="Path 334" transform="translate(-212.566 -84.651)"/><path id="Path_335" fill="#77f" d="M451.2,207.328c-8.065,7.886-15.791,16.111-24.5,23.35l25.746.022Z" data-name="Path 335" transform="translate(-209.993 -82.289)"/><path id="Path_336" fill="#fff" d="M436.377,204.349a3.345,3.345,0,1,1-3.345-3.343A3.345,3.345,0,0,1,436.377,204.349Z" data-name="Path 336" transform="translate(-206.523 -89.637)"/><path id="Path_337" fill="#473f97" d="M445.424,204.844c-1.544-2.381-2.686-4.132-2.686-4.132l-7.663-1.031s-5.464,16.392-10.731,21.523l.882,3.626C432.059,218.268,438.691,211.5,445.424,204.844Z" data-name="Path 337" transform="translate(-212.733 -91.177)"/><path id="Path_338" fill="#b7b7ff" d="M448.617,207.732c-1.254-1.944-2.564-3.963-3.667-5.663-6.733,6.66-13.365,13.423-20.2,19.986l1.764,7.252C434,222.481,441.239,214.9,448.617,207.732Z" data-name="Path 338" transform="translate(-212.259 -88.401)"/><path id="Path_339" fill="#b7b7ff" d="M449.416,206.327c-7.758,7.38-15.955,14.541-23.393,22.083l.938,3.855c8.658-7.12,16.331-15.224,24.288-23.045C450.809,208.511,450.175,207.512,449.416,206.327Z" data-name="Path 339" transform="translate(-210.782 -83.452)"/><path id="Path_340" fill="#473f97" d="M426.457,230.71l.035.147,16.811-1.081,6.242-18.048a26.673,26.673,0,0,0,1.84-2.982,12.386,12.386,0,0,0-.64-1.081C442.788,215.486,435.115,223.59,426.457,230.71Z" data-name="Path 340" transform="translate(-210.277 -81.897)"/><path id="Path_341" fill="#473f97" d="M449.945,208.232c-.692-1.081-1.468-2.29-2.277-3.544-7.378,7.164-14.613,14.749-22.1,21.575l.984,4.052C433.99,222.773,442.187,215.612,449.945,208.232Z" data-name="Path 341" transform="translate(-211.311 -85.357)"/><path id="Path_342" fill="#473f97" d="M601.828,231.915l-2.835,4.532-14.494-.822-46.841-65.866-50.047,68.515L333.6,239.52s-3.868-1.351-5.486-3.894a4.086,4.086,0,0,1-.5-3.71c1.669-4.954,43.556-68.223,50.683-76.172s9.618-4.636,9.618-4.636l155.072-1.245a10.487,10.487,0,0,1,1.351.664,35.263,35.263,0,0,1,11.471,10.835C562.086,170.317,601.828,231.915,601.828,231.915Z" data-name="Path 342" transform="translate(-325.434 -149.079)"/><path id="Path_343" fill="#473f97" d="M543.875,150.526a38,38,0,0,0-7.737,6.225c-4.636,5.3-52.221,77.285-52.221,77.285s-130.273,1.747-156.264,1.589a4.086,4.086,0,0,1-.5-3.71c1.669-4.954,43.556-68.223,50.683-76.172s9.618-4.636,9.618-4.636l155.072-1.245A10.5,10.5,0,0,1,543.875,150.526Z" data-name="Path 343" transform="translate(-325.968 -149.079)"/><path id="Path_344" fill="#372b7b" d="M604.388,234.444c-2.6-7.886-7.358-14.619-12.022-21.4q-8.407-12.231-16.816-24.464-8.222-11.958-16.444-23.921c-3.486-5.07-7.693-11.3-13.451-14.065l.078-.074c.214-.2-.006-.627-.3-.519-.179.067-.344.169-.519.242-.175-.073-.337-.175-.517-.242a.289.289,0,0,0-.372.272c-13.015-1.237-26.239-.623-39.3-.6q-20.125.036-40.248.069l-39.589.071c-12.6.022-25.508-.411-38.086.75l.05-.045c.216-.2-.006-.627-.3-.519a15,15,0,0,0-1.559.729c-.117.013-.234.019-.348.032a.5.5,0,0,0-.439.352c-5.029,2.887-8.831,8.413-11.992,13q-8.423,12.228-16.818,24.466-8.222,11.958-16.444,23.921c-4.783,6.958-9.724,13.849-12.4,21.945a1.269,1.269,0,0,0,1.39,1.645c3.563,3.083,9.685,1.632,13.94,1.468q10.541-.409,21.089-.688,20.436-.548,40.879-.647,41.45-.217,82.881,1.477a2.07,2.07,0,0,0-.273.781l-78.412-.045c-26.064-.015-52.158-.417-78.2.467l-.028.205a76.083,76.083,0,0,0,14.684,1.745c-.925,3.256-.415,7.451-.512,10.759-.125,4.234-.112,8.463-.11,12.7q.01,14.761.019,29.517.007,14.56.015,29.117c.006,8.467-.16,16.894.582,25.329a.777.777,0,0,0,1.553,0c.729-8.279.575-16.541.579-24.849q.01-14.8.017-29.6.01-14.52.019-29.043c0-4.394.02-8.781-.11-13.172-.1-3.319.415-7.462-.5-10.725,7.034.156,14.139-.205,20.976-.2l40.358.022q33.014.023,66.024.041a.492.492,0,0,0-.1.208c-.928,8.21-.458,16.677-.517,24.935-.069,9.484-.06,18.965-.067,28.451q-.02,26.476-.037,52.947H373.315c-8.742,0-17.7-.545-26.405.208a.777.777,0,0,0,0,1.552c7.842.679,15.89.205,23.765.205H477.928v.657a.983.983,0,0,0,1.965,0l0-.657h37.941a.543.543,0,0,0,.5,0h41.128c6.3,0,12.666.205,19,.115a1.282,1.282,0,0,0,2.266-.063c1.717-.045,3.436-.1,5.144-.205a.829.829,0,0,0,0-1.656l-.037,0a1.022,1.022,0,0,0,.419-.815c1.393-36.376,1.429-73.142-1.663-109.44a15.234,15.234,0,0,0,3.1.618,30.048,30.048,0,0,0,4.584.128,42.8,42.8,0,0,0,4.521-.4c.724-.1,1.475-.192,2.186-.365a8.978,8.978,0,0,0,1.066-.318,2.743,2.743,0,0,0,2.18-1.081C603.134,236.511,604.842,235.817,604.388,234.444Zm-236.8-.2q-9.889.276-19.774.659-4.943.191-9.884.413c-2.58.112-6.2.819-8.731-.285,2.67-8,7.7-14.844,12.411-21.739l15.259-22.325q7.628-11.164,15.259-22.327c2.121-3.105,4.143-6.3,6.368-9.33a54.857,54.857,0,0,1,6.928-7.442c12.792,1.31,25.96.856,38.806.876l40.248.071q19.794.032,39.589.069c12.258.022,24.66.554,36.905-.355-4,3.06-7.174,7.665-9.877,11.585q-8.423,12.228-16.818,24.466-8.222,11.958-16.442,23.921c-4.785,6.958-9.726,13.849-12.4,21.945a1.281,1.281,0,0,0-.061.521q-39.1-1.518-78.228-1.364Q387.363,233.692,367.585,234.243ZM474.858,347.29q-.016-26.476-.037-52.947c-.007-9.313,0-18.621-.061-27.934-.063-8.426.424-17.075-.523-25.452a.493.493,0,0,0-.1-.208l4.344,0c-.833,18.025-.517,36.092-.523,54.134q-.013,26.2-.028,52.4Zm87.249,0H523.818c1.034-7.053.275-14.68.247-21.77q-.055-12.854-.108-25.711c-.035-8.569-.007-17.14-.156-25.707q-.1-5.828-.2-11.657c-.06-3.516.149-7.12-.517-10.58h-.2c-.636,3.313-.45,6.751-.508,10.115q-.1,6.062-.21,12.122c-.147,8.567-.119,17.138-.154,25.707s-.071,17.142-.106,25.711c-.03,7.083-.787,14.721.247,21.77H518.92a73.07,73.07,0,0,0,.288-7.9c.127-3.812.24-7.622.3-11.434q.195-12.166.156-24.336c-.015-8.134-.08-16.267-.355-24.4q-.2-5.76-.452-11.514c-.149-3.319-.744-6.809-.7-10.121.151,0,.3,0,.454.009a.726.726,0,0,0,0-1.451c-4.11-.145-8.2-.205-12.314-.067q-3.016.1-6.035.26c-.964.052-1.931.093-2.9.162a20.683,20.683,0,0,1-3.377.428l.037.262a21.2,21.2,0,0,1,3.583.16c.967,0,1.931-.011,2.9-.009q3.02,0,6.035.063c3.788.074,7.574.1,11.36.179.322,3.276-.024,6.822.017,10.126q.075,5.757.078,11.514c.013,8.132.08,16.267.076,24.4q-.006,12.169-.214,24.336c-.065,3.812-.11,7.622-.195,11.434-.056,2.528-.4,5.3-.221,7.9H495.9c.61-6.783.283-13.711.314-20.518.035-7.985-.035-15.968-.076-23.953-.076-14.859.817-30.133-.887-44.908h-.309c-1.7,14.775-.811,30.049-.887,44.908-.041,7.985-.11,15.968-.073,23.953.028,6.8-.3,13.735.311,20.518H491.52c.551-7.369.145-14.909.149-22.3q.01-12.866.017-25.731c.013-15.659.523-31.459-.757-47.079a12.512,12.512,0,0,0,2.249.108l3.6.125c2.7.1,5.4.158,8.106.156l7.806-.006c1.3,0,2.605.039,3.9,0,1.41-.045,2.789-.437,4.2-.547a.26.26,0,0,0,0-.519c-1.412-.128-2.8-.543-4.2-.6-1.2-.048-2.4-.028-3.6-.043q-4.054-.049-8.106-.1c-2.605-.03-5.2-.007-7.806.054l-3.9.1a11.059,11.059,0,0,0-2.335.1c-.006-.069-.011-.138-.017-.208h-.205c-.009.1-.013.2-.022.294a2.053,2.053,0,0,0-.556.266v.448a2.1,2.1,0,0,0,.484.238c-1.3,15.666-.781,31.513-.77,47.219q.01,12.613.019,25.227c0,7.553-.417,15.261.149,22.8H479.9q.045-26.2.082-52.4c.028-18.042.378-36.105-.409-54.134q3.934,0,7.871,0a1.094,1.094,0,0,0,.29-.058,2.2,2.2,0,0,0,.787.182c2.759.074,5.319-5.17,6.642-6.945q8.76-11.738,17.108-23.774t16.269-24.356c1.937-3.014,3.905-6,5.864-8.984,8.34,10.576,16.991,20.967,24.377,32.241,3.365,5.131,6.448,10.446,9.884,15.531,1.5,2.223,3.072,4.4,4.748,6.5a30.907,30.907,0,0,0,5.014,5.563c-.852,18.472-.573,37.013-.588,55.5q-.019,27.52.471,55.038C572.907,347.141,567.485,347.29,562.107,347.29Zm18.686-.05c-.307-18.36-.454-36.722-.679-55.081-.225-18.293-.048-36.616-.768-54.9.126.071.244.156.372.218a.574.574,0,0,0,.779-.778c-1.326-2.389-3.782-4.314-5.509-6.454-2.026-2.519-3.877-5.168-5.652-7.864-3.505-5.334-6.705-10.861-10.26-16.163a295.189,295.189,0,0,0-23.99-30.442q1.654-2.523,3.276-5.068c7.356,10.682,15.24,21,22.775,31.565q11.527,16.165,22.148,32.946a.782.782,0,0,0-.64.858c1.719,36.776,2.476,73.741,1.436,110.547a.976.976,0,0,0,.294.757C583.183,347.324,581.989,347.27,580.793,347.24Zm15.761-111.767a38.7,38.7,0,0,1-4.435.547c-1.479.1-2.947.05-4.426.054-.709,0-1.429-.032-2.145-.03C571.5,213.3,556.676,190.083,538.7,170.182c2.024-3.17,4.017-6.359,5.9-9.631a1.058,1.058,0,0,0,.074-.216c11.616,14.331,21.828,29.588,32.01,44.951,5.075,7.652,9.97,15.421,14.989,23.11.873,1.336,3,4.928,5.339,6.982C596.859,235.411,596.707,235.445,596.554,235.473Zm-1.674-5.494q-1.683-2.475-3.341-4.967-3.321-4.985-6.582-10c-4.234-6.532-8.214-13.22-12.476-19.733-8.446-12.9-17.214-25.59-27.608-37.018a.694.694,0,0,0-1.191.549,1.111,1.111,0,0,0-1.137.543c-8.469,13.6-16.539,27.35-25.575,40.6q-6.675,9.789-13.622,19.385-3.474,4.8-7.014,9.548c-2.452,3.289-5.386,6.463-7.674,9.808a.988.988,0,0,0-.664-1.537,1.468,1.468,0,0,0-.132-1.7,1.368,1.368,0,0,0,.167-.292c2.657-8.057,7.721-14.937,12.459-21.871q7.632-11.16,15.259-22.325t15.259-22.327c2.121-3.105,4.143-6.3,6.368-9.33a51.994,51.994,0,0,1,6.471-7.01c.154-.015.309-.022.465-.037a.936.936,0,0,0,.856-.733,56.2,56.2,0,0,1,6.971,7.358c2.346,3.157,4.456,6.506,6.677,9.752q7.629,11.164,15.259,22.327t15.259,22.325c4.452,6.515,9.164,12.993,11.925,20.431l-.011.013C599.28,237.4,595.427,230.786,594.88,229.979Z" data-name="Path 344" transform="translate(-326.478 -149.5)"/><path id="Path_345" fill="#372b7b" d="M463.9,198.532c-3.068-.958-6.725-.865-9.92-1.085q-5.287-.363-10.589-.452a145.708,145.708,0,0,0-20.7,1.258,1.079,1.079,0,0,0-1.488-.56l.035.262c1.181-.1.588,5.1.567,5.708-.069,2.082-.033,4.169-.024,6.255q.026,6.017.05,12.033.052,12.273.1,24.55a.994.994,0,0,0,1.894.376c6.063.664,12.234.532,18.329.621,6.474.1,12.954.115,19.415-.3a.311.311,0,0,0,0-.621c-6.457-.515-12.939-.608-19.415-.618-6.069-.011-12.212-.242-18.26.314q-.208-14.569-.413-29.136c-.069-4.813-.032-9.637-.294-14.442a17.211,17.211,0,0,0-.264-3.892c6.675-.262,13.382-.262,20.059-.162q5.1.075,10.184.4c3.423.223,7.144,1.053,10.554.8A.676.676,0,0,0,463.9,198.532Z" data-name="Path 345" transform="translate(-216.39 -94.318)"/><path id="Path_346" fill="#372b7b" d="M441.991,209.71c0-3.6.37-7.935-.934-11.35h-.2c-1.308,3.425-.936,7.732-.936,11.35v12.266c0,8.173-.251,16.379.361,24.531a.674.674,0,0,0,1.347,0c.614-8.152.361-16.357.361-24.531Z" data-name="Path 346" transform="translate(-194.687 -92.712)"/><path id="Path_347" fill="#372b7b" d="M443.321,187.026l-.009.022-.41-.041v.1l.411-.038.042.08.094.039.129-.114-.094-.145Z" data-name="Path 347" transform="translate(-191.165 -105.993)"/><path id="Path_348" fill="#372b7b" d="M435.865,193.115l.566-.028a1.3,1.3,0,0,0,.4.242,1.249,1.249,0,0,0,1.191-.324l.35-.017a5.615,5.615,0,0,0,2.244-.335.483.483,0,0,0,.279-.454.99.99,0,0,0,.977-.984c-.145-1.9-.2-3.8-.3-5.7q-.078-1.395-.076-2.794a4.339,4.339,0,0,0-.264-2.489l-.082-.011a1.47,1.47,0,0,0-.1.13.8.8,0,0,0-.536-.642,21.109,21.109,0,0,0-5.112-.346l-5.3-.179c-3.529-.115-7.07-.041-10.6-.043a.662.662,0,0,0-.489,1.1.571.571,0,0,0-.551.435,27.641,27.641,0,0,0-.61,5.717,19.611,19.611,0,0,0,.835,5.741.932.932,0,0,0,1.8-.5,32.272,32.272,0,0,1-.7-10.783.488.488,0,0,0-.117-.361c3.475.234,6.954.536,10.435.653l5.3.177c.247.009.5.026.752.041-.192,1.2-.411,2.409-.517,3.615-.11,1.278-.121,2.573-.149,3.853a13.886,13.886,0,0,0,.009,2.681c-1.622.061-3.235.136-4.852.255q-5.024.37-10.042.735c-.592.043-.608.941,0,.932q5.115-.071,10.234-.143C432.52,193.275,434.189,193.2,435.865,193.115Zm1.313-1.658-.1,0,.009-.019h.214A.744.744,0,0,0,437.178,191.457Zm3.343-10.15c.028-.006.037-.032.063-.041-.117.458-.16.958-.236,1.405-.154.908-.283,1.823-.391,2.735a29.6,29.6,0,0,0-.045,5.808,1.326,1.326,0,0,0,.043.184,10.841,10.841,0,0,0-1.966.03l-.251.009a1,1,0,0,0-.164-.035l-.1-.21a6.624,6.624,0,0,1-.071-1.284c-.039-.925-.067-1.855-.082-2.783-.035-1.9-.138-3.8-.216-5.7A12.315,12.315,0,0,0,440.52,181.307Z" data-name="Path 348" transform="translate(-220.269 -115.075)"/><g id="Group_181" data-name="Group 181" transform="translate(104.532 111.69)"><path id="Path_349" fill="#473f97" d="M375.307,201.674l-.363,20.364,20.883-20.883C393.74,201.138,375.307,201.674,375.307,201.674Z" data-name="Path 349" transform="translate(-374.68 -201.154)"/><path id="Path_350" fill="#473f97" d="M396.994,205.795c-7.607,8.039-14.906,16.5-22.148,24.17l-.024,1.341,1.615-.117,20.615-20.613C397.041,208.935,397.022,207.317,396.994,205.795Z" data-name="Path 350" transform="translate(-374.822 -195.761)"/><path id="Path_351" fill="#b7b7ff" d="M396.2,212.478c0-1.483,0-2.986-.013-4.472l-20.615,20.613,4.508-.32A112.114,112.114,0,0,1,396.2,212.478Z" data-name="Path 351" transform="translate(-373.954 -193.191)"/><path id="Path_352" fill="#473f97" d="M393.774,210.074a112.119,112.119,0,0,0-16.12,15.821l15.99-1.139S393.769,217.733,393.774,210.074Z" data-name="Path 352" transform="translate(-371.531 -190.788)"/><path id="Path_353" fill="#b7b7ff" d="M396.105,201.155c-.028,0-.106,0-.149,0l-20.883,20.883-.24,13.319c7.241-7.665,14.541-16.13,22.148-24.17C396.871,205.569,396.622,201.171,396.105,201.155Z" data-name="Path 353" transform="translate(-374.809 -201.155)"/></g><path id="Path_354" fill="#372b7b" d="M373.194,244.255a.452.452,0,0,0,.787.29,3.408,3.408,0,0,0,1.261.4c.727.076,1.483.035,2.214.052q1.9.042,3.795.086c2.848.067,5.691.032,8.541.011l8.223-.061a53.566,53.566,0,0,0,8.059-.225.574.574,0,0,0,0-1.1c-.154-.024-.311-.028-.465-.05.737-7.434.247-15.06.208-22.531-.017-3.76.03-7.529-.065-11.287a62.349,62.349,0,0,0-.668-10.128.4.4,0,0,0-.253-.709c-5.287-.376-10.593-.64-15.89-.575q-3.973.045-7.946.093a39.534,39.534,0,0,0-7.471.4.519.519,0,0,0-.249.832c-.707,7.308-.419,14.744-.469,22.085C372.753,229.282,372.247,236.86,373.194,244.255Zm15.746-43.85c5.2.063,10.422-.195,15.616-.558a64.236,64.236,0,0,0-.651,9.992c-.1,3.758-.045,7.529-.065,11.287-.037,7.416-.517,14.991.2,22.373-1.9-.106-3.831,0-5.711-.017l-8.539-.063c-2.742-.019-5.483-.058-8.223,0q-2.06.049-4.113.1c-.631.013-1.267.017-1.9.043a2.711,2.711,0,0,0-1.4.335c.886-7.28.411-14.734.359-22.061-.05-7.261.223-14.612-.452-21.843a45.149,45.149,0,0,0,6.93.32Z" data-name="Path 354" transform="translate(-272.846 -92.647)"/><path id="Path_355" fill="#372b7b" d="M390.356,202.233c.716.013,1.447.069,2.16.011.882-.076,1.773-.27,2.647-.4a.311.311,0,0,0,0-.6c-.874-.132-1.766-.327-2.647-.4a21.175,21.175,0,0,0-2.16.007q-2.559.049-5.118.091a73.381,73.381,0,0,0-9.873.5v.2a72.66,72.66,0,0,0,9.873.5Q387.8,202.191,390.356,202.233Z" data-name="Path 355" transform="translate(-269.659 -89.854)"/><path id="Path_356" fill="#372b7b" d="M376.373,236.7c.006-.063.006-.125.013-.188a81.113,81.113,0,0,0,10.753.435,78.3,78.3,0,0,0,11.121-.822c.586-.1.43-1.012-.138-1.016-.326,0-.655.011-.982.015a64.573,64.573,0,0,0,.065-7.626q-.033-4.388-.065-8.779c-.043-5.873-.037-11.706-.506-17.562h-.309c-.469,5.855-.463,11.689-.506,17.562q-.032,4.392-.065,8.779a64.489,64.489,0,0,0,.067,7.648c-2.964.087-5.935.322-8.9.352-3.5.037-6.984.149-10.478.221.528-5.693.223-11.508.212-17.218q-.01-4.55-.017-9.1a39.972,39.972,0,0,0-.156-4.2,8.326,8.326,0,0,0-.735-3.527h-.091a8.256,8.256,0,0,0-.737,3.527,40.615,40.615,0,0,0-.156,4.2q-.01,4.55-.015,9.1c-.013,6.037-.385,12.2.279,18.2A.674.674,0,0,0,376.373,236.7Z" data-name="Path 356" transform="translate(-270.511 -89.464)"/><path id="Path_357" fill="#372b7b" d="M350.686,244.255a.452.452,0,0,0,.787.29,3.408,3.408,0,0,0,1.261.4c.727.076,1.485.035,2.214.052q1.9.042,3.795.086c2.848.067,5.693.032,8.541.011l8.225-.061a53.574,53.574,0,0,0,8.059-.225.574.574,0,0,0,0-1.1c-.153-.024-.311-.028-.465-.05.737-7.434.244-15.06.208-22.531-.019-3.76.028-7.529-.065-11.287a62.343,62.343,0,0,0-.67-10.128.4.4,0,0,0-.253-.709c-5.285-.376-10.593-.64-15.89-.575q-3.973.045-7.946.093a39.543,39.543,0,0,0-7.471.4.519.519,0,0,0-.246.832c-.709,7.308-.419,14.742-.471,22.085C350.244,229.282,349.739,236.86,350.686,244.255Zm15.746-43.85c5.2.063,10.422-.195,15.616-.558a64.216,64.216,0,0,0-.649,9.992c-.1,3.758-.045,7.529-.065,11.287-.037,7.416-.519,14.991.2,22.373-1.9-.106-3.832,0-5.708-.017l-8.541-.063c-2.742-.019-5.481-.058-8.223,0q-2.056.049-4.113.1c-.631.013-1.265.017-1.9.043a2.717,2.717,0,0,0-1.4.335c.889-7.28.411-14.734.359-22.061-.05-7.261.225-14.612-.452-21.843a44.9,44.9,0,0,0,6.93.32Z" data-name="Path 357" transform="translate(-299.006 -92.647)"/><path id="Path_358" fill="#372b7b" d="M367.747,202.215a20.638,20.638,0,0,0,2.314,0c.865-.08,1.734-.264,2.593-.394a.311.311,0,0,0,0-.6,27.581,27.581,0,0,0-4.714-.394q-2.608.049-5.211.093a73.342,73.342,0,0,0-9.871.5v.2a72.639,72.639,0,0,0,9.871.5C364.4,202.155,366.074,202.187,367.747,202.215Z" data-name="Path 358" transform="translate(-295.818 -89.838)"/><path id="Path_359" fill="#372b7b" d="M353.864,236.7c.007-.063.007-.125.015-.188a81.113,81.113,0,0,0,10.753.435,78.291,78.291,0,0,0,11.118-.822c.586-.1.432-1.012-.138-1.016-.327,0-.653.011-.982.015a64.534,64.534,0,0,0,.065-7.626q-.032-4.388-.065-8.779c-.043-5.873-.035-11.706-.5-17.562h-.311c-.469,5.855-.461,11.689-.5,17.562q-.033,4.392-.065,8.779a63.993,63.993,0,0,0,.067,7.648c-2.967.084-5.935.322-8.9.352-3.5.037-6.982.149-10.476.221.525-5.693.221-11.508.21-17.218q-.006-4.55-.017-9.1a39.41,39.41,0,0,0-.156-4.2,8.262,8.262,0,0,0-.737-3.527h-.089a8.222,8.222,0,0,0-.735,3.527,39.455,39.455,0,0,0-.156,4.2q-.01,4.55-.017,9.1c-.011,6.037-.385,12.2.281,18.2A.673.673,0,0,0,353.864,236.7Z" data-name="Path 359" transform="translate(-296.671 -89.464)"/><path id="Path_360" fill="#372b7b" d="M456.281,219.988h-.028a170.793,170.793,0,0,0-1.377-18.848c.474.006.951,0,1.427,0s.452-.672,0-.724a175.64,175.64,0,0,0-32.233-.616c-.854.063-.874,1.364,0,1.345,3.868-.071,7.739-.052,11.607-.048a45.527,45.527,0,0,0-1.693,4.351,58.562,58.562,0,0,1-2.484,5.462,74.923,74.923,0,0,1-6.03,9.923.578.578,0,0,0,.011.763l-.279.039c-.1-6.686-.385-13.365-1.072-20.005a.31.31,0,0,0-.621,0c-.154,12.573.21,25.145-.141,37.723a.878.878,0,0,0,1.5.6c1.738.223,3.477.409,5.215.573.058.236.117.474.173.711.294,1.228,2.193.709,1.9-.523v0c2.759.21,5.522.324,8.3.283,2.009-.028,4.015-.132,6.022-.238a1.033,1.033,0,0,0,2,.482c.056-.192.112-.385.166-.579,1.855-.121,3.706-.3,5.557-.484a.843.843,0,0,0,1.578-.138c.182-.019.363-.028.543-.048.584-.065.608-.975,0-.932-.153.011-.307.013-.458.022.329-5.849.491-11.754.406-17.657.119-.061.238-.128.346-.188A.677.677,0,0,0,456.281,219.988Zm-2.631.1a5.527,5.527,0,0,1-1.6-.465,3.446,3.446,0,0,1,1.124-.541c.154.171.3.35.461.508a.561.561,0,0,0,.9-.634.165.165,0,0,0,.032,0,.379.379,0,0,0,.42-.253c0,.458.03.917.032,1.375l-.043.007-.043,0A7.03,7.03,0,0,1,453.649,220.085Zm1.328-1.665a.333.333,0,0,0-.221-.164,4.2,4.2,0,0,0-.677-.08c-.77-1.3-1.68-2.541-2.463-3.834q-1.359-2.244-2.539-4.59c-1.421-2.824-2.776-5.708-3.97-8.64,3.049,0,6.1-.009,9.142.026C454.653,206.923,454.9,212.673,454.977,218.42Zm-28.719,3.972v0l-.063-.052Zm-1.124,16.427c.091-5.209.13-10.431.076-15.65a1.037,1.037,0,0,0,.528.441.861.861,0,0,0,.878-.238q.765,4.278,1.527,8.554c.43,2.411,1.012,4.789,1.594,7.168C428.2,239.009,426.662,238.929,425.134,238.819Zm6.664.4c-.61-2.6-1.2-5.2-1.976-7.756q-1.375-4.544-2.75-9.09l.238-.03.236-.309a.522.522,0,0,0-.361-.636c-.1-.017-.205-.028-.309-.041a51.664,51.664,0,0,0,6.1-10q1.158-2.569,2.086-5.233a18.319,18.319,0,0,0,1.284-5.025c1.28,0,2.562.009,3.842,0,1.228-.011,2.456.015,3.684.011a47.334,47.334,0,0,0,3.7,9.328q1.281,2.384,2.757,4.66c.685,1.057,1.382,2.184,2.175,3.2a4.387,4.387,0,0,0-1.868,1.077.584.584,0,0,0,.115.9,6.818,6.818,0,0,0,2.385,1.124c-2.311,5.935-4.253,12-6.242,18.048Q439.347,239.59,431.8,239.219Zm17.214.195c1.717-5.933,3.468-11.847,4.859-17.864a6.816,6.816,0,0,0,1.1.117l.03,0c-.006,5.821-.236,11.646-.783,17.5C452.486,239.264,450.752,239.361,449.011,239.413Z" data-name="Path 360" transform="translate(-213.869 -91.571)"/><path id="Path_361" fill="#372b7b" d="M409.187,225.1c.028.007.039.028.069.032l2.009.225c.664.076,1.345.052,2.011.065,1.17.019,2.342.054,3.512.058a.765.765,0,0,0,1.418-.112,22.18,22.18,0,0,0,.117-5.224q-.013-2.822-.024-5.646a52.61,52.61,0,0,0-.74-10.69h-.2c-.007.037-.011.076-.017.112a.518.518,0,0,0-.432-.2c-1.377.045-2.75-.024-4.126.032a35.752,35.752,0,0,1-4.113-.061.374.374,0,0,0-.389.335c-.035-.262-.05-.525-.089-.787s-.385-.16-.4.054c-.683,7.051-.32,14.258-.1,21.328A.841.841,0,0,0,409.187,225.1Zm-.627-20.6a37.69,37.69,0,0,0,4.223.662,18.539,18.539,0,0,0,4.29-.229c.056-.006.071-.054.117-.074a59.148,59.148,0,0,0-.573,9.637l-.019,5.436c0,1.2-.141,2.545-.086,3.816-1.079.011-2.158.039-3.235.056-.64.011-1.291-.007-1.929.054-.67.065-1.341.151-2.011.227a174.233,174.233,0,0,0-1.027-19.819A.333.333,0,0,0,408.56,204.5Z" data-name="Path 361" transform="translate(-232.434 -87.221)"/><path id="Path_362" fill="#372b7b" d="M408.366,236.89l0-.067q.5.02,1,.032c.575.015,1.159-.054,1.734-.091q.833-.052,1.669-.108c.277-.019.558-.03.835-.056a3.2,3.2,0,0,0,.956-.3.627.627,0,0,0-.149-1.135,2.849,2.849,0,0,0-1.012-.08c-.255.035-.508.071-.763.108l-1.715.24c-.547.078-1.111.125-1.648.249-.283.067-.567.138-.848.208.169-2.763.4-5.542.406-8.3q.016-4.654.039-9.3a.362.362,0,0,0-.724,0q-.311,4.654-.625,9.3c-.208,3.083-.138,6.21-.195,9.3A.518.518,0,0,0,408.366,236.89Z" data-name="Path 362" transform="translate(-232.508 -69.964)"/><path id="Path_363" fill="#372b7b" d="M416.09,218.427a.514.514,0,0,0-.512-.363q-3.552.1-7.107.208a.414.414,0,0,0,0,.828l7.107.205c.069,0,.1-.048.156-.065a61.672,61.672,0,0,1-1.581,16.848.57.57,0,0,0,1.1.3,41.429,41.429,0,0,0,1.479-8.7,52.535,52.535,0,0,0-.387-8.993A.315.315,0,0,0,416.09,218.427Z" data-name="Path 363" transform="translate(-231.647 -69.811)"/><path id="Path_364" fill="#372b7b" d="M423.678,165.244l8.024-10.733,56.556,74.652s-17.592,3.345-16.638,2.2S423.678,165.244,423.678,165.244Z" data-name="Path 364" transform="translate(-213.507 -143.676)"/><path id="Path_365" fill="#473f97" d="M405.755,202.679c.744-.249,19.374.247,19.374.247l-.249,87.433,2.154-.381s2.752-91.016,1.17-91.145-23.938.368-23.938.368Z" data-name="Path 365" transform="translate(-236.07 -92.188)"/></g></g></g></g></g></svg>