<svg xmlns="http://www.w3.org/2000/svg" xmlns:xlink="http://www.w3.org/1999/xlink" width="348.127" height="373.547" viewBox="0 0 348.127 373.547"><defs><clipPath id="clip-path"><circle id="Ellipse_18" cx="138.416" cy="138.416" r="138.416" fill="none" data-name="Ellipse 18" transform="translate(0 273.109) rotate(-80.592)"/></clipPath></defs><g id="Component_19_1" data-name="Component 19 – 1" transform="translate(0 0)"><g id="Group_782" data-name="Group 782" transform="translate(-32.784 -119.077)"><g id="Component_17_1" data-name="Component 17 – 1" transform="translate(32.784 119.077)"><path id="Path_209" fill="#ff8bb5" d="M45.848,66.386C56.822,55.412,132.725-25.063,197.654,7.858S293.675,80.1,329.34,154.177c11.48,29.414,19.2,116.14-86.876,184.727s-184.727-35.665-196.616-50.3S-51.088,187.1,45.848,66.386Z" data-name="Path 209" opacity=".099" transform="matrix(-0.999, -0.035, 0.035, -0.999, 335.492, 373.547)"/></g></g><g id="Component_18_1" data-name="Component 18 – 1" transform="translate(15.216 27.68)"><g id="Group_783" data-name="Group 783" transform="translate(-48 -146.757)"><circle id="Ellipse_17" cx="138.416" cy="138.416" r="138.416" fill="#ff8bb5" data-name="Ellipse 17" transform="translate(48 419.867) rotate(-80.592)"/></g><g id="Group_171" data-name="Group 171" transform="translate(195.014 28.787)"><path id="Path_262" fill="#77f" d="M286.559,137.382l9.7.189c1.35.028,2.961-.084,3.646-1.247s-.073-2.723-1.232-3.4a7.711,7.711,0,0,0-3.91-.7l-15.289-.019a38.336,38.336,0,0,0-9.766.828,4.2,4.2,0,0,0-2.148,1.1,1.684,1.684,0,0,0-.116,2.219,2.468,2.468,0,0,0,1.294.549,58.7,58.7,0,0,0,12.641,1.193c-.034.719-.112,1.476-.182,2.24h5.686A10.182,10.182,0,0,1,286.559,137.382Z" data-name="Path 262" transform="translate(-266.286 -131.388)"/><path id="Path_263" fill="#372b7b" d="M283.261,139.729a.964.964,0,0,0-.35-.706c1.142-.026,2.281-.064,3.421-.109-.077.288-.157.575-.225.863a5.948,5.948,0,0,0-.137,1H287.7a6.183,6.183,0,0,0-.14-1c-.073-.3-.154-.605-.236-.906a98.61,98.61,0,0,0,11.435-1.092,1.025,1.025,0,0,0,.352-.049c.2-.034.4-.051.594-.086a.886.886,0,0,0,.734-.815c.972-.91,1.609-2.148.773-3.463-1.067-1.68-3.371-1.554-5.1-1.519q-9.08.19-18.154.674c-2.815.15-5.708.161-8.5.532-1.678.223-3.049,1.333-2.691,3.174.408,2.112,2.493,2.757,4.384,2.865,2.9.167,5.837.045,8.74,0,.609-.009,1.221-.028,1.83-.039a.914.914,0,0,0-.32.68c0,.35-.009.7-.013,1.051h1.884Zm-7.478-2.65c-1.367-.011-2.74-.009-4.107-.077a5.781,5.781,0,0,1-1.792-.215c-.719-.275-1.644-1.088-.395-1.564,1.024-.391,2.6-.163,3.7-.221q1.912-.1,3.82-.187,4.139-.19,8.279-.315,3.821-.122,7.643-.187c1.275-.021,2.549-.047,3.824-.051,1.026-.006,3.489.056,1.494,1.393l-.021.021c-4.847.406-9.682.955-14.542,1.221Q279.734,137.109,275.782,137.079Z" data-name="Path 263" transform="translate(-266.71 -131.828)"/></g><g id="Group_174" clip-path="url(#clip-path)" data-name="Group 174"><g id="Group_173" data-name="Group 173" transform="translate(34.965 37.739)"><path id="Path_264" fill="#77f" d="M273.606,137.205c0,.238,0,.483.017.717C273.915,137.8,273.864,137.338,273.606,137.205Z" data-name="Path 264" transform="translate(-98.76 -134.619)"/><path id="Path_265" fill="#77f" d="M330.261,155.12a14.235,14.235,0,0,0-.38-4.405,5.225,5.225,0,0,0-2.689-3.36,110.649,110.649,0,0,1-12.749,1.807c.318-.972-.524-1.762-.657-2.775a12.791,12.791,0,0,0-2.77-.277l-.041-.575c-.118-1.654-.9-2.905-1-4.56a2.845,2.845,0,0,0-.644-1.987,2.5,2.5,0,0,0-1.275-.53,11.081,11.081,0,0,0-4.343.049,14.392,14.392,0,0,0-.391-2.506h-5.686a23.494,23.494,0,0,0-.118,2.586c.258.133.309.6.017.717-.021-.234-.013-.479-.017-.717-.034-.019-.06-.052-.1-.054a38.882,38.882,0,0,0-6.309,1.234,2.212,2.212,0,0,0-1.371.7,2.3,2.3,0,0,0-.242,1.549l.264,3.309a28.717,28.717,0,0,0-5.225.013.587.587,0,0,0-.408.131.551.551,0,0,0-.1.4,4.623,4.623,0,0,0,.8,2.446l.019.017.556.058c.015.255-.393.148-.556-.058-6.39-.687-13.566-1.2-19.077,2.017a25.115,25.115,0,0,0-5.725,4.946,16.238,16.238,0,0,0-4.017,6.4,18.459,18.459,0,0,0-.032,7.116l-1.474,1.742a4.815,4.815,0,0,0-1.777,2.768,3.193,3.193,0,0,0,1.543,2.822,8.492,8.492,0,0,0,3.176,1.088c4.665.875,9.611,1.129,14.045-.567a4.444,4.444,0,0,0,2.528-1.893,2.52,2.52,0,0,0-2.348-3.654,5.932,5.932,0,0,1,1.021-4.268,7.77,7.77,0,0,1,3.3-2.268c3.159-1.219,6.667-.966,10.043-.7-.331.272.343.91.624,1.232a2.024,2.024,0,0,0,1.133.554c2.335.517,4.755,0,7.113-.388a64.15,64.15,0,0,1,16-.6,5.72,5.72,0,0,0,3.221-.313c.966-.519,1.509-1.951.747-2.738,4.167-.494,7.68-1.069,11.847-1.562a8.6,8.6,0,0,1,2.938-.011.551.551,0,0,1,.15.056C330.853,158.619,330.218,156.937,330.261,155.12Z" data-name="Path 265" transform="translate(-122.675 -136)"/><path id="Path_266" fill="#77f" d="M268.256,141.806l-.556-.058C267.863,141.954,268.271,142.061,268.256,141.806Z" data-name="Path 266" transform="translate(-105.527 -129.414)"/><path id="Path_267" fill="#e1e1ff" d="M256.023,170.207a2.975,2.975,0,0,1,2.564-5.253c-.131-4.33-.167-8.991,2.285-12.562a14.616,14.616,0,0,1,5.562-4.536A24.763,24.763,0,0,1,282.1,145.65q.254-1.014.513-2.028,14.858-.241,29.692-1.238a9.981,9.981,0,0,1-.29,5.579l-29.958.253-.528,3.2a36.086,36.086,0,0,0-9.643-.352,12.189,12.189,0,0,0-8.27,4.511c-1.809,2.511-2.2,5.749-2.4,8.837a2.106,2.106,0,0,1,1.968-.3,24.462,24.462,0,0,1-.268,5.5Z" data-name="Path 267" transform="translate(-120.253 -128.685)"/><g id="Group_172" data-name="Group 172"><path id="Path_268" fill="#77f" d="M252.829,234.562c.135-6.079-1.891-7.161-4.189-7.431-5-4.457-5.944-7.294-2.026-9.592s8.781,1.893,8.51,1.352-5.538-5.4-3.513-8.51,16.212,6.079,16.212,6.079S266.2,174.582,265.8,168.1s-1.485-13.238-1.485-13.238a102.768,102.768,0,0,0,10.942,1.215,28.04,28.04,0,0,0,6.214-.27l2.972,52.415s5.538-11.212,11.618-10.4,2.7,7.025,2.7,7.025,3.378-6.214,9.457-3.513-1.082,13.1-1.082,13.1-5.674-4.863-10.671-.944c-2.161-5.27-11.347-7.161-15.536-1.757a11.78,11.78,0,0,0-2.026,10.944s-5.133-.135-5.538,2.837c-4.863-.676-9.186-.27-11.618,9.59C256.477,232.264,252.829,234.562,252.829,234.562Z" data-name="Path 268" transform="translate(-132.464 -114.39)"/><path id="Path_269" fill="#e1e1ff" d="M264.909,182.508a12.472,12.472,0,0,1,3.736-3.77,2.9,2.9,0,0,1,2.691-.551c1.163.545,1.24,2.118,1.5,3.375a4.426,4.426,0,0,0,1.307,2.472,2.579,2.579,0,0,0,2.644.526c1.039-.451,1.515-1.622,2.011-2.642a15.228,15.228,0,0,1,3.551-4.682,4.251,4.251,0,0,1,3.051-1.35c1.815.169,2.826,2.268,2.845,4.092.03,3.124-1.73,5.948-3.427,8.571a6.322,6.322,0,0,1-.092-2.856c.039-.963-.354-2.133-1.3-2.3a2.361,2.361,0,0,0-1.869.865c-1.9,1.777-3.644,3.916-6.118,4.714a3.255,3.255,0,0,1-1.953.109,4.875,4.875,0,0,1-2.09-1.839,9.186,9.186,0,0,0-2.97-2.56,4.6,4.6,0,0,0-3.82-.225,12.631,12.631,0,0,1-1.624.489Z" data-name="Path 269" transform="translate(-110.936 -90.309)"/><path id="Path_270" fill="#e1e1ff" d="M258.258,156.092c0,.607.406,34.044,1.62,29.585s1.622-30.6,1.622-30.6Z" data-name="Path 270" transform="translate(-116.346 -114.138)"/><path id="Path_271" fill="#e1e1ff" d="M257.952,156.254s2.4,38.748,2.8,48.878,3.039-5.875,3.444-12.562,1.622,29.585,1.622,29.585-3.446.4-4.054,3.646l-3.648-.607L253.6,155.43Z" data-name="Path 271" transform="translate(-121.679 -113.736)"/><path id="Path_272" fill="#fff" d="M232.542,240.045s16.482-5.944,25.128-11.077,41.067-28.641,46.471-32.151,10.806-6.755,14.319-3.242.27,7.294-3.513,10.807-28.639,25.937-28.639,25.937,13.238-7.834,21.345-12.429,21.883-14.049,24.855-15.669,2.7-1.217,2.7-1.217.27-4.592-3.781-3.916l-6.485,1.079s.676-18.911-15.13-13.373c-4.189-7.837-12.97-4.729-15.4-1.217s-2.972,10.268-2.972,10.268-3.378.539-4.727,2.972c-2.7-.27-9.051,2.3-10.268,5.133s-1.079,3.783-1.079,3.783-7.161-1.622-9.186.135c-1.217,6.753-10,14.858-18.238,18.371S232.407,238.558,232.542,240.045Z" data-name="Path 272" transform="translate(-145.815 -85.696)"/><path id="Path_273" fill="#e1e1ff" d="M261.441,233.793s16.444-9.753,32.016-19.049,17.158-11.347,17.291-11.753.27-6.888-3.916-7.023c-14.049,11.482-48.228,38.1-48.228,38.1Z" data-name="Path 273" transform="translate(-115.95 -67.286)"/><path id="Path_274" fill="#e1e1ff" d="M288,192.367c.27-.406,10.268-4.457,13.781-4.457s3.781,2.835,3.781,2.835-25.667,16.617-28.368,18.643-18.914,10.942-18.778,10.4S288,192.367,288,192.367Z" data-name="Path 274" transform="translate(-116.167 -76.519)"/><path id="Path_275" fill="#e1e1ff" d="M264.845,205.711a11.842,11.842,0,0,1,10.673,2.028c.676-5.538,11.212-7.972,11.212-7.972-.135-4.592,9.051-5,9.051-5,1.082-11.212,10.4-13.508,12.834-10.4-4.324,4.594-4.324,5.541-4.324,5.541s5.674-6.35,11.753-4.865,9.727,6.62,9.457,8.377-.811,1.755-.811,1.755l-5.268,1.62s2.7-5.674-2.3-7.7-6.62,1.217-13.646,5.538-36.473,24.317-39.175,26.072-15.266,10.942-19.59,12.429-12.427,4.592-12.427,4.592,1.891-7.294,8.1-11.212,19.182-9.725,21.074-12.834A42.673,42.673,0,0,0,264.845,205.711Z" data-name="Path 275" transform="translate(-146.102 -82.029)"/><path id="Path_276" fill="#fff" d="M194.589,279.656c37.13-21.8,50.91-46.389,58.2-55.575s35.394-19.452,40.258-23.506,12.156-7.564,14.049-7.835,5.133,1.35,3.242,7.294S299,215.975,290.348,220.3s-13.779,8.107-14.858,14.86c10.266-3.781,28.1-14.049,35.932-19.993s31.072-19.182,34.853-23.776,14.59-8.375,16.753-4.322-1.622,11.077-12.158,18.1-21.074,18.911-21.074,18.911,17.562-8.646,23.506-13.238S377.39,191.3,385.181,194.9c3.513,1.622-1.62,11.347-5.944,14.319S345.2,235.968,343.3,237.859s-12.7,9.457-12.7,9.457a132.282,132.282,0,0,0,23.506-11.347c10.536-6.755,22.154-17.021,25.667-18.911s11.888-2.972,9.457,4.592-14.59,20.263-21.345,25.126-23.506,16.753-27.827,19.725a29.637,29.637,0,0,0-6.214,5.4s12.427-5.133,18.641-10.268,19.184-11.888,23.506-10.807,4.053,3.783-1.079,8.375-15.671,13.779-22.426,17.562S317.366,299.46,299,302.432s-51.335,7.3-58.09,11.349-13.508,7.834-13.508,7.834Z" data-name="Path 276" transform="translate(-189.302 -79.459)"/><path id="Path_277" fill="#e1e1ff" d="M297.827,185.9c2.7,6.214-24.317,24.317-30.261,28.1s-21.074,17.023-18.643,18.914,7.566-1.891,7.566-1.891,34.853-27.559,39.177-31.883S306.743,187.515,297.827,185.9Z" data-name="Path 277" transform="translate(-127.343 -78.828)"/><path id="Path_278" fill="#e1e1ff" d="M312.9,189.169c2.161,2.7-2.163,8.1-10,14.858s-42.419,31.072-46.47,34.314-4.054,10.266,6.214,4.592,44.039-32.422,48.631-38.1S324.513,193.761,312.9,189.169Z" data-name="Path 278" transform="translate(-121.337 -75.076)"/><path id="Path_279" fill="#e1e1ff" d="M317,199.367c.27,4.863-18.643,25.128-30.261,31.072s-29.179,19.723-31.34,23.235,5.674,2.161,13.508-2.433,31.072-21.072,35.123-25.667S325.105,205.311,317,199.367Z" data-name="Path 279" transform="translate(-120.039 -63.391)"/><path id="Path_280" fill="#e1e1ff" d="M372.9,215.861c-.27,2.972-30.8,26.207-50.254,34.042s-58.629,7.566-75.92,10.268-49.443,23.506-49.443,23.506l12.97,8.646s34.853-19.723,52.685-20.534,41.338-1.891,69.435-19.452,42.149-28.641,43.5-32.151S372.9,215.861,372.9,215.861Z" data-name="Path 280" transform="translate(-186.21 -44.491)"/><path id="Path_281" fill="#e1e1ff" d="M244.871,227.5s-18.373,9.727-18.373,8.916,2.972-13.778,13.508-21.613,30.531-17.023,32.692-25.128c.541,9.727-7.834,17.832-15.13,21.886S236.764,224.525,244.871,227.5Z" data-name="Path 281" transform="translate(-152.739 -74.5)"/><path id="Path_282" fill="#e1e1ff" d="M192.125,267.053c21.345-13.238,41.608-27.287,48.093-38.366s8.375-14.59,17.291-19.182,43.413-24.4,44.805-23.684S301.548,196,300.737,196s-29.45,11.347-37.014,21.072a313.453,313.453,0,0,1-24.046,27.559c-9.457,9.727-38.906,33.771-38.906,33.771Z" data-name="Path 282" transform="translate(-192.125 -78.933)"/><path id="Path_283" fill="#372b7b" d="M385.766,247.1c-.122-.011-.238,0-.358,0v-.021a7.873,7.873,0,0,0-.687-2.4,7.1,7.1,0,0,0-2.189-2.676,25.548,25.548,0,0,0,2.425-2.772c1.73-2.322,3.358-5.579,2.7-8.562-.783-3.547-4.661-4.757-7.907-4.356-.039,0-.073.019-.112.024a1.148,1.148,0,0,0,0-.393c-.333-1.7-2.146-2.283-3.674-2.3a23.9,23.9,0,0,0-5.948.91c-.107.026-.21.075-.318.1.1-4.393-.785-9.088-3.953-12.206a6.161,6.161,0,0,0,1.657-1.76,13.912,13.912,0,0,0,1.948-3.8,7.744,7.744,0,0,0-.974-6.884,6.2,6.2,0,0,0-6.749-1.976,9.8,9.8,0,0,0-3.936,2.307,7.328,7.328,0,0,0-.343-2.245,4.594,4.594,0,0,0-5.011-3.1c-2.478.307-4.759,1.994-6.476,3.721a15.385,15.385,0,0,0-3.506,5.77q-.67-11.073-1.337-22.145c-.26-4.332-.446-8.676-.807-13-.346-4.12-.232-8.74-1.485-12.695-.2-.627-1.242-.734-1.386,0-.753,3.912-.167,8.227-.045,12.195.139,4.5.464,9,.715,13.5q.718,12.859,1.436,25.716l0,.017c-3.768,2.646-5.38,7.564-4.942,12.12a6.115,6.115,0,0,0-5.281,3.249,5.574,5.574,0,0,0-2.665-.144,1.305,1.305,0,0,0,.036-.343c-.721-5.229-.5-10.577-.588-15.9q-.155-8.733-.579-17.454-.415-8.459-1.086-16.9c-.416-5.234-.33-11.463-2.159-16.429-.1-.275-.6-.363-.652,0a39.936,39.936,0,0,0,.092,7.989c.159,3.169.442,6.33.635,9.5q.57,9.235.828,18.491.251,8.987.212,17.986c0,1.148-.03,2.3-.049,3.451a35.493,35.493,0,0,0-5.712-4c-2.1-1.152-4.635-2.667-7.122-2.543a3.487,3.487,0,0,0-3.375,4.35,7.049,7.049,0,0,0,1.764,3.094c.21.234.446.472.685.719a9.848,9.848,0,0,0-3.607-.59,6.551,6.551,0,0,0-5.212,2.755,4.377,4.377,0,0,0-.491,1.054,5.2,5.2,0,0,0-3.343.275c-7,2.4-13.588,6.665-19.935,10.388-7.339,4.3-14.6,8.766-21.712,13.439-1.9,1.249-3.845,2.478-5.62,3.91-5.877,4.736-10.2,11.195-14.905,17.014a118.662,118.662,0,0,1-18.946,18.439c-3.661,2.89-7.455,5.594-11.257,8.294-3.257,2.311-7.532,4.369-10.068,7.48a.442.442,0,0,0,.427.732c3.021-.852,5.712-3.1,8.335-4.8,3.2-2.069,6.354-4.193,9.45-6.414a149.1,149.1,0,0,0,15.69-12.751c5.163-4.893,9.517-10.42,14.04-15.884,3.049-3.684,6.639-7.867,10.292-10.476a332.756,332.756,0,0,1,36.937-22.574,52.767,52.767,0,0,1,8.322-3.925c.279-.09.642-.221.983-.3a2.518,2.518,0,0,0,.3.82c-.227,2.751-1.652,6.041-4.227,7.347a1.245,1.245,0,0,0-.657,1.375c-7.109,3.925-14.783,6.727-21.753,10.922a113.636,113.636,0,0,0-19.18,14.377c-6.12,5.742-11.045,12.373-15.989,19.111a119.481,119.481,0,0,1-19.109,20.607c-7.38,6.268-15.409,11.74-23.317,17.313-1.223.863-.112,2.865,1.193,2.041,12.864-8.116,25.89-16.63,36.115-28.04,5.408-6.032,9.746-12.888,14.8-19.205A94.978,94.978,0,0,1,263.7,251.885a111.043,111.043,0,0,1,20.019-12.1c6.779-3.2,13.283-6.371,19.463-10.643,1.725-1.193,4.275-2.633,5.217.165a7.965,7.965,0,0,1-.178,4.287,17.794,17.794,0,0,1-2.921,6.232c-2.811,3.845-6.942,6.5-10.961,8.918-8.532,5.137-18.356,10.131-20.4,20.851a1.632,1.632,0,0,0,3.144.867c-.2.594.2-.058.612-.294.476-.273.938-.575,1.418-.845,1.564-.882,3.189-1.665,4.809-2.44,2.852-1.36,5.764-2.6,8.594-4,4.506-2.232,8.635-5.4,12.8-8.2q7.606-5.111,15.405-9.888c5.294-3.251,10.57-6.534,15.686-10.058,4.629-3.187,8.875-6.822,13.4-10.137a19.485,19.485,0,0,1,7.191-3.635c3.481-.755,7.311,1.045,5.135,5.071-1.354,2.513-3.912,4.526-5.953,6.463q-3.364,3.193-6.865,6.232c-10.332,9.015-21.338,17.214-31.95,25.888-1.457,1.191.616,3.223,2.062,2.06,7.59-6.1,16.665-10.07,25.025-14.967,9.191-5.384,17.5-12.124,26.484-17.823a38,38,0,0,1,7.38-4.133c1.753-.614,5.238-1.064,6.259,1.1,1.112,2.358-1.249,5.847-2.762,7.506-3.393,3.723-7.732,6.873-11.6,10.09q-6.219,5.173-12.607,10.139c-10.036,7.832-20.323,15.336-30.632,22.806-1.358.983-.607,3.317,1.193,2.83,18.748-5.043,33.726-18.042,49.112-29.2a62.715,62.715,0,0,1,5.461-3.8c1.721-.983,4.421-1.064,4.624,1.451a8.267,8.267,0,0,1-1.513,4.594,61.942,61.942,0,0,1-8.762,11.641c-6.731,7.184-14.654,13.1-22.583,18.877-7.813,5.7-17.442,9.59-23.577,17.315-1.062,1.339.292,3.682,1.987,2.575a24.125,24.125,0,0,1,4.021-1.7c2.126-.873,4.264-1.727,6.356-2.682a61.732,61.732,0,0,0,7.594-4.682c3.639-2.348,7.272-4.7,10.918-7.036,3.446-2.206,7.09-4.528,11.221-5.1a6.548,6.548,0,0,1,3.092.026c1.526.616.957,2.026.019,3.086a33.028,33.028,0,0,1-4.3,3.543c-6.214,4.931-12.506,9.772-18.98,14.358-12.633,8.95-26.051,17.07-40.587,22.534a114.484,114.484,0,0,1-22.454,6.006c-8.324,1.313-16.793,1.35-25.106,2.76-18.553,3.15-36.66,11.375-52.782,20.864a1.791,1.791,0,0,0,1.807,3.09c15.763-9.257,33.325-17.2,51.436-20.366,9.229-1.614,18.656-1.551,27.883-3.236a118.225,118.225,0,0,0,23.963-7.18c15.375-6.371,29.452-15.377,42.78-25.263q4.957-3.673,9.8-7.491c3.03-2.375,6.6-4.65,9.206-7.5,1.891-2.071,2.663-5.526.255-7.526-2.526-2.1-6.886-1.208-9.714-.273-4.448,1.472-8.334,4.221-12.229,6.747-4.526,2.929-8.991,6-13.6,8.8a28.829,28.829,0,0,1-4,1.944c5.671-4.388,12.392-7.7,18.066-11.864,8.472-6.219,16.944-12.658,23.838-20.656,3.219-3.732,6.783-8.064,8.528-12.727C391.257,252.617,390.259,247.486,385.766,247.1Zm-41.889-41.5c1.337-3.255,4.116-6.575,7.459-7.888,1.7-.665,3.405-.324,3.792,1.618a9.894,9.894,0,0,1-.481,4.521c-.33,1.165,1.283,2.236,2.127,1.236,1.315-1.551,2.7-3.285,4.59-4.159,1.779-.82,4.092-.753,5.148,1.116a5.738,5.738,0,0,1-.12,5.169c-.539,1.165-1.9,2.513-2.3,3.886-3.1-2.008-7.2-2.421-10.289-.414a10.284,10.284,0,0,0-11.313-4.028l-.034-.584A.989.989,0,0,0,343.877,205.608ZM302.017,224.45a6.42,6.42,0,0,0,1.092.824c-.534.255-1.069.536-1.6.848A11.232,11.232,0,0,0,302.017,224.45Zm4.875-.172a.992.992,0,0,0-.249-.191,9.977,9.977,0,0,1-3.478-2.245,2.575,2.575,0,0,1-.148-3.345c2.144-2.6,6.079-.9,8.519.2a1.2,1.2,0,0,0,1.727-1.33c-.29-1.989-1.835-3.2-3.062-4.644-.564-.663-1.388-1.865-.9-2.764.431-.8,1.558-.7,2.315-.547a21.179,21.179,0,0,1,5.9,2.635,56.97,56.97,0,0,1,5.708,3.71c-.024,1.335-.049,2.667-.047,4,0,1.528.019,3.144,1.167,4.109a10.435,10.435,0,0,0-4.026,2.684,9.484,9.484,0,0,0-2.455,4.981,7.474,7.474,0,0,0-2.933-.343,5.066,5.066,0,0,0-3.011,1.1,8.862,8.862,0,0,0-.953-5.429A4.521,4.521,0,0,0,306.893,224.279Zm52.591-6.339c-5.416-.382-10.163,3.375-14.124,6.573A199.1,199.1,0,0,1,327.607,237.2c-5.837,3.736-11.8,7.266-17.654,10.972-5.905,3.738-11.635,7.933-17.772,11.285-3.358,1.835-6.989,3.217-10.44,4.873-.788.378-1.858.809-2.957,1.313,3.792-7.161,12.13-10.854,18.926-15.1,4-2.5,7.86-5.365,10.6-9.264a21.417,21.417,0,0,0,3.39-7.738c1.092-.039,2.131-.4,3.229-.356a5.212,5.212,0,0,1,3.251,1.26,1.31,1.31,0,0,0,2.208-.914,7.193,7.193,0,0,1,2.365-5.547,7.511,7.511,0,0,1,2.729-1.633,9.215,9.215,0,0,1,3.049-.3,5.779,5.779,0,0,0,1.107,3.554,6.108,6.108,0,0,0-.906.6c-1.659,1.345-2.558,3.813-1.442,5.77.539.948,1.961.107,1.457-.852a2.23,2.23,0,0,1-.028-1.918,3.837,3.837,0,0,1,1.32-1.659c1.644-1.112,3.826-.972,5.714-.882a1.048,1.048,0,0,0,1.009-.768c.221-1.532-1.74-1.348-2.637-1.32a15.455,15.455,0,0,0-2.015.2c-.221.036-.438.09-.657.144a3.96,3.96,0,0,1,4.1-6.255,1.207,1.207,0,0,0,1.466-1.466c-.865-4.352.74-9.689,5.01-11.693,3.781-1.768,8.678-.221,10.341,3.667a1.25,1.25,0,0,0,1.946.251c2.794-2.757,7.508-1.734,10.01.938,2.742,2.927,3.225,7.186,3.043,11.081-.785.3-1.547.65-2.3,1.013.015-.034.039-.062.054-.1C366.927,221.987,363.951,218.253,359.483,217.94Zm4.925,16.678c-5.116,3.493-10.1,7.178-15.251,10.622-3.646,2.438-7.478,4.592-11.334,6.708,4.82-3.858,9.607-7.759,14.24-11.843q3.657-3.222,7.176-6.6a51.535,51.535,0,0,0,3.777-3.869c.453-.251.9-.509,1.367-.736a28.1,28.1,0,0,1,3.116-1.255,1.214,1.214,0,0,0,2.045-.642,33.086,33.086,0,0,1,4.693-.981c.715-.086,3.043-.549,3.251.521a1.075,1.075,0,0,0,.124.3,26.144,26.144,0,0,0-4.8,2.38C369.94,230.909,367.157,232.74,364.408,234.617Zm15.186,14.862c-2.294,1.584-4.543,3.24-6.783,4.9-4.345,3.219-8.639,6.5-13.021,9.674-7.083,5.122-14.467,9.985-22.443,13.545,7.268-5.328,14.506-10.695,21.613-16.236q7.377-5.752,14.555-11.751c2.431-2.043,5.184-4.06,7.641-6.294a4.839,4.839,0,0,1,.88.79l.15.18.049.062.262.386.253.448.084.169.054.1a6.035,6.035,0,0,1,.294.886l.1.457.024.139.011.139c.011.118,0,.234,0,.35A15.35,15.35,0,0,0,379.594,249.48Z" data-name="Path 283" transform="translate(-189.65 -113.048)"/><path id="Path_284" fill="#372b7b" d="M330.179,159.677c-1.092-.577-2.519-.311-3.723-.283l-3.575.082-3.444.079c-.968.021-1.914.124-2.867.24q.184-5.073.043-10.148a14.406,14.406,0,0,0,1.644.032l3.324-.159c2.21-.105,4.455-.1,6.652-.367a1.179,1.179,0,0,0,1.146-1.146,1.158,1.158,0,0,0-1.146-1.146c-2.26.036-4.534.348-6.785.545l-3.324.29a13.661,13.661,0,0,0-1.569.245c-.024-.642-.034-1.283-.064-1.923a1.707,1.707,0,0,0-1.68-1.68c-1.045.03-2.092.019-3.137.03-.006-.333-.013-.665-.021-1a13.126,13.126,0,0,0-.146-1.506q-.177-1.307-.354-2.605a.718.718,0,0,0-.691-.526.746.746,0,0,0-.524.275,9.5,9.5,0,0,0-4.279-1.094c-.483-.049-.97-.067-1.455-.1-.015-.519-.03-1.041-.047-1.56,0-.088-.028-.17-.034-.255H302.39c-.006.086-.034.167-.036.255q-.023.75-.045,1.5c-.614,0-1.23,0-1.841.049-.251.024-.5.062-.751.09-.006-.633-.015-1.266-.021-1.9h-1.884c-.009.715-.015,1.427-.024,2.142-.773.12-1.541.258-2.3.425q-1.223.27-2.429.622a3.938,3.938,0,0,0-1.76,1c-.024-.013-.034-.041-.062-.052a1.342,1.342,0,0,0-1.446.275,2.4,2.4,0,0,0-.552,1.571,3.646,3.646,0,0,0,.013.824,5.16,5.16,0,0,0,.481,1.605c-1.5.082-3.008.2-4.517.408a.814.814,0,0,0-.7,1.069c-.176.745-.337,1.489-.468,2.234a.536.536,0,0,0-.369-.238c-7.358-1.27-15.9-.448-21.892,4.4a21.2,21.2,0,0,0-6.2,8.176c-1.223,2.923-1.884,6.6-.618,9.616-.313-.045-.627-.056-.942-.107-1.438-.24-2.174,1.631-1.18,2.315-1.24,1.927.165,4.519,2.161,5.414a13.542,13.542,0,0,0,4.348.824c.7.064,1.395.1,2.092.152a266.891,266.891,0,0,0,1.18,32.821c.09.957,1.567.991,1.521,0-.506-10.864-.382-21.748.146-32.61l.036,0c2.826.161,6.367.807,8.862-.929,2.109-1.463,3.3-4.882,1.017-6.759a1.514,1.514,0,0,0-.781-.318c-1.069-1.635.045-3.993,1.461-5a7.149,7.149,0,0,1,4.009-1.069,18.533,18.533,0,0,1,2.339.122c.363.041.723.088,1.084.142a5.209,5.209,0,0,0,.715.1,4.606,4.606,0,0,0,.845-.139,1.016,1.016,0,0,0,.734-.616c.015.047.039.09.054.135-.039.039-.082.054-.12.094a1.073,1.073,0,0,0,0,1.493c1.566,1.481,4.639.732,6.624.667q3.969-.125,7.935-.255,7.793-.245,15.579-.5a1.689,1.689,0,0,0,1.65-1.65c.045-.7.069-1.395.105-2.092a27.707,27.707,0,0,0,2.863.253q1.786.039,3.575.082c1.146.028,2.3.051,3.442.079,1.232.028,2.742.309,3.856-.281A1.614,1.614,0,0,0,330.179,159.677Zm-59.556,15.888c-1.858.654-4.184.23-6.109.154-2.217-.086-4.431-.066-6.648-.129a4.433,4.433,0,0,1-2.62-.631c-.481-.384-.9-1.262-.431-1.8a1.076,1.076,0,0,0,.212-.358,45.728,45.728,0,0,0,16.8.024,1.384,1.384,0,0,0,.064.159C272.56,174.029,271.657,175.2,270.623,175.565Zm13.542-12.693a4.368,4.368,0,0,0-.77-.352,5.636,5.636,0,0,0-.9-.107c-.479-.047-.959-.09-1.44-.118a16.853,16.853,0,0,0-2.869.056,8.424,8.424,0,0,0-4.974,2.105,6.594,6.594,0,0,0-1.978,5.225,54.923,54.923,0,0,1-13.95.654,1.031,1.031,0,0,0,.193-.684,23.72,23.72,0,0,1-.253-4.272,13.214,13.214,0,0,1,1.148-4.18,18.8,18.8,0,0,1,5.607-7.015c5.586-4.324,12.733-4.734,19.519-4.976a.628.628,0,0,0,.416-.189,36.23,36.23,0,0,0-.423,6.523,48.348,48.348,0,0,0,.416,5.043c.1.779.2,1.575.348,2.356A.92.92,0,0,0,284.165,162.873Zm7.766-20.967a1.312,1.312,0,0,0,.118-.56c0-.013-.011-.021-.011-.034a3.954,3.954,0,0,0,1.249-.017c.781-.139,1.56-.281,2.348-.38a36.727,36.727,0,0,1,4.832-.262c1.564.019,3.131.034,4.691.172a16.679,16.679,0,0,0,4.358.27c-.034.258-.071.513-.105.77a13.1,13.1,0,0,0-.146,1.506c-.007.339-.015.68-.021,1.019-3.122,0-6.247-.026-9.367-.064-2.659-.034-5.3-.077-7.933-.011a.848.848,0,0,0,0-.322,3.651,3.651,0,0,1-.2-.749,3.787,3.787,0,0,1,0-.605A3.641,3.641,0,0,1,291.931,141.905Zm21.184,20.907q-7,.245-14.006.494-3.818.132-7.641.268l-3.734.131c-.178-1.187-.53-2.356-.745-3.536a43.088,43.088,0,0,1-.6-4.809,68.956,68.956,0,0,1-.019-8.5c4.586.335,9.174.446,13.774.627,4.35.17,8.695.315,13.047.24Q313.5,155.268,313.115,162.812Z" data-name="Path 284" transform="translate(-123.082 -136)"/></g><path id="Path_285" fill="#e1e1ff" d="M249.677,195.026a3.8,3.8,0,0,1-3.384-3.073,2.884,2.884,0,0,1,2.863-3.206,7.131,7.131,0,0,1,2.18.833,7.974,7.974,0,0,0,4.126.661c-.116-1.457-1.345-2.528-2.326-3.611s-1.8-2.71-1.019-3.944a2.634,2.634,0,0,1,2.757-.944,7.756,7.756,0,0,1,2.738,1.408l5.053,3.528c-1.043.562-2.322-.266-3.491-.09-1.423.217-2.212,1.869-2.12,3.3a18.362,18.362,0,0,0,1.212,4.124,2.048,2.048,0,0,1,.013,1.584c-.309.558-1.006.738-1.6.972s-1.227.742-1.105,1.369a1.611,1.611,0,0,0,.676.858,5.716,5.716,0,0,1,1.644,1.747,1.992,1.992,0,0,1-.174,2.255,2.437,2.437,0,0,1-1.1.579,7.381,7.381,0,0,1-5.912-.833,8.287,8.287,0,0,0-.961-5.332Z" data-name="Path 285" transform="translate(-130.08 -83.665)"/></g></g></g></g></svg>