<svg xmlns="http://www.w3.org/2000/svg" xmlns:xlink="http://www.w3.org/1999/xlink" width="335.696" height="362.052" viewBox="0 0 335.696 362.052"><defs><clipPath id="clip-path"><circle id="Ellipse_20" cx="135.5" cy="135.5" r="135.5" fill="rgba(0,0,0,0)" data-name="Ellipse 20" transform="translate(0 0)"/></clipPath></defs><g id="Component_21_1" data-name="Component 21 – 1" opacity=".997"><g id="Group_167" data-name="Group 167" transform="translate(-155.179 -244.155)"><circle id="Ellipse_19" cx="135.5" cy="135.5" r="135.5" fill="#ff8bb5" data-name="Ellipse 19" transform="translate(188.179 294.154)"/><path id="Path_209" fill="#ff8bb5" d="M-2242.865-131.008c10.974-10.974,86.876-91.449,151.806-58.527s96.021,72.245,131.686,146.318c11.48,29.414,19.2,116.14-86.876,184.727s-184.727-35.665-196.616-50.3S-2339.8-10.3-2242.865-131.008Z" data-name="Path 209" opacity=".1" transform="translate(-1797.838 408.813) rotate(-180)"/><g id="Group_179" data-name="Group 179" transform="translate(188.179 294.154)"><g id="Group_178" clip-path="url(#clip-path)" data-name="Group 178" transform="translate(0 0)"><g id="Group_177" data-name="Group 177" transform="translate(39.733 29.33)"><g id="Group_176" data-name="Group 176"><path id="Path_286" fill="#fff" d="M250.606,369.561c-1.071-4.164-6.9-5.678-10.55-3.4s-5.111,7.019-4.733,11.3a11.934,11.934,0,0,0,1.71,5.466c2.393,3.7,7.195,5.1,11.6,5.065q1.774,26.047,1.607,52.175a27.06,27.06,0,0,0,27.372,4.884,14.236,14.236,0,0,0,6.634-4.777c3.794-5.46-.483-17.043,5.855-20.039,2.691-1.271,7.05-.244,10.018-.987a17.908,17.908,0,0,0,10.422-6.64c9.3-13.043,7.563-31.716,7.218-46.676a156.418,156.418,0,0,1,.981-21.478c.708-6.161,1.664-12.9-1.657-18.142-4.208-6.638-13.23-7.852-21.076-8.281-12.966-.71-27.189-.706-37.311,7.428a28.019,28.019,0,0,0-10.262,22.795c.1,2.084.326,4.483-1.162,5.943Z" data-name="Path 286" transform="translate(-176.083 -297.516)"/><path id="Path_287" fill="#e1e1ff" d="M258.79,331.346c10.732,7.315,23.316,14.684,35.945,11.646q-1.78,18.424-3.557,36.851c-11.432-.55-23.374-1.008-33.777,3.758a5.055,5.055,0,0,0-2.6,2.061,5.388,5.388,0,0,0-.279,2.876q1.046,11.949,2.817,23.82a59.094,59.094,0,0,1-11.617-.746,19.6,19.6,0,0,0,11.041,9.05,4.45,4.45,0,0,1,2.712,1.569,4,4,0,0,1,.267,2.426q-.939,9.3-1.874,18.6c5.878,2.451,12.8-1.981,15.362-7.811s1.962-12.5,1.309-18.833c6.344-.405,12.9-1.172,18.354-4.432,6.705-4.008,7.256-7.369,9.111-14.957s5.292-19.492,5.1-27.3q-.583-24.1-1.168-48.2-1.727.221-3.456.439Z" data-name="Path 287" transform="translate(-164.574 -293.15)"/><path id="Path_288" fill="#b7b7ff" d="M253.427,384.275c-1.565-.389-1.416-9.863-.729-11.256,2.651-5.361,9.848-2.229,14.671-2.937a15.089,15.089,0,0,0,7.747-3.09,16.139,16.139,0,0,0,4.067-6.18,41.629,41.629,0,0,0,2.939-11.123,15.208,15.208,0,0,0,8.424,1.909c1.389-.092,2.872-.359,4.107.282,2,1.036,2.237,3.754,2.183,6-.1,4.2-.321,8.468-1.666,12.451a23.307,23.307,0,0,1-17.335,15.127c-6.119,1.174-12.438-.189-18.654.239Z" data-name="Path 288" transform="translate(-157.439 -262.357)"/><path id="Path_289" fill="#77f" d="M207.093,455.543c4.647-18.1,9.987-37.351,24.087-49.606,14.629-12.711,36.315-15.606,49.6-29.714a22.168,22.168,0,0,0,20.572,10.825c8.491-.7,15-6.409,18.541-13.833,5.39,7.376,14.7,8.684,23.078,10.6,9.062,2.067,17.032,7.7,23.188,14.667,13.718,15.533,15.194,36.025,28.011,52.06,3.374,4.22,7.218,8.134,9.783,12.89a3.926,3.926,0,0,1,.637,2.84,3.994,3.994,0,0,1-1.489,1.855c-7.647,6.18-17.251,9.3-26.635,12.224-32.517,10.142-67.233,19.6-100.189,11-14.56-3.8-27.979-10.966-41.245-18.068Z" data-name="Path 289" transform="translate(-207.093 -236.463)"/><path id="Path_290" fill="#6363eb" d="M215.557,445.378l11.06-29.191c1.731-4.565,3.517-9.228,6.666-12.961a3.209,3.209,0,0,1,2.239-1.408c1.294,0,2.1,1.368,2.611,2.559,5.04,11.772,7.586,24.5,8.6,37.269.387,4.84.334,10.308-3.088,13.753-2.874,2.893-7.352,3.477-11.419,3.153s-8.094-1.38-12.163-1.122Z" data-name="Path 290" transform="translate(-197.777 -204.979)"/><path id="Path_291" fill="#6363eb" d="M252.879,384.221c.716,6.516,9.069,8.962,12.7,14.423,1.771,2.664,2.317,5.939,2.733,9.111,3.088,23.608,1.225,47.564,2.391,71.342.225,4.586.616,9.352,2.928,13.318,8.7,2.382,18.009.893,26.622-1.775s16.848-6.485,25.536-8.886c1.689-.468,3.67-1.137,4.14-2.825a5.3,5.3,0,0,0-.607-3.332c-4.43-10.852-4.7-22.864-5.93-34.521s-3.767-23.851-11.611-32.563c-6.3-6.991-15.23-10.871-23.616-15.144s-16.917-9.577-21.083-18.014a14.382,14.382,0,0,1-11.59,8.749Z" data-name="Path 291" transform="translate(-156.696 -234.106)"/><path id="Path_292" fill="#372b7b" d="M236.694,358.051a48.651,48.651,0,0,0,2.659,9.777,49.473,49.473,0,0,0,2.031,4.565c.527,1.036,2.044,2.735,1.767,3.964-3.8-.2-6.546,5.863-6.974,8.85a13.288,13.288,0,0,0,4.853,12.415,9.069,9.069,0,0,0,4.756,1.735,45.751,45.751,0,0,1,4.393,19.847c-.082,2.979-.126,5.962-.111,8.957q.028,5.3.294,10.592c.1,1.981.712,4.078.45,6.111-.315,2.443-2.279,3.5-4.1,4.882a4.936,4.936,0,0,0-.683.548c-.189.2-.351.437-.523.653a.756.756,0,0,0-.059.977.745.745,0,0,0,.96.193c.227-.126.452-.254.676-.382a3.586,3.586,0,0,0,.672-.563c.378-.363.756-.725,1.13-1.094q.788-.778,1.578-1.555a22.109,22.109,0,0,0,20.56,12.09A22.925,22.925,0,0,0,290.6,446.564c.534-1.269-1.693-2.22-2.241-.943-.155.361-.363.693-.54,1.044.384-2.582-.006-5.323-.122-7.911-.092-2.061-.275-4.054-.51-6.056,7.142.09,14.409-.781,20.392-5.04,6.1-4.344,9.088-11.291,10.321-18.48a115.625,115.625,0,0,0,1.328-15.1c.141-3.788.212-7.577.4-11.363.149-2.962.275-5.924.357-8.888a21.764,21.764,0,0,1,0-4c.263-1.065,1.25-1.8,1.758-2.756a15.581,15.581,0,0,0,1.1-4.04c.368-1.733.645-3.483.865-5.239a38.706,38.706,0,0,0,.347-5.17c-.021-1.762.17-3.924-1-5.3a8.028,8.028,0,0,0,3.061-3.443c1.328-2.939,1.334-6.554,1.239-9.728a15.959,15.959,0,0,0-.786-4.367c-1.529-6.668-6.239-12.663-12.1-16.4-.3-.193-.616-.355-.924-.538-.065-.04-.137-.076-.2-.118q-.936-.539-1.893-1.01c-.055-.023-.1-.059-.153-.082-.027-.013-.057-.019-.084-.032-10.808-5.172-23.95-3.9-35.174-.7-10.224,2.909-20.6,9.161-24.288,19.1-.137.231-.273.46-.389.7a13.322,13.322,0,0,0-1.384.1,17.642,17.642,0,0,0-15.028,11.39c-1.643,4.6-.548,9.625,1.065,14.064C236.24,356.858,236.471,357.455,236.694,358.051Zm80.925,17.65c-.317,7.378-.637,14.772-1.084,22.146-3.689-.783-7.077-2.632-10.693-3.708a38.761,38.761,0,0,0-13.47-1.38A62.523,62.523,0,0,0,279.21,395.2c-2.269.647-4.512,1.37-6.745,2.13-1.641.559-3.666.968-4.966,2.174-2.79-3.525-5.558-7.073-8.233-10.688q-2.158-2.918-4.237-5.895c-.464-.666-.92-1.338-1.378-2.006a1.272,1.272,0,0,0,.092-.41,132.681,132.681,0,0,0-1.1-24.851,14.546,14.546,0,0,0,10.7-6.844,8.653,8.653,0,0,0,.9-2.048,53.212,53.212,0,0,0,11.3,3.58,99.3,99.3,0,0,0,19.574,2.12c6.424.153,13.7.863,19.942-.945a15.674,15.674,0,0,0,2.422-.956A210.535,210.535,0,0,1,317.619,375.7Zm1.353-25.958v.019l0-.019Zm-80.6,35.762c.475-3.141,2.34-6.168,5.533-7.077a6.935,6.935,0,0,1,6.565,1.4c.216.4.506.784.8,1.229q1.015,1.566,2.054,3.117,2.14,3.192,4.374,6.321c2.914,4.08,5.949,8.046,9.184,11.877a1.025,1.025,0,0,0,.473.323c-.786,4.756-.13,12.789.04,14.176a53.371,53.371,0,0,0,1.447,7.537,120.945,120.945,0,0,1-9.6-9.48c-2.34-2.7-4.468-5.626-6.56-8.474a2.065,2.065,0,0,1-.261-1.25c.017-2.985.174-5.926.141-8.911a1.033,1.033,0,0,0-1.744-.723,6.03,6.03,0,0,1-3.754,1.714,1.043,1.043,0,0,0-.691.015,7.43,7.43,0,0,1-5.071-2.237A11.377,11.377,0,0,1,238.37,385.505Zm46.85,62.265a1.235,1.235,0,0,0,1.5.861,20.25,20.25,0,0,1-15.976,9.407,21.127,21.127,0,0,1-18.28-9.869.622.622,0,0,0,.13-.126c.861-1.317.445-2.882.382-4.4q-.1-2.442-.174-4.886-.107-3.479-.208-6.955c.1-4.048.086-8.1.086-12.106,0-3.3-.038-6.6-.053-9.9a77.359,77.359,0,0,0,14.72,16.782c-.716-.34-1.431-.689-2.111-1.1a1.272,1.272,0,0,0-1.283,2.2c6.34,3.846,14.241,4.762,21.515,5,.074,0,.149,0,.225,0-.237,2.01-.42,4.01-.513,6.079C285.044,441.712,284.485,444.882,285.22,447.77Zm24.339-25.265a12.771,12.771,0,0,1-4.964,3.977c-8.529,3.508-18.1,3.231-27.286,2.445-1.483-.126-3.6-.258-4.7-1.422-.981-1.034-1.2-2.922-1.561-4.277-.655-2.464-1.267-4.935-1.681-7.453a57.463,57.463,0,0,1-.727-7.9c-.015-.634-.143-5.271.389-7.073a26.209,26.209,0,0,0,4.069-1.193c2.107-.628,4.227-1.22,6.361-1.75a71.208,71.208,0,0,1,13.833-2.174,35.514,35.514,0,0,1,13.449,1.878c3.243,1.143,6.3,2.561,9.634,3.241-.01.141-.015.284-.025.424C315.848,408.634,314.647,416.736,309.559,422.505Z" data-name="Path 292" transform="translate(-177.317 -308.116)"/><path id="Path_293" fill="#372b7b" d="M261.377,343.031l-.393.225h0l-.227.069a2.569,2.569,0,0,0-.712.431c.408-.292.09-.078,0-.021l-.382.21v0l-.214.069-.487.113-.254.017-.494-.006-.263-.025.055,0h0l-.515-.13-.212-.071-.032-.01c-.006,0,0,0-.008,0l-.433-.216-.38-.239-.069-.059-.158-.153-.147-.162L256,343l-.252-.462a1,1,0,0,0-1.258-.412,1.016,1.016,0,0,0-.584,1.189,4.73,4.73,0,0,0,3.951,3.487,5.759,5.759,0,0,0,2.888-.187,3.215,3.215,0,0,0,1.7-1.1,3.765,3.765,0,0,0,.483-1.3,1.069,1.069,0,0,0-.376-1.1A1.046,1.046,0,0,0,261.377,343.031Z" data-name="Path 293" transform="translate(-155.602 -270.772)"/><path id="Path_294" fill="#372b7b" d="M255.839,343.031c.107.019.275.011,0,0Z" data-name="Path 294" transform="translate(-153.438 -269.686)"/><path id="Path_295" fill="#372b7b" d="M267.9,343.466a.217.217,0,0,0-.057-.069l.019.032Z" data-name="Path 295" transform="translate(-140.23 -269.283)"/><path id="Path_296" fill="#372b7b" d="M268.628,343.739a.447.447,0,0,0-.057.008l.038,0Z" data-name="Path 296" transform="translate(-139.424 -268.907)"/><path id="Path_297" fill="#372b7b" d="M273.585,342.684c-.273.3-.55.592-.845.872-.269.261-.492.559-.752.828l-.435.414-.019.021-.008,0-.246.166-.256.149-.107.057-.132.044-.2.05a.245.245,0,0,1,.057,0l-.076,0-.01,0c-.155.042-.1.017-.027,0l-.13.006-.24-.006-.429-.111-.16-.082-.147-.09-.313-.309-.063-.065c.013.029,0,.021-.038-.038l-.048-.053a.113.113,0,0,1,.029.021l-.006-.008-.04-.063,0-.006-.04-.149a1.06,1.06,0,0,0-2.027,0,2.893,2.893,0,0,0,.029,1.479A2.752,2.752,0,0,0,268,347.247a4.156,4.156,0,0,0,2.639.784,5.214,5.214,0,0,0,3.071-1.357,5.637,5.637,0,0,0,1.136-1.239c.25-.4.458-.838.668-1.262a1.242,1.242,0,0,0-.315-1.584A1.224,1.224,0,0,0,273.585,342.684Z" data-name="Path 297" transform="translate(-141.377 -270.457)"/><path id="Path_298" fill="#372b7b" d="M259.813,338.655q.545-.161,1.1-.3a2.369,2.369,0,0,0,1.42-.6c.445-.536.542-1.582-.248-1.926a1.649,1.649,0,0,0-1.174-.153l-.546.16q-.577.18-1.145.391a25.038,25.038,0,0,0-2.439,1.052,23.441,23.441,0,0,0-4.2,2.733c-.884.712.284,2.237,1.22,1.582a20,20,0,0,1,6.016-2.939Z" data-name="Path 298" transform="translate(-157.376 -277.836)"/><path id="Path_299" fill="#372b7b" d="M275.427,339.177a10.823,10.823,0,0,0-6.376-1.489.789.789,0,0,0,0,1.578,9.394,9.394,0,0,1,1.286.263c.248.071.491.149.733.237l.273.1.01,0,.172.078a9.488,9.488,0,0,1,1.256.693l.555.393c-.267-.244.053.042.105.088l.286.252a1.4,1.4,0,1,0,1.7-2.2Z" data-name="Path 299" transform="translate(-139.762 -275.608)"/><path id="Path_300" fill="#372b7b" d="M278.223,357.017a55.192,55.192,0,0,1,7.9-2.3,8.924,8.924,0,0,0-.1,3.613c.454,1.968,2.086,2.309,3.846,1.912,4.527-1.021,9.039-2.1,13.558-3.155,1.54-.357.886-2.7-.653-2.365q-5.01,1.1-10.025,2.2l-2.386.523c-.4.086-.794.181-1.193.263-.111.021-.464.008-.546.088a5.668,5.668,0,0,1,.082-2.061,16.179,16.179,0,0,1,.531-2.443,1.352,1.352,0,0,0-1.645-1.643,55.493,55.493,0,0,0-10,3.09C276.223,355.307,276.784,357.567,278.223,357.017Z" data-name="Path 300" transform="translate(-130.356 -260.238)"/><path id="Path_301" fill="#372b7b" d="M284.679,366.535a2.879,2.879,0,0,0,2.38,2.815,7.685,7.685,0,0,0,2.338-.128q1.415-.183,2.832-.363l5.3-.676a1.527,1.527,0,1,0-.408-3.012c-2.981.4-5.964.88-8.955,1.206-.279.029-.628-.086-.506.16a3.33,3.33,0,0,1,.05-1.309,5.828,5.828,0,0,0-.4-3.155,1.463,1.463,0,0,0-1.632-.664q-1.887.4-3.773.811l-1.714.368-.218.034a1.173,1.173,0,0,0-.813-.29,1.438,1.438,0,0,0-1,2.323c.838,1.227,2.613.609,3.8.387l2.888-.544c-.023.176-.051.361-.065.5A8.794,8.794,0,0,0,284.679,366.535Z" data-name="Path 301" transform="translate(-129.183 -249.5)"/><path id="Path_302" fill="#372b7b" d="M397.087,460.985c-7.98-14.281-12.144-30.334-19.192-45.058-6.269-13.1-16.184-27.792-31.3-31.391-4.029-.958-8.2-1.231-12.258-2.082a26.271,26.271,0,0,1-5.939-1.815c-2.229-1.057-3.18-2.435-4.4-4.535a.631.631,0,0,0-1.149.109l-.3-.174-.2-.143-.015-.01-.113-.1-.393-.38-.2-.227-.019-.021-.069-.1-.292-.464-.135-.265-.021-.046.017.042-.055-.139a.745.745,0,0,0-1.437.395,5.77,5.77,0,0,0,2.588,3.2.811.811,0,0,0-.405.41c-9.567,21.564-35.756,21.606-47.522,2.426a.334.334,0,0,0-.1-.168c-.147-.244-.3-.479-.447-.729-.258-.454-1.055-.151-.865.363.092.246.2.471.3.71a225.977,225.977,0,0,1-22.528,11.69c-7.594,3.6-15.726,7.039-22.429,12.19a44.881,44.881,0,0,0-13.064,17.211,87.517,87.517,0,0,0-7.079,24.278c-.193,1.475,2.08,1.639,2.494.34,2.569-8.029,3.754-16.293,7.361-24.011,3.183-6.813,7.768-13.142,14.15-17.27,13.4-8.661,28.452-14.264,41.392-23.717,9.661,22.45,41.871,20.076,50.268-2.5a.837.837,0,0,0-.021-.628,9.495,9.495,0,0,0,5.279,4.523,53.9,53.9,0,0,0,11.094,2.525,38.217,38.217,0,0,1,9.928,2.508,40.22,40.22,0,0,1,10.281,6.718c12.514,11.2,18.488,27.946,24.4,43.186,3.18,8.2,6.334,16.484,10.663,24.164A1.008,1.008,0,0,0,397.087,460.985Z" data-name="Path 302" transform="translate(-206.04 -235.996)"/><path id="Path_303" fill="#372b7b" d="M242.344,351.907a1.451,1.451,0,0,0,1.949-.939,3.188,3.188,0,0,0,.216-1.078,7.131,7.131,0,0,1,0-.821,6.649,6.649,0,0,0-.134-1.813,4.324,4.324,0,0,0-1.683-2.71,3.26,3.26,0,0,0-2.8-.569,2.675,2.675,0,0,0-1.708,1.729,2.193,2.193,0,0,0,.54,2.391.438.438,0,0,0,.62-.618,1.191,1.191,0,0,1-.162-1.286,1.667,1.667,0,0,1,.41-.59,1.106,1.106,0,0,1,.559-.309,1.777,1.777,0,0,1,1.534.5l.181.183.09.095.292.475.057.116-.006-.015.08.252.073.3.027.153,0,.057,0,.359-.013.155-.011.105v-.019c-.052.237-.1.473-.166.706l-.048.151,0,.008-.092.126.025-.031a4.051,4.051,0,0,0-.515.884A1.453,1.453,0,0,0,242.344,351.907Z" data-name="Path 303" transform="translate(-173.032 -268.77)"/><path id="Path_304" fill="#372b7b" d="M281.661,426.7c-1.563-11.054-2.557-22.23-4.487-33.227-.053-.3-.519-.221-.517.069.1,11.165,1.586,22.368,2.956,33.433q.964,7.815,2.078,15.6c.771,5.405.964,11.72,2.989,16.81a.925.925,0,0,0,1.807-.246c.193-5.077-1.445-10.552-2.258-15.558Q282.857,435.157,281.661,426.7Z" data-name="Path 304" transform="translate(-130.524 -214.368)"/><path id="Path_305" fill="#372b7b" d="M227.694,404.332c-.786,2.926-.475,6.256-.641,9.272q-.265,4.749-.594,9.5-.671,9.9-2.071,19.724c-.229,1.6,2.233,2.283,2.449.674.882-6.523,1.554-13.071,1.97-19.639.208-3.294.319-6.579.332-9.88.008-3.109.405-6.636-.433-9.653A.529.529,0,0,0,227.694,404.332Z" data-name="Path 305" transform="translate(-188.073 -202.625)"/><path id="Path_306" fill="#372b7b" d="M272.256,354.72c-1.445-.069-2.895-.084-4.34-.08-2.956.006-5.909.132-8.857.355-1.5.113-1.54,2.407,0,2.365q4.339-.12,8.682.08c1.391.065,2.777.164,4.166.256,1.483.1,3.061.464,4.5.038a1.284,1.284,0,0,0,.3-2.321A10.742,10.742,0,0,0,272.256,354.72Z" data-name="Path 306" transform="translate(-151.149 -256.908)"/><path id="Path_307" fill="#372b7b" d="M275.6,360.327a36.891,36.891,0,0,1-18.043.227.92.92,0,0,0-.489,1.773,33.731,33.731,0,0,0,19.278.7A1.4,1.4,0,0,0,275.6,360.327Z" data-name="Path 307" transform="translate(-152.793 -250.705)"/></g><path id="Path_308" fill="#fff" d="M250.415,325.269a48.877,48.877,0,0,1,14.056-7.485c5.374-1.706,10.392-1.086,15.82-1.636a2.43,2.43,0,0,0,.643-4.75c-11.092-3.832-25.381,2.912-32.557,11.23C247.22,323.967,248.783,326.488,250.415,325.269Z" data-name="Path 308" transform="translate(-162.091 -305.717)"/><path id="Path_309" fill="#fff" d="M270.8,318.322c4.737,0,4.743-7.359,0-7.359S266.058,318.322,270.8,318.322Z" data-name="Path 309" transform="translate(-140.881 -304.983)"/></g></g></g></g></g></svg>